STARTFONT 2.1
FONT -FontForge-Roboto Medium-Medium-R-Normal--22-210-75-75-P-124-ISO10646-1
SIZE 21 75 75
FONTBOUNDINGBOX 42 28 -16 -5
COMMENT "Generated by fontforge, http://fontforge.sourceforge.net"
COMMENT "Copyright 2011 Google Inc. All Rights Reserved."
STARTPROPERTIES 41
FOUNDRY "FontForge"
FAMILY_NAME "Roboto Medium"
WEIGHT_NAME "Medium"
SLANT "R"
SETWIDTH_NAME "Normal"
ADD_STYLE_NAME ""
PIXEL_SIZE 22
POINT_SIZE 210
RESOLUTION_X 75
RESOLUTION_Y 75
SPACING "P"
AVERAGE_WIDTH 124
CHARSET_REGISTRY "ISO10646"
CHARSET_ENCODING "1"
FONTNAME_REGISTRY ""
CHARSET_COLLECTIONS "ISO8859-2 ISO8859-5 ISO8859-7 ISO8859-9 ISO8859-4 ISO10646-1"
FONT_NAME "Roboto-Medium"
FACE_NAME "Roboto Medium"
COPYRIGHT "Copyright 2011 Google Inc. All Rights Reserved."
FONT_VERSION "2.137; 2017"
FONT_ASCENT 16
FONT_DESCENT 6
UNDERLINE_POSITION -2
UNDERLINE_THICKNESS 2
X_HEIGHT 11
CAP_HEIGHT 15
DEFAULT_CHAR 1
RAW_ASCENT 750
RAW_DESCENT 250
NORM_SPACE 5
RELATIVE_WEIGHT 50
RELATIVE_SETWIDTH 50
SUPERSCRIPT_X 0
SUPERSCRIPT_Y 10
SUPERSCRIPT_SIZE 14
SUBSCRIPT_X 0
SUBSCRIPT_Y 3
SUBSCRIPT_SIZE 14
FIGURE_WIDTH 13
AVG_LOWERCASE_WIDTH 122
AVG_UPPERCASE_WIDTH 145
ENDPROPERTIES
CHARS 1296
STARTCHAR uni0000
ENCODING 0
SWIDTH 0 0
DWIDTH 0 0
BBX 1 1 0 0
BITMAP
00
ENDCHAR
STARTCHAR uni0002
ENCODING 2
SWIDTH 0 0
DWIDTH 0 0
BBX 1 1 0 0
BITMAP
00
ENDCHAR
STARTCHAR uni000D
ENCODING 13
SWIDTH 249 0
DWIDTH 5 0
BBX 1 1 0 0
BITMAP
00
ENDCHAR
STARTCHAR space
ENCODING 32
SWIDTH 249 0
DWIDTH 5 0
BBX 1 1 0 0
BITMAP
00
ENDCHAR
STARTCHAR exclam
ENCODING 33
SWIDTH 268 0
DWIDTH 6 0
BBX 3 16 2 0
BITMAP
C0
C0
C0
C0
C0
C0
C0
C0
C0
C0
C0
00
00
C0
E0
C0
ENDCHAR
STARTCHAR quotedbl
ENCODING 34
SWIDTH 324 0
DWIDTH 7 0
BBX 5 6 1 11
BITMAP
D8
D8
D8
D8
D8
D8
ENDCHAR
STARTCHAR numbersign
ENCODING 35
SWIDTH 610 0
DWIDTH 13 0
BBX 12 16 1 0
BITMAP
0460
0C40
0CC0
0CC0
0CC0
7FF0
7FF0
1880
1980
1980
FFE0
FFE0
3100
3300
3300
3300
ENDCHAR
STARTCHAR dollar
ENCODING 36
SWIDTH 568 0
DWIDTH 13 0
BBX 11 20 1 -2
BITMAP
0600
0600
1F00
3F80
71C0
70C0
70E0
7000
3800
1F00
0F80
01C0
00E0
E0E0
E0E0
71C0
7FC0
1F00
0400
0400
ENDCHAR
STARTCHAR percent
ENCODING 37
SWIDTH 734 0
DWIDTH 16 0
BBX 14 16 1 0
BITMAP
7800
FC00
C620
C660
C640
FCC0
7980
0180
0300
0678
06FC
0CCC
098C
18CC
30FC
0078
ENDCHAR
STARTCHAR ampersand
ENCODING 38
SWIDTH 639 0
DWIDTH 14 0
BBX 13 16 1 0
BITMAP
1E00
3F80
7180
7180
7180
3380
3F00
1C00
7E30
7730
E770
E3E0
E1E0
E1E0
7FF0
3F78
ENDCHAR
STARTCHAR quotesingle
ENCODING 39
SWIDTH 168 0
DWIDTH 4 0
BBX 2 6 1 11
BITMAP
C0
C0
C0
C0
C0
C0
ENDCHAR
STARTCHAR parenleft
ENCODING 40
SWIDTH 348 0
DWIDTH 8 0
BBX 5 23 2 -5
BITMAP
08
18
30
30
60
60
E0
C0
C0
C0
C0
C0
C0
C0
C0
C0
E0
60
60
30
30
18
08
ENDCHAR
STARTCHAR parenright
ENCODING 41
SWIDTH 352 0
DWIDTH 8 0
BBX 6 23 1 -5
BITMAP
80
C0
60
60
30
30
38
18
18
18
18
18
1C
18
18
18
38
30
30
60
60
C0
80
ENDCHAR
STARTCHAR asterisk
ENCODING 42
SWIDTH 441 0
DWIDTH 10 0
BBX 10 10 0 6
BITMAP
0C00
0C00
0C00
6D80
FF80
0C40
1E00
3300
6300
0200
ENDCHAR
STARTCHAR plus
ENCODING 43
SWIDTH 557 0
DWIDTH 12 0
BBX 10 11 1 2
BITMAP
0C00
0C00
0C00
0C00
FFC0
FFC0
0C00
0C00
0C00
0C00
0C00
ENDCHAR
STARTCHAR comma
ENCODING 44
SWIDTH 219 0
DWIDTH 5 0
BBX 4 6 0 -3
BITMAP
70
70
70
70
60
C0
ENDCHAR
STARTCHAR hyphen
ENCODING 45
SWIDTH 328 0
DWIDTH 7 0
BBX 5 2 1 6
BITMAP
F8
F8
ENDCHAR
STARTCHAR period
ENCODING 46
SWIDTH 279 0
DWIDTH 6 0
BBX 3 3 1 0
BITMAP
60
E0
60
ENDCHAR
STARTCHAR slash
ENCODING 47
SWIDTH 395 0
DWIDTH 9 0
BBX 8 17 0 -1
BITMAP
03
03
06
06
06
0C
0C
1C
18
18
30
30
30
60
60
60
C0
ENDCHAR
STARTCHAR zero
ENCODING 48
SWIDTH 568 0
DWIDTH 13 0
BBX 11 16 1 0
BITMAP
1F00
3F80
71C0
60C0
60C0
E0E0
E0E0
E0E0
E0E0
E0E0
E0E0
60C0
60C0
71C0
3F80
1F00
ENDCHAR
STARTCHAR one
ENCODING 49
SWIDTH 568 0
DWIDTH 13 0
BBX 6 16 2 0
BITMAP
0C
7C
FC
8C
0C
0C
0C
0C
0C
0C
0C
0C
0C
0C
0C
0C
ENDCHAR
STARTCHAR two
ENCODING 50
SWIDTH 568 0
DWIDTH 13 0
BBX 11 16 1 0
BITMAP
1F00
7F80
71C0
E0C0
E0C0
00C0
01C0
0380
0380
0700
0E00
1C00
3800
7000
FFE0
FFE0
ENDCHAR
STARTCHAR three
ENCODING 51
SWIDTH 568 0
DWIDTH 13 0
BBX 10 16 1 0
BITMAP
1F00
7F80
71C0
E1C0
00C0
01C0
01C0
1F80
1F80
01C0
00C0
00C0
E0C0
F1C0
7F80
1F00
ENDCHAR
STARTCHAR four
ENCODING 52
SWIDTH 568 0
DWIDTH 13 0
BBX 11 16 1 0
BITMAP
0380
0780
0780
0F80
1F80
1B80
3B80
7380
6380
E380
FFE0
FFE0
0380
0380
0380
0380
ENDCHAR
STARTCHAR five
ENCODING 53
SWIDTH 568 0
DWIDTH 13 0
BBX 10 16 2 0
BITMAP
7F80
7F80
6000
6000
E000
FE00
FF80
E380
01C0
01C0
01C0
C1C0
C1C0
E380
7F80
3E00
ENDCHAR
STARTCHAR six
ENCODING 54
SWIDTH 568 0
DWIDTH 13 0
BBX 11 16 1 0
BITMAP
0780
1F80
3C00
3000
7000
6F00
7FC0
71C0
60E0
E0E0
60E0
60E0
70E0
71C0
3F80
0F00
ENDCHAR
STARTCHAR seven
ENCODING 55
SWIDTH 568 0
DWIDTH 13 0
BBX 11 16 1 0
BITMAP
FFE0
FFE0
00C0
01C0
0180
0380
0300
0700
0700
0E00
0E00
0C00
1C00
1800
3800
3800
ENDCHAR
STARTCHAR eight
ENCODING 56
SWIDTH 568 0
DWIDTH 13 0
BBX 11 16 1 0
BITMAP
1F00
3F80
71C0
60C0
60C0
60C0
71C0
3F80
3F80
71C0
60C0
E0E0
E0E0
71C0
7FC0
1F00
ENDCHAR
STARTCHAR nine
ENCODING 57
SWIDTH 568 0
DWIDTH 13 0
BBX 10 16 1 0
BITMAP
1F00
3F80
71C0
E1C0
E0C0
E0C0
E0C0
71C0
7FC0
1EC0
00C0
01C0
0180
0780
3F00
3C00
ENDCHAR
STARTCHAR colon
ENCODING 58
SWIDTH 265 0
DWIDTH 6 0
BBX 3 12 1 0
BITMAP
60
E0
60
00
00
00
00
00
00
60
E0
60
ENDCHAR
STARTCHAR semicolon
ENCODING 59
SWIDTH 237 0
DWIDTH 5 0
BBX 3 15 1 -3
BITMAP
E0
E0
E0
00
00
00
00
00
00
60
60
60
E0
C0
C0
ENDCHAR
STARTCHAR less
ENCODING 60
SWIDTH 508 0
DWIDTH 11 0
BBX 9 10 1 2
BITMAP
0180
0780
1F80
7C00
F000
E000
7C00
1F80
0780
0180
ENDCHAR
STARTCHAR equal
ENCODING 61
SWIDTH 559 0
DWIDTH 12 0
BBX 9 7 2 4
BITMAP
FF80
FF80
0000
0000
0000
FF80
FF80
ENDCHAR
STARTCHAR greater
ENCODING 62
SWIDTH 520 0
DWIDTH 11 0
BBX 9 10 1 2
BITMAP
8000
F000
FC00
1F00
0780
0780
1F00
FC00
F000
8000
ENDCHAR
STARTCHAR question
ENCODING 63
SWIDTH 486 0
DWIDTH 11 0
BBX 9 16 1 0
BITMAP
3E00
7F00
E380
C380
0380
0380
0700
0E00
1C00
1C00
1800
0000
0000
1800
1C00
1800
ENDCHAR
STARTCHAR at
ENCODING 64
SWIDTH 894 0
DWIDTH 20 0
BBX 18 20 1 -5
BITMAP
03F800
07FE00
1E0700
380380
300180
60F080
61F8C0
6318C0
C718C0
C618C0
C610C0
C630C0
C63180
C7FF80
63CE00
600000
300000
3C1000
0FF800
07F000
ENDCHAR
STARTCHAR A
ENCODING 65
SWIDTH 665 0
DWIDTH 15 0
BBX 14 16 0 0
BITMAP
0380
0380
0780
07C0
0EC0
0EE0
0CE0
1C60
1C70
1870
3FF0
3FF8
7018
701C
601C
E01C
ENDCHAR
STARTCHAR B
ENCODING 66
SWIDTH 630 0
DWIDTH 14 0
BBX 11 16 2 0
BITMAP
FF00
FF80
C1C0
C0C0
C0C0
C0C0
C1C0
FF80
FF80
C1C0
C0E0
C0E0
C0E0
C1C0
FFC0
FF00
ENDCHAR
STARTCHAR C
ENCODING 67
SWIDTH 652 0
DWIDTH 14 0
BBX 12 16 1 0
BITMAP
0F80
3FE0
70F0
6070
E030
E000
E000
E000
E000
E000
E000
E030
6070
70F0
3FE0
0F80
ENDCHAR
STARTCHAR D
ENCODING 68
SWIDTH 653 0
DWIDTH 14 0
BBX 12 16 1 0
BITMAP
FF00
FFC0
E1E0
E0E0
E070
E070
E070
E070
E070
E070
E070
E070
E0E0
E1E0
FFC0
FF00
ENDCHAR
STARTCHAR E
ENCODING 69
SWIDTH 565 0
DWIDTH 12 0
BBX 10 16 2 0
BITMAP
FFC0
FFC0
C000
C000
C000
C000
C000
FF80
FF80
C000
C000
C000
C000
C000
FFC0
FFC0
ENDCHAR
STARTCHAR F
ENCODING 70
SWIDTH 549 0
DWIDTH 12 0
BBX 10 16 2 0
BITMAP
FFC0
FFC0
C000
C000
C000
C000
C000
FF80
FF80
C000
C000
C000
C000
C000
C000
C000
ENDCHAR
STARTCHAR G
ENCODING 71
SWIDTH 680 0
DWIDTH 15 0
BBX 13 16 1 0
BITMAP
0FC0
3FE0
7870
7070
6038
E000
E000
E000
E1F8
E1F8
E038
6038
7038
3878
3FF0
0FC0
ENDCHAR
STARTCHAR H
ENCODING 72
SWIDTH 710 0
DWIDTH 16 0
BBX 12 16 2 0
BITMAP
C070
C070
C070
C070
C070
C070
C070
FFF0
FFF0
C070
C070
C070
C070
C070
C070
C070
ENDCHAR
STARTCHAR I
ENCODING 73
SWIDTH 282 0
DWIDTH 6 0
BBX 2 16 2 0
BITMAP
C0
C0
C0
C0
C0
C0
C0
C0
C0
C0
C0
C0
C0
C0
C0
C0
ENDCHAR
STARTCHAR J
ENCODING 74
SWIDTH 555 0
DWIDTH 12 0
BBX 11 16 0 0
BITMAP
00E0
00E0
00E0
00E0
00E0
00E0
00E0
00E0
00E0
00E0
00E0
E0E0
E0C0
71C0
7F80
1F00
ENDCHAR
STARTCHAR K
ENCODING 75
SWIDTH 630 0
DWIDTH 14 0
BBX 12 16 2 0
BITMAP
C0F0
C1C0
C3C0
C380
C700
CE00
DC00
FC00
FE00
FF00
E700
C380
C3C0
C1C0
C0E0
C0F0
ENDCHAR
STARTCHAR L
ENCODING 76
SWIDTH 541 0
DWIDTH 12 0
BBX 9 16 2 0
BITMAP
C000
C000
C000
C000
C000
C000
C000
C000
C000
C000
C000
C000
C000
C000
FF80
FF80
ENDCHAR
STARTCHAR M
ENCODING 77
SWIDTH 875 0
DWIDTH 19 0
BBX 16 16 2 0
BITMAP
E00F
F00F
F01F
F01F
F83F
D83F
DC37
DC77
CC67
CE67
C6E7
C6C7
C7C7
C3C7
C387
C387
ENDCHAR
STARTCHAR N
ENCODING 78
SWIDTH 709 0
DWIDTH 16 0
BBX 12 16 2 0
BITMAP
E030
E030
F030
F830
F830
FC30
EE30
EE30
E730
E330
E3B0
E1F0
E1F0
E0F0
E070
E070
ENDCHAR
STARTCHAR O
ENCODING 79
SWIDTH 690 0
DWIDTH 15 0
BBX 13 16 1 0
BITMAP
0F80
3FE0
78F0
7070
E038
E038
E038
E038
E038
E038
E038
E038
7070
78F0
3FE0
0F80
ENDCHAR
STARTCHAR P
ENCODING 80
SWIDTH 639 0
DWIDTH 14 0
BBX 11 16 2 0
BITMAP
FF00
FFC0
C1E0
C0E0
C0E0
C0E0
C0E0
C1E0
FFC0
FF00
C000
C000
C000
C000
C000
C000
ENDCHAR
STARTCHAR Q
ENCODING 81
SWIDTH 690 0
DWIDTH 15 0
BBX 13 18 1 -2
BITMAP
0F80
3FE0
78F0
7070
E030
E038
E038
E038
E038
E038
E038
E030
7070
78F0
3FE0
0FE0
0070
0038
ENDCHAR
STARTCHAR R
ENCODING 82
SWIDTH 624 0
DWIDTH 14 0
BBX 12 16 2 0
BITMAP
FF00
FFC0
C1C0
C0E0
C0E0
C0E0
C0E0
C1C0
FF80
FF00
C380
C380
C1C0
C1C0
C0E0
C0F0
ENDCHAR
STARTCHAR S
ENCODING 83
SWIDTH 603 0
DWIDTH 13 0
BBX 11 16 1 0
BITMAP
1F00
7FC0
70E0
E0E0
E060
E000
7800
3F00
0F80
01E0
00E0
C060
E060
F0E0
7FC0
1F80
ENDCHAR
STARTCHAR T
ENCODING 84
SWIDTH 606 0
DWIDTH 13 0
BBX 13 16 0 0
BITMAP
FFF8
FFF8
0700
0700
0700
0700
0700
0700
0700
0700
0700
0700
0700
0700
0700
0700
ENDCHAR
STARTCHAR U
ENCODING 85
SWIDTH 651 0
DWIDTH 14 0
BBX 12 16 1 0
BITMAP
E070
E070
E070
E070
E070
E070
E070
E070
E070
E070
E070
E070
E070
70E0
3FC0
1F80
ENDCHAR
STARTCHAR V
ENCODING 86
SWIDTH 646 0
DWIDTH 14 0
BBX 14 16 0 0
BITMAP
E01C
7038
7038
7038
3030
3870
3870
1860
1CE0
1CE0
0CC0
0FC0
0FC0
0780
0780
0380
ENDCHAR
STARTCHAR W
ENCODING 87
SWIDTH 879 0
DWIDTH 19 0
BBX 19 16 0 0
BITMAP
E0E0E0
60E0C0
70E0C0
70F1C0
71F1C0
31B1C0
31B180
39B980
3B9B80
3B1B80
1B1B00
1B1F00
1E0F00
1E0F00
0E0E00
0E0E00
ENDCHAR
STARTCHAR X
ENCODING 88
SWIDTH 632 0
DWIDTH 14 0
BBX 14 16 0 0
BITMAP
7038
7870
3870
1CE0
1CE0
0FC0
0FC0
0780
0780
0FC0
0FC0
1CE0
1CE0
3870
7078
F03C
ENDCHAR
STARTCHAR Y
ENCODING 89
SWIDTH 609 0
DWIDTH 13 0
BBX 13 16 0 0
BITMAP
E038
7038
7070
3860
38E0
1CC0
1DC0
0F80
0F80
0700
0700
0700
0700
0700
0700
0700
ENDCHAR
STARTCHAR Z
ENCODING 90
SWIDTH 602 0
DWIDTH 13 0
BBX 12 16 1 0
BITMAP
FFE0
FFE0
00E0
01C0
0380
0380
0700
0E00
0E00
1C00
3800
3800
7000
E000
FFF0
FFF0
ENDCHAR
STARTCHAR bracketleft
ENCODING 91
SWIDTH 273 0
DWIDTH 6 0
BBX 5 21 1 -3
BITMAP
F8
F8
E0
E0
E0
E0
E0
E0
E0
E0
E0
E0
E0
E0
E0
E0
E0
E0
E0
F8
F8
ENDCHAR
STARTCHAR backslash
ENCODING 92
SWIDTH 417 0
DWIDTH 9 0
BBX 9 17 0 -1
BITMAP
E000
6000
7000
3000
3800
3800
1800
1C00
1C00
0C00
0E00
0600
0700
0700
0300
0380
0180
ENDCHAR
STARTCHAR bracketright
ENCODING 93
SWIDTH 273 0
DWIDTH 6 0
BBX 5 21 0 -3
BITMAP
F8
F8
38
38
38
38
38
38
38
38
38
38
38
38
38
38
38
38
38
F8
F8
ENDCHAR
STARTCHAR asciicircum
ENCODING 94
SWIDTH 427 0
DWIDTH 9 0
BBX 9 8 0 8
BITMAP
1C00
1C00
1C00
3600
3600
7700
6300
E380
ENDCHAR
STARTCHAR underscore
ENCODING 95
SWIDTH 451 0
DWIDTH 10 0
BBX 10 2 0 -2
BITMAP
FFC0
FFC0
ENDCHAR
STARTCHAR grave
ENCODING 96
SWIDTH 322 0
DWIDTH 7 0
BBX 5 3 1 13
BITMAP
E0
70
38
ENDCHAR
STARTCHAR a
ENCODING 97
SWIDTH 541 0
DWIDTH 12 0
BBX 10 12 1 0
BITMAP
1E00
7F80
6380
E1C0
01C0
3FC0
7FC0
E1C0
E1C0
E3C0
7FC0
3DC0
ENDCHAR
STARTCHAR b
ENCODING 98
SWIDTH 562 0
DWIDTH 12 0
BBX 10 17 1 0
BITMAP
E000
E000
E000
E000
E000
EF00
FF80
F1C0
E1C0
E0C0
E0C0
E0C0
E0C0
E1C0
F1C0
FF80
EF00
ENDCHAR
STARTCHAR c
ENCODING 99
SWIDTH 523 0
DWIDTH 12 0
BBX 10 12 1 0
BITMAP
1F00
3F80
71C0
E0C0
E000
E000
E000
E000
E0C0
71C0
3F80
1F00
ENDCHAR
STARTCHAR d
ENCODING 100
SWIDTH 564 0
DWIDTH 12 0
BBX 10 17 1 0
BITMAP
01C0
01C0
01C0
01C0
01C0
3DC0
7FC0
E3C0
E1C0
C1C0
C1C0
C1C0
C1C0
E1C0
E3C0
7FC0
3DC0
ENDCHAR
STARTCHAR e
ENCODING 101
SWIDTH 536 0
DWIDTH 12 0
BBX 10 12 1 0
BITMAP
1F00
3F80
71C0
E1C0
E0C0
FFC0
FFC0
E000
E080
70C0
3F80
1F00
ENDCHAR
STARTCHAR f
ENCODING 102
SWIDTH 354 0
DWIDTH 8 0
BBX 7 17 1 0
BITMAP
1E
3E
30
70
70
FC
FC
70
70
70
70
70
70
70
70
70
70
ENDCHAR
STARTCHAR g
ENCODING 103
SWIDTH 566 0
DWIDTH 12 0
BBX 10 16 1 -4
BITMAP
3CC0
7FC0
E1C0
E1C0
C1C0
C1C0
C1C0
C1C0
E1C0
E1C0
7FC0
3DC0
01C0
4380
FF80
3E00
ENDCHAR
STARTCHAR h
ENCODING 104
SWIDTH 555 0
DWIDTH 12 0
BBX 10 17 1 0
BITMAP
E000
E000
E000
E000
E000
EF00
FF80
F1C0
E1C0
E1C0
E1C0
E1C0
E1C0
E1C0
E1C0
E1C0
E1C0
ENDCHAR
STARTCHAR i
ENCODING 105
SWIDTH 255 0
DWIDTH 6 0
BBX 3 17 1 0
BITMAP
60
E0
60
00
00
60
60
60
60
60
60
60
60
60
60
60
60
ENDCHAR
STARTCHAR j
ENCODING 106
SWIDTH 250 0
DWIDTH 6 0
BBX 5 21 -1 -4
BITMAP
18
38
18
00
00
18
18
18
18
18
18
18
18
18
18
18
18
18
38
F8
F0
ENDCHAR
STARTCHAR k
ENCODING 107
SWIDTH 521 0
DWIDTH 11 0
BBX 11 17 1 0
BITMAP
E000
E000
E000
E000
E000
E1C0
E380
E700
EE00
FC00
FC00
FE00
F700
E700
E380
E1C0
E1E0
ENDCHAR
STARTCHAR l
ENCODING 108
SWIDTH 255 0
DWIDTH 6 0
BBX 3 17 1 0
BITMAP
E0
E0
E0
E0
E0
E0
E0
E0
E0
E0
E0
E0
E0
E0
E0
E0
E0
ENDCHAR
STARTCHAR m
ENCODING 109
SWIDTH 870 0
DWIDTH 19 0
BBX 17 12 1 0
BITMAP
EF1E00
FFBF00
F1E380
E1C380
E1C380
E1C380
E1C380
E1C380
E1C380
E1C380
E1C380
E1C380
ENDCHAR
STARTCHAR n
ENCODING 110
SWIDTH 556 0
DWIDTH 12 0
BBX 10 12 1 0
BITMAP
EF00
FF80
F1C0
E1C0
E1C0
E1C0
E1C0
E1C0
E1C0
E1C0
E1C0
E1C0
ENDCHAR
STARTCHAR o
ENCODING 111
SWIDTH 569 0
DWIDTH 13 0
BBX 11 12 1 0
BITMAP
1F00
3F80
71C0
E0E0
E0E0
E0E0
E0E0
E0E0
E0E0
71C0
3F80
1F00
ENDCHAR
STARTCHAR p
ENCODING 112
SWIDTH 562 0
DWIDTH 12 0
BBX 10 16 1 -4
BITMAP
EF00
FF80
E1C0
E1C0
E0C0
E0C0
E0C0
E0C0
E1C0
E1C0
FF80
EF00
E000
E000
E000
E000
ENDCHAR
STARTCHAR q
ENCODING 113
SWIDTH 567 0
DWIDTH 13 0
BBX 10 16 1 -4
BITMAP
1EC0
7FC0
71C0
E0C0
E0C0
E0C0
E0C0
E0C0
E0C0
71C0
7FC0
1EC0
00C0
00C0
00C0
00C0
ENDCHAR
STARTCHAR r
ENCODING 114
SWIDTH 351 0
DWIDTH 8 0
BBX 7 12 1 0
BITMAP
EE
FE
F0
E0
E0
E0
E0
E0
E0
E0
E0
E0
ENDCHAR
STARTCHAR s
ENCODING 115
SWIDTH 516 0
DWIDTH 11 0
BBX 9 12 1 0
BITMAP
3E00
7F00
E380
E180
E000
7E00
1F00
0380
C180
E380
7F80
3E00
ENDCHAR
STARTCHAR t
ENCODING 116
SWIDTH 332 0
DWIDTH 7 0
BBX 7 15 0 0
BITMAP
30
30
30
FC
FC
30
30
30
30
30
30
30
38
3E
1E
ENDCHAR
STARTCHAR u
ENCODING 117
SWIDTH 555 0
DWIDTH 12 0
BBX 10 12 1 0
BITMAP
E1C0
E1C0
E1C0
E1C0
E1C0
E1C0
E1C0
E1C0
E1C0
E3C0
7FC0
3DC0
ENDCHAR
STARTCHAR v
ENCODING 118
SWIDTH 494 0
DWIDTH 11 0
BBX 11 12 0 0
BITMAP
E0E0
60C0
71C0
7180
3180
3B80
3B00
1B00
1B00
0E00
0E00
0E00
ENDCHAR
STARTCHAR w
ENCODING 119
SWIDTH 743 0
DWIDTH 16 0
BBX 16 12 0 0
BITMAP
E187
6186
63C6
73CE
73CE
36EC
366C
366C
3E7C
1C38
1C38
1C38
ENDCHAR
STARTCHAR x
ENCODING 120
SWIDTH 502 0
DWIDTH 11 0
BBX 11 12 0 0
BITMAP
F1E0
71C0
3B80
1B80
1F00
0E00
0E00
1F00
3B80
3B80
71C0
F0E0
ENDCHAR
STARTCHAR y
ENCODING 121
SWIDTH 486 0
DWIDTH 11 0
BBX 11 16 0 -4
BITMAP
E0E0
71C0
71C0
3180
3980
3B80
1B00
1B00
1F00
0E00
0E00
0E00
0C00
1C00
7800
7000
ENDCHAR
STARTCHAR z
ENCODING 122
SWIDTH 502 0
DWIDTH 11 0
BBX 9 12 1 0
BITMAP
FF80
FF80
0700
0700
0E00
1C00
1C00
3800
7000
E000
FF80
FF80
ENDCHAR
STARTCHAR braceleft
ENCODING 123
SWIDTH 335 0
DWIDTH 7 0
BBX 7 21 0 -4
BITMAP
06
0E
1C
18
18
38
38
38
38
38
F0
F0
38
38
38
38
18
18
18
0E
06
ENDCHAR
STARTCHAR bar
ENCODING 124
SWIDTH 250 0
DWIDTH 6 0
BBX 2 19 2 -3
BITMAP
C0
C0
C0
C0
C0
C0
C0
C0
C0
C0
C0
C0
C0
C0
C0
C0
C0
C0
C0
ENDCHAR
STARTCHAR braceright
ENCODING 125
SWIDTH 335 0
DWIDTH 7 0
BBX 7 21 0 -4
BITMAP
C0
E0
70
30
30
30
30
30
38
38
1E
1E
38
38
30
30
30
30
70
E0
C0
ENDCHAR
STARTCHAR asciitilde
ENCODING 126
SWIDTH 664 0
DWIDTH 15 0
BBX 13 5 1 4
BITMAP
3C18
7E30
6730
63F0
E1E0
ENDCHAR
STARTCHAR uni00A0
ENCODING 160
SWIDTH 249 0
DWIDTH 5 0
BBX 1 1 0 0
BITMAP
00
ENDCHAR
STARTCHAR exclamdown
ENCODING 161
SWIDTH 264 0
DWIDTH 6 0
BBX 2 16 2 -4
BITMAP
C0
C0
C0
00
00
C0
C0
C0
C0
C0
C0
C0
C0
C0
C0
C0
ENDCHAR
STARTCHAR cent
ENCODING 162
SWIDTH 561 0
DWIDTH 12 0
BBX 10 17 1 -3
BITMAP
0C00
0C00
1F00
7F80
71C0
E1C0
E000
E000
E000
E000
E1C0
71C0
7F80
1F00
0C00
0C00
0C00
ENDCHAR
STARTCHAR sterling
ENCODING 163
SWIDTH 588 0
DWIDTH 13 0
BBX 11 16 1 0
BITMAP
0F80
1FC0
38E0
30E0
3000
3000
3000
FF00
FF00
3800
3800
3800
3000
7000
FFE0
FFE0
ENDCHAR
STARTCHAR currency
ENCODING 164
SWIDTH 701 0
DWIDTH 15 0
BBX 13 13 1 0
BITMAP
CF98
FFF8
7870
6030
E038
C018
C018
C018
E038
6030
7870
FFF8
4F90
ENDCHAR
STARTCHAR yen
ENCODING 165
SWIDTH 531 0
DWIDTH 12 0
BBX 12 16 0 0
BITMAP
E070
70E0
70E0
39C0
39C0
1D80
1F80
0F00
7FE0
7FE0
0600
7FE0
7FE0
0600
0600
0600
ENDCHAR
STARTCHAR brokenbar
ENCODING 166
SWIDTH 248 0
DWIDTH 5 0
BBX 3 19 1 -3
BITMAP
E0
E0
E0
E0
E0
E0
E0
E0
00
00
E0
E0
E0
E0
E0
E0
E0
E0
E0
ENDCHAR
STARTCHAR section
ENCODING 167
SWIDTH 621 0
DWIDTH 14 0
BBX 12 21 1 -5
BITMAP
1F80
3FC0
70E0
6060
6060
7000
7C00
3F80
67E0
E0E0
E070
F070
7C60
1FC0
03E0
00E0
E060
E060
70E0
7FC0
1F80
ENDCHAR
STARTCHAR dieresis
ENCODING 168
SWIDTH 439 0
DWIDTH 10 0
BBX 8 3 1 13
BITMAP
C6
E7
C6
ENDCHAR
STARTCHAR copyright
ENCODING 169
SWIDTH 783 0
DWIDTH 17 0
BBX 15 16 1 0
BITMAP
07C0
1830
2018
678C
4FC4
CC66
8862
8802
8802
8862
CC66
4FC4
678C
3018
1830
07C0
ENDCHAR
STARTCHAR ordfeminine
ENCODING 170
SWIDTH 445 0
DWIDTH 10 0
BBX 7 9 2 7
BITMAP
78
FC
CC
0C
7C
FC
8C
FC
76
ENDCHAR
STARTCHAR guillemotleft
ENCODING 171
SWIDTH 485 0
DWIDTH 11 0
BBX 9 9 1 1
BITMAP
1980
3300
6600
6E00
CC00
6E00
6600
3300
1980
ENDCHAR
STARTCHAR logicalnot
ENCODING 172
SWIDTH 553 0
DWIDTH 12 0
BBX 9 5 1 4
BITMAP
FF80
FF80
0180
0180
0180
ENDCHAR
STARTCHAR uni00AD
ENCODING 173
SWIDTH 328 0
DWIDTH 7 0
BBX 5 2 1 6
BITMAP
F8
F8
ENDCHAR
STARTCHAR registered
ENCODING 174
SWIDTH 783 0
DWIDTH 17 0
BBX 15 16 1 0
BITMAP
07C0
1830
2018
6FCC
4C64
CC66
8C62
8FC2
8C62
8C62
CC66
4C64
600C
3018
1830
07C0
ENDCHAR
STARTCHAR macron
ENCODING 175
SWIDTH 481 0
DWIDTH 11 0
BBX 7 2 2 14
BITMAP
FE
FE
ENDCHAR
STARTCHAR degree
ENCODING 176
SWIDTH 379 0
DWIDTH 8 0
BBX 6 6 1 10
BITMAP
78
78
CC
CC
78
78
ENDCHAR
STARTCHAR plusminus
ENCODING 177
SWIDTH 536 0
DWIDTH 12 0
BBX 10 14 1 0
BITMAP
0C00
0C00
0C00
0C00
FFC0
FFC0
0C00
0C00
0C00
0C00
0C00
0000
FF80
FF80
ENDCHAR
STARTCHAR uni00B2
ENCODING 178
SWIDTH 370 0
DWIDTH 8 0
BBX 6 9 1 7
BITMAP
78
FC
CC
0C
18
30
60
FC
FC
ENDCHAR
STARTCHAR uni00B3
ENCODING 179
SWIDTH 370 0
DWIDTH 8 0
BBX 6 9 1 7
BITMAP
78
FC
0C
3C
3C
0C
CC
FC
78
ENDCHAR
STARTCHAR acute
ENCODING 180
SWIDTH 325 0
DWIDTH 7 0
BBX 5 3 1 13
BITMAP
38
70
E0
ENDCHAR
STARTCHAR mu
ENCODING 181
SWIDTH 591 0
DWIDTH 13 0
BBX 9 16 2 -4
BITMAP
C180
C180
C180
C180
C180
C180
C180
C180
C180
E380
FF80
FD80
C000
C000
C000
C000
ENDCHAR
STARTCHAR paragraph
ENCODING 182
SWIDTH 490 0
DWIDTH 11 0
BBX 8 16 1 0
BITMAP
1F
7F
FF
FF
FF
FF
FF
FF
7F
3F
03
03
03
03
03
03
ENDCHAR
STARTCHAR periodcentered
ENCODING 183
SWIDTH 282 0
DWIDTH 6 0
BBX 3 3 1 6
BITMAP
60
E0
60
ENDCHAR
STARTCHAR cedilla
ENCODING 184
SWIDTH 257 0
DWIDTH 6 0
BBX 4 5 1 -5
BITMAP
60
F0
30
30
E0
ENDCHAR
STARTCHAR uni00B9
ENCODING 185
SWIDTH 370 0
DWIDTH 8 0
BBX 4 9 1 7
BITMAP
10
F0
F0
30
30
30
30
30
30
ENDCHAR
STARTCHAR ordmasculine
ENCODING 186
SWIDTH 456 0
DWIDTH 10 0
BBX 8 9 1 7
BITMAP
3C
7E
E6
C3
C3
C3
E6
7E
3C
ENDCHAR
STARTCHAR guillemotright
ENCODING 187
SWIDTH 485 0
DWIDTH 11 0
BBX 9 9 1 1
BITMAP
CC00
6600
7700
3300
1980
3300
7700
6600
CC00
ENDCHAR
STARTCHAR onequarter
ENCODING 188
SWIDTH 726 0
DWIDTH 16 0
BBX 14 16 1 0
BITMAP
3000
F000
F020
3070
3040
30C0
3180
3198
3338
0678
0658
0CD8
09FC
19FC
1018
0018
ENDCHAR
STARTCHAR onehalf
ENCODING 189
SWIDTH 770 0
DWIDTH 17 0
BBX 15 16 1 0
BITMAP
3000
F000
F060
3060
30C0
3080
3180
3378
327C
06CE
0C0C
0C0C
1838
1070
30FE
00FE
ENDCHAR
STARTCHAR threequarters
ENCODING 190
SWIDTH 792 0
DWIDTH 17 0
BBX 15 16 1 0
BITMAP
7C00
FC00
0618
3C18
3C30
0660
C660
FCCC
789C
019C
033C
036C
06FE
0C7E
040C
000C
ENDCHAR
STARTCHAR questiondown
ENCODING 191
SWIDTH 486 0
DWIDTH 11 0
BBX 9 16 1 -4
BITMAP
0C00
1C00
0C00
0000
0000
1C00
1C00
1800
3800
7000
E000
E000
E180
E380
7F00
3E00
ENDCHAR
STARTCHAR Agrave
ENCODING 192
SWIDTH 665 0
DWIDTH 15 0
BBX 14 20 0 0
BITMAP
0E00
0700
0380
0000
0380
0380
0780
07C0
0EC0
0EE0
0CE0
1C60
1C70
1870
3FF0
3FF8
7018
701C
601C
E01C
ENDCHAR
STARTCHAR Aacute
ENCODING 193
SWIDTH 665 0
DWIDTH 15 0
BBX 14 20 0 0
BITMAP
00E0
01C0
0380
0000
0380
0380
0780
07C0
0EC0
0EE0
0CE0
1C60
1C70
1870
3FF0
3FF8
7018
701C
601C
E01C
ENDCHAR
STARTCHAR Acircumflex
ENCODING 194
SWIDTH 665 0
DWIDTH 15 0
BBX 14 20 0 0
BITMAP
0380
07C0
0CE0
0000
0380
0380
0780
07C0
0EC0
0EE0
0CE0
1C60
1C70
1870
3FF0
3FF8
7018
701C
601C
E01C
ENDCHAR
STARTCHAR Atilde
ENCODING 195
SWIDTH 665 0
DWIDTH 15 0
BBX 14 20 0 0
BITMAP
0E20
0FE0
19C0
0000
0380
0380
0780
07C0
0EC0
0EE0
0CE0
1C60
1C70
1870
3FF0
3FF8
7018
701C
601C
E01C
ENDCHAR
STARTCHAR Adieresis
ENCODING 196
SWIDTH 665 0
DWIDTH 15 0
BBX 14 20 0 0
BITMAP
0C60
0CE0
0C60
0000
0380
0380
0780
07C0
0EC0
0EE0
0CE0
1C60
1C70
1870
3FF0
3FF8
7018
701C
601C
E01C
ENDCHAR
STARTCHAR Aring
ENCODING 197
SWIDTH 665 0
DWIDTH 15 0
BBX 14 21 0 0
BITMAP
0380
04C0
04C0
0380
0000
0380
0380
0780
07C0
0EC0
0EE0
0CE0
1C60
1C70
1870
3FF0
3FF8
7018
701C
601C
E01C
ENDCHAR
STARTCHAR AE
ENCODING 198
SWIDTH 939 0
DWIDTH 21 0
BBX 20 16 0 0
BITMAP
007FF0
00FFF0
01F800
01F800
03B800
03B800
073800
073FE0
0E3FE0
0C3800
1FF800
3FF800
383800
703800
703FF0
E01FF0
ENDCHAR
STARTCHAR Ccedilla
ENCODING 199
SWIDTH 652 0
DWIDTH 14 0
BBX 12 21 1 -5
BITMAP
0F80
3FE0
70F0
6070
E030
E000
E000
E000
E000
E000
E000
E030
6070
70F0
3FE0
0F80
0600
0780
0180
0180
0700
ENDCHAR
STARTCHAR Egrave
ENCODING 200
SWIDTH 565 0
DWIDTH 12 0
BBX 10 20 2 0
BITMAP
7000
3800
1C00
0000
FFC0
FFC0
C000
C000
C000
C000
C000
FF80
FF80
C000
C000
C000
C000
C000
FFC0
FFC0
ENDCHAR
STARTCHAR Eacute
ENCODING 201
SWIDTH 565 0
DWIDTH 12 0
BBX 10 20 2 0
BITMAP
0700
0E00
1C00
0000
FFC0
FFC0
C000
C000
C000
C000
C000
FF80
FF80
C000
C000
C000
C000
C000
FFC0
FFC0
ENDCHAR
STARTCHAR Ecircumflex
ENCODING 202
SWIDTH 565 0
DWIDTH 12 0
BBX 10 20 2 0
BITMAP
1C00
3E00
7300
0000
FFC0
FFC0
C000
C000
C000
C000
C000
FF80
FF80
C000
C000
C000
C000
C000
FFC0
FFC0
ENDCHAR
STARTCHAR Edieresis
ENCODING 203
SWIDTH 565 0
DWIDTH 12 0
BBX 10 20 2 0
BITMAP
6300
7380
6300
0000
FFC0
FFC0
C000
C000
C000
C000
C000
FF80
FF80
C000
C000
C000
C000
C000
FFC0
FFC0
ENDCHAR
STARTCHAR Igrave
ENCODING 204
SWIDTH 282 0
DWIDTH 6 0
BBX 5 20 -1 0
BITMAP
F0
38
18
00
18
18
18
18
18
18
18
18
18
18
18
18
18
18
18
18
ENDCHAR
STARTCHAR Iacute
ENCODING 205
SWIDTH 282 0
DWIDTH 6 0
BBX 5 20 2 0
BITMAP
78
60
C0
00
C0
C0
C0
C0
C0
C0
C0
C0
C0
C0
C0
C0
C0
C0
C0
C0
ENDCHAR
STARTCHAR Icircumflex
ENCODING 206
SWIDTH 282 0
DWIDTH 6 0
BBX 8 20 -1 0
BITMAP
18
3E
E7
00
18
18
18
18
18
18
18
18
18
18
18
18
18
18
18
18
ENDCHAR
STARTCHAR Idieresis
ENCODING 207
SWIDTH 282 0
DWIDTH 6 0
BBX 8 20 -1 0
BITMAP
63
E7
63
00
18
18
18
18
18
18
18
18
18
18
18
18
18
18
18
18
ENDCHAR
STARTCHAR Eth
ENCODING 208
SWIDTH 667 0
DWIDTH 15 0
BBX 14 16 0 0
BITMAP
3F80
3FE0
3870
3838
3838
381C
381C
FE1C
FE1C
381C
381C
3838
3838
3870
3FE0
3F80
ENDCHAR
STARTCHAR Ntilde
ENCODING 209
SWIDTH 709 0
DWIDTH 16 0
BBX 12 20 2 0
BITMAP
1CC0
3F80
3380
0000
E030
E030
F030
F830
F830
FC30
EE30
EE30
E730
E330
E3B0
E1F0
E1F0
E0F0
E070
E070
ENDCHAR
STARTCHAR Ograve
ENCODING 210
SWIDTH 690 0
DWIDTH 15 0
BBX 13 20 1 0
BITMAP
1C00
0E00
0700
0000
0F80
3FE0
78F0
7070
E038
E038
E038
E038
E038
E038
E038
E038
7070
78F0
3FE0
0F80
ENDCHAR
STARTCHAR Oacute
ENCODING 211
SWIDTH 690 0
DWIDTH 15 0
BBX 13 20 1 0
BITMAP
01C0
0380
0700
0000
0F80
3FE0
78F0
7070
E038
E038
E038
E038
E038
E038
E038
E038
7070
78F0
3FE0
0F80
ENDCHAR
STARTCHAR Ocircumflex
ENCODING 212
SWIDTH 690 0
DWIDTH 15 0
BBX 13 20 1 0
BITMAP
0700
0D80
18C0
0000
0F80
3FE0
78F0
7070
E038
E038
E038
E038
E038
E038
E038
E038
7070
78F0
3FE0
0F80
ENDCHAR
STARTCHAR Otilde
ENCODING 213
SWIDTH 690 0
DWIDTH 15 0
BBX 13 20 1 0
BITMAP
0E60
1FC0
11C0
0000
0F80
3FE0
78F0
7070
E038
E038
E038
E038
E038
E038
E038
E038
7070
78F0
3FE0
0F80
ENDCHAR
STARTCHAR Odieresis
ENCODING 214
SWIDTH 690 0
DWIDTH 15 0
BBX 13 20 1 0
BITMAP
18C0
1CC0
18C0
0000
0F80
3FE0
78F0
7070
E038
E038
E038
E038
E038
E038
E038
E038
7070
78F0
3FE0
0F80
ENDCHAR
STARTCHAR multiply
ENCODING 215
SWIDTH 533 0
DWIDTH 12 0
BBX 10 10 1 2
BITMAP
4080
E1C0
7380
3F00
1E00
1E00
3F00
7380
E1C0
4080
ENDCHAR
STARTCHAR Oslash
ENCODING 216
SWIDTH 689 0
DWIDTH 15 0
BBX 13 17 1 -1
BITMAP
0F98
3FF0
78F0
7070
60F8
E1B8
E1B8
E338
E238
E638
EC38
EC38
7870
78F0
3FE0
6F80
6000
ENDCHAR
STARTCHAR Ugrave
ENCODING 217
SWIDTH 651 0
DWIDTH 14 0
BBX 12 20 1 0
BITMAP
3C00
0E00
0700
0000
E070
E070
E070
E070
E070
E070
E070
E070
E070
E070
E070
E070
E070
70E0
3FC0
1F80
ENDCHAR
STARTCHAR Uacute
ENCODING 218
SWIDTH 651 0
DWIDTH 14 0
BBX 12 20 1 0
BITMAP
01C0
0300
0600
0000
E070
E070
E070
E070
E070
E070
E070
E070
E070
E070
E070
E070
E070
70E0
3FC0
1F80
ENDCHAR
STARTCHAR Ucircumflex
ENCODING 219
SWIDTH 651 0
DWIDTH 14 0
BBX 12 20 1 0
BITMAP
0700
0F80
39C0
0000
E070
E070
E070
E070
E070
E070
E070
E070
E070
E070
E070
E070
E070
70E0
3FC0
1F80
ENDCHAR
STARTCHAR Udieresis
ENCODING 220
SWIDTH 651 0
DWIDTH 14 0
BBX 12 20 1 0
BITMAP
18C0
39C0
18C0
0000
E070
E070
E070
E070
E070
E070
E070
E070
E070
E070
E070
E070
E070
70E0
3FC0
1F80
ENDCHAR
STARTCHAR Yacute
ENCODING 221
SWIDTH 609 0
DWIDTH 13 0
BBX 13 20 0 0
BITMAP
01C0
0380
0700
0000
E038
7038
7070
3860
38E0
1CC0
1DC0
0F80
0F80
0700
0700
0700
0700
0700
0700
0700
ENDCHAR
STARTCHAR Thorn
ENCODING 222
SWIDTH 598 0
DWIDTH 13 0
BBX 11 16 1 0
BITMAP
E000
E000
E000
FF00
FFC0
E0E0
E0E0
E060
E060
E0E0
E0E0
FFC0
FF00
E000
E000
E000
ENDCHAR
STARTCHAR germandbls
ENCODING 223
SWIDTH 612 0
DWIDTH 13 0
BBX 11 17 1 0
BITMAP
1E00
7F80
7380
E180
E180
E380
E300
E700
E700
E380
E1C0
E0E0
E060
E060
E8E0
EFE0
EF80
ENDCHAR
STARTCHAR agrave
ENCODING 224
SWIDTH 541 0
DWIDTH 12 0
BBX 10 16 1 0
BITMAP
7800
1C00
0C00
0000
1E00
7F80
6380
E1C0
01C0
3FC0
7FC0
E1C0
E1C0
E3C0
7FC0
3DC0
ENDCHAR
STARTCHAR aacute
ENCODING 225
SWIDTH 541 0
DWIDTH 12 0
BBX 10 16 1 0
BITMAP
0780
0600
0C00
0000
1E00
7F80
6380
E1C0
01C0
3FC0
7FC0
E1C0
E1C0
E3C0
7FC0
3DC0
ENDCHAR
STARTCHAR acircumflex
ENCODING 226
SWIDTH 541 0
DWIDTH 12 0
BBX 10 16 1 0
BITMAP
0C00
1F00
7380
0000
1E00
7F80
6380
E1C0
01C0
3FC0
7FC0
E1C0
E1C0
E3C0
7FC0
3DC0
ENDCHAR
STARTCHAR atilde
ENCODING 227
SWIDTH 541 0
DWIDTH 12 0
BBX 10 17 1 0
BITMAP
3980
7F80
6700
0000
0000
1E00
7F80
6380
E1C0
01C0
3FC0
7FC0
E1C0
E1C0
E3C0
7FC0
3DC0
ENDCHAR
STARTCHAR adieresis
ENCODING 228
SWIDTH 541 0
DWIDTH 12 0
BBX 10 16 1 0
BITMAP
3180
7380
3180
0000
1E00
7F80
6380
E1C0
01C0
3FC0
7FC0
E1C0
E1C0
E3C0
7FC0
3DC0
ENDCHAR
STARTCHAR aring
ENCODING 229
SWIDTH 541 0
DWIDTH 12 0
BBX 10 18 1 0
BITMAP
0E00
1200
1200
1E00
0000
0000
1E00
7F80
6380
E1C0
01C0
3FC0
7FC0
E1C0
E1C0
E3C0
7FC0
3DC0
ENDCHAR
STARTCHAR ae
ENCODING 230
SWIDTH 844 0
DWIDTH 19 0
BBX 17 12 1 0
BITMAP
3F3E00
7FFF00
F1E380
61C380
01C180
3FFF80
7FFF80
E1C000
E1C000
E3E100
7F7F80
3E3F00
ENDCHAR
STARTCHAR ccedilla
ENCODING 231
SWIDTH 523 0
DWIDTH 12 0
BBX 10 17 1 -5
BITMAP
1F00
3F80
71C0
E0C0
E000
E000
E000
E000
E0C0
71C0
3F80
1F00
0C00
0E00
0600
0600
0C00
ENDCHAR
STARTCHAR egrave
ENCODING 232
SWIDTH 536 0
DWIDTH 12 0
BBX 10 16 1 0
BITMAP
7800
1800
0C00
0000
1F00
3F80
71C0
E1C0
E0C0
FFC0
FFC0
E000
E080
70C0
3F80
1F00
ENDCHAR
STARTCHAR eacute
ENCODING 233
SWIDTH 536 0
DWIDTH 12 0
BBX 10 16 1 0
BITMAP
0780
0E00
0C00
0000
1F00
3F80
71C0
E1C0
E0C0
FFC0
FFC0
E000
E080
70C0
3F80
1F00
ENDCHAR
STARTCHAR ecircumflex
ENCODING 234
SWIDTH 536 0
DWIDTH 12 0
BBX 10 16 1 0
BITMAP
0C00
3F00
7380
0000
1F00
3F80
71C0
E1C0
E0C0
FFC0
FFC0
E000
E080
70C0
3F80
1F00
ENDCHAR
STARTCHAR edieresis
ENCODING 235
SWIDTH 536 0
DWIDTH 12 0
BBX 10 16 1 0
BITMAP
7300
7380
7300
0000
1F00
3F80
71C0
E1C0
E0C0
FFC0
FFC0
E000
E080
70C0
3F80
1F00
ENDCHAR
STARTCHAR igrave
ENCODING 236
SWIDTH 262 0
DWIDTH 6 0
BBX 5 16 -1 0
BITMAP
F0
30
18
00
18
18
18
18
18
18
18
18
18
18
18
18
ENDCHAR
STARTCHAR iacute
ENCODING 237
SWIDTH 262 0
DWIDTH 6 0
BBX 5 16 2 0
BITMAP
78
E0
C0
00
C0
C0
C0
C0
C0
C0
C0
C0
C0
C0
C0
C0
ENDCHAR
STARTCHAR icircumflex
ENCODING 238
SWIDTH 262 0
DWIDTH 6 0
BBX 8 16 -1 0
BITMAP
18
7C
E7
00
18
18
18
18
18
18
18
18
18
18
18
18
ENDCHAR
STARTCHAR idieresis
ENCODING 239
SWIDTH 262 0
DWIDTH 6 0
BBX 8 16 -1 0
BITMAP
E6
E7
E6
00
18
18
18
18
18
18
18
18
18
18
18
18
ENDCHAR
STARTCHAR eth
ENCODING 240
SWIDTH 581 0
DWIDTH 13 0
BBX 11 17 1 0
BITMAP
3000
3C80
1FC0
0F80
1B80
01C0
1EC0
3FE0
71E0
E0E0
E0E0
E0E0
E0E0
60C0
71C0
3F80
1F00
ENDCHAR
STARTCHAR ntilde
ENCODING 241
SWIDTH 556 0
DWIDTH 12 0
BBX 10 17 1 0
BITMAP
3980
7F80
6700
0000
0000
EF00
FF80
F1C0
E1C0
E1C0
E1C0
E1C0
E1C0
E1C0
E1C0
E1C0
E1C0
ENDCHAR
STARTCHAR ograve
ENCODING 242
SWIDTH 569 0
DWIDTH 13 0
BBX 11 16 1 0
BITMAP
7800
1C00
0E00
0000
1F00
3F80
71C0
E0E0
E0E0
E0E0
E0E0
E0E0
E0E0
71C0
3F80
1F00
ENDCHAR
STARTCHAR oacute
ENCODING 243
SWIDTH 569 0
DWIDTH 13 0
BBX 11 16 1 0
BITMAP
0380
0600
0C00
0000
1F00
3F80
71C0
E0E0
E0E0
E0E0
E0E0
E0E0
E0E0
71C0
3F80
1F00
ENDCHAR
STARTCHAR ocircumflex
ENCODING 244
SWIDTH 569 0
DWIDTH 13 0
BBX 11 16 1 0
BITMAP
0E00
1F00
3380
0000
1F00
3F80
71C0
E0E0
E0E0
E0E0
E0E0
E0E0
E0E0
71C0
3F80
1F00
ENDCHAR
STARTCHAR otilde
ENCODING 245
SWIDTH 569 0
DWIDTH 13 0
BBX 11 17 1 0
BITMAP
3980
3F80
6700
0000
0000
1F00
3F80
71C0
E0E0
E0E0
E0E0
E0E0
E0E0
E0E0
71C0
3F80
1F00
ENDCHAR
STARTCHAR odieresis
ENCODING 246
SWIDTH 569 0
DWIDTH 13 0
BBX 11 16 1 0
BITMAP
3180
7380
3180
0000
1F00
3F80
71C0
E0E0
E0E0
E0E0
E0E0
E0E0
E0E0
71C0
3F80
1F00
ENDCHAR
STARTCHAR divide
ENCODING 247
SWIDTH 570 0
DWIDTH 13 0
BBX 11 12 1 2
BITMAP
0E00
0E00
0E00
0000
0000
FFE0
FFE0
0000
0000
0E00
0E00
0E00
ENDCHAR
STARTCHAR oslash
ENCODING 248
SWIDTH 566 0
DWIDTH 12 0
BBX 10 14 1 -1
BITMAP
0080
1F80
7F80
E3C0
E3C0
C6C0
C4C0
CCC0
C8C0
F9C0
F1C0
7F80
3E00
6000
ENDCHAR
STARTCHAR ugrave
ENCODING 249
SWIDTH 555 0
DWIDTH 12 0
BBX 10 16 1 0
BITMAP
7800
1C00
0C00
0000
E1C0
E1C0
E1C0
E1C0
E1C0
E1C0
E1C0
E1C0
E1C0
E3C0
7FC0
3DC0
ENDCHAR
STARTCHAR uacute
ENCODING 250
SWIDTH 555 0
DWIDTH 12 0
BBX 10 16 1 0
BITMAP
0780
0600
0C00
0000
E1C0
E1C0
E1C0
E1C0
E1C0
E1C0
E1C0
E1C0
E1C0
E3C0
7FC0
3DC0
ENDCHAR
STARTCHAR ucircumflex
ENCODING 251
SWIDTH 555 0
DWIDTH 12 0
BBX 10 16 1 0
BITMAP
0C00
1F00
7380
0000
E1C0
E1C0
E1C0
E1C0
E1C0
E1C0
E1C0
E1C0
E1C0
E3C0
7FC0
3DC0
ENDCHAR
STARTCHAR udieresis
ENCODING 252
SWIDTH 555 0
DWIDTH 12 0
BBX 10 16 1 0
BITMAP
3180
7380
3180
0000
E1C0
E1C0
E1C0
E1C0
E1C0
E1C0
E1C0
E1C0
E1C0
E3C0
7FC0
3DC0
ENDCHAR
STARTCHAR yacute
ENCODING 253
SWIDTH 486 0
DWIDTH 11 0
BBX 11 20 0 -4
BITMAP
0380
0700
0E00
0000
E0E0
71C0
71C0
3180
3980
3B80
1B00
1B00
1F00
0E00
0E00
0E00
0C00
1C00
7800
7000
ENDCHAR
STARTCHAR thorn
ENCODING 254
SWIDTH 573 0
DWIDTH 13 0
BBX 10 21 2 -4
BITMAP
C000
C000
C000
C000
C000
DE00
FF80
E380
C1C0
C1C0
C1C0
C1C0
C1C0
C180
E380
FF00
DE00
C000
C000
C000
C000
ENDCHAR
STARTCHAR ydieresis
ENCODING 255
SWIDTH 486 0
DWIDTH 11 0
BBX 11 20 0 -4
BITMAP
3180
3180
3180
0000
E0E0
71C0
71C0
3180
3980
3B80
1B00
1B00
1F00
0E00
0E00
0E00
0C00
1C00
7800
7000
ENDCHAR
STARTCHAR Amacron
ENCODING 256
SWIDTH 665 0
DWIDTH 15 0
BBX 14 19 0 0
BITMAP
0FE0
0FE0
0000
0380
0380
0780
07C0
0EC0
0EE0
0CE0
1C60
1C70
1870
3FF0
3FF8
7018
701C
601C
E01C
ENDCHAR
STARTCHAR amacron
ENCODING 257
SWIDTH 541 0
DWIDTH 12 0
BBX 10 16 1 0
BITMAP
3F80
3F80
0000
0000
1E00
7F80
6380
E1C0
01C0
3FC0
7FC0
E1C0
E1C0
E3C0
7FC0
3DC0
ENDCHAR
STARTCHAR Abreve
ENCODING 258
SWIDTH 665 0
DWIDTH 15 0
BBX 14 20 0 0
BITMAP
0C60
0FC0
0780
0000
0380
0380
0780
07C0
0EC0
0EE0
0CE0
1C60
1C70
1870
3FF0
3FF8
7018
701C
601C
E01C
ENDCHAR
STARTCHAR abreve
ENCODING 259
SWIDTH 541 0
DWIDTH 12 0
BBX 10 16 1 0
BITMAP
3380
3F00
1E00
0000
1E00
7F80
6380
E1C0
01C0
3FC0
7FC0
E1C0
E1C0
E3C0
7FC0
3DC0
ENDCHAR
STARTCHAR Aogonek
ENCODING 260
SWIDTH 665 0
DWIDTH 15 0
BBX 15 20 0 -4
BITMAP
0380
0380
07C0
06C0
06C0
0EE0
0C60
0C60
1C70
1830
3FF8
3FF8
3018
701C
701C
600C
801A
0030
003C
001C
ENDCHAR
STARTCHAR aogonek
ENCODING 261
SWIDTH 541 0
DWIDTH 12 0
BBX 10 16 1 -4
BITMAP
1E00
7F80
6380
E1C0
01C0
3FC0
7FC0
E1C0
E1C0
E3C0
7FC0
3DC0
0180
0300
03C0
03C0
ENDCHAR
STARTCHAR Cacute
ENCODING 262
SWIDTH 652 0
DWIDTH 14 0
BBX 12 20 1 0
BITMAP
01C0
0380
0700
0000
0F80
3FE0
70F0
6070
E030
E000
E000
E000
E000
E000
E000
E030
6070
70F0
3FE0
0F80
ENDCHAR
STARTCHAR cacute
ENCODING 263
SWIDTH 523 0
DWIDTH 12 0
BBX 10 16 1 0
BITMAP
0700
0E00
1C00
0000
1F00
3F80
71C0
E0C0
E000
E000
E000
E000
E0C0
71C0
3F80
1F00
ENDCHAR
STARTCHAR Ccircumflex
ENCODING 264
SWIDTH 652 0
DWIDTH 14 0
BBX 12 20 1 0
BITMAP
0700
0F80
19C0
0000
0F80
3FE0
70F0
6070
E030
E000
E000
E000
E000
E000
E000
E030
6070
70F0
3FE0
0F80
ENDCHAR
STARTCHAR ccircumflex
ENCODING 265
SWIDTH 523 0
DWIDTH 12 0
BBX 10 16 1 0
BITMAP
1C00
3E00
7300
0000
1F00
3F80
71C0
E0C0
E000
E000
E000
E000
E0C0
71C0
3F80
1F00
ENDCHAR
STARTCHAR Cdotaccent
ENCODING 266
SWIDTH 652 0
DWIDTH 14 0
BBX 12 20 1 0
BITMAP
0700
0700
0700
0000
0F80
3FE0
70F0
6070
E030
E000
E000
E000
E000
E000
E000
E030
6070
70F0
3FE0
0F80
ENDCHAR
STARTCHAR cdotaccent
ENCODING 267
SWIDTH 523 0
DWIDTH 12 0
BBX 10 16 1 0
BITMAP
0C00
0C00
0C00
0000
1F00
3F80
71C0
E0C0
E000
E000
E000
E000
E0C0
71C0
3F80
1F00
ENDCHAR
STARTCHAR Ccaron
ENCODING 268
SWIDTH 652 0
DWIDTH 14 0
BBX 12 20 1 0
BITMAP
19C0
0F80
0700
0000
0F80
3FE0
70F0
6070
E030
E000
E000
E000
E000
E000
E000
E030
6070
70F0
3FE0
0F80
ENDCHAR
STARTCHAR ccaron
ENCODING 269
SWIDTH 523 0
DWIDTH 12 0
BBX 10 16 1 0
BITMAP
7380
3E00
1C00
0000
1F00
3F80
71C0
E0C0
E000
E000
E000
E000
E0C0
71C0
3F80
1F00
ENDCHAR
STARTCHAR Dcaron
ENCODING 270
SWIDTH 653 0
DWIDTH 14 0
BBX 12 20 1 0
BITMAP
7380
1E00
0C00
0000
FF00
FFC0
E1E0
E0E0
E070
E070
E070
E070
E070
E070
E070
E070
E0E0
E1E0
FFC0
FF00
ENDCHAR
STARTCHAR dcaron
ENCODING 271
SWIDTH 637 0
DWIDTH 14 0
BBX 14 17 1 0
BITMAP
01CC
01CC
01D8
01D8
01C0
3DC0
7FC0
E3C0
E1C0
C1C0
C1C0
C1C0
C1C0
E1C0
E3C0
7FC0
3DC0
ENDCHAR
STARTCHAR Dcroat
ENCODING 272
SWIDTH 667 0
DWIDTH 15 0
BBX 14 16 0 0
BITMAP
3F80
3FE0
3870
3838
3838
381C
381C
FE1C
FE1C
381C
381C
3838
3838
3870
3FE0
3F80
ENDCHAR
STARTCHAR dcroat
ENCODING 273
SWIDTH 615 0
DWIDTH 14 0
BBX 12 17 1 0
BITMAP
00C0
00C0
07F0
07F0
00C0
1EC0
7FC0
71C0
E0C0
E0C0
E0C0
E0C0
E0C0
E0C0
71C0
7FC0
1EC0
ENDCHAR
STARTCHAR Emacron
ENCODING 274
SWIDTH 565 0
DWIDTH 12 0
BBX 10 19 2 0
BITMAP
7F80
7F80
0000
FFC0
FFC0
C000
C000
C000
C000
C000
FF80
FF80
C000
C000
C000
C000
C000
FFC0
FFC0
ENDCHAR
STARTCHAR emacron
ENCODING 275
SWIDTH 536 0
DWIDTH 12 0
BBX 10 16 1 0
BITMAP
7F80
7F80
0000
0000
1F00
3F80
71C0
E1C0
E0C0
FFC0
FFC0
E000
E080
70C0
3F80
1F00
ENDCHAR
STARTCHAR Ebreve
ENCODING 276
SWIDTH 565 0
DWIDTH 12 0
BBX 10 20 2 0
BITMAP
6300
3F00
1E00
0000
FFC0
FFC0
C000
C000
C000
C000
C000
FF80
FF80
C000
C000
C000
C000
C000
FFC0
FFC0
ENDCHAR
STARTCHAR ebreve
ENCODING 277
SWIDTH 536 0
DWIDTH 12 0
BBX 10 16 1 0
BITMAP
7300
3F00
1E00
0000
1F00
3F80
71C0
E1C0
E0C0
FFC0
FFC0
E000
E080
70C0
3F80
1F00
ENDCHAR
STARTCHAR Edotaccent
ENCODING 278
SWIDTH 565 0
DWIDTH 12 0
BBX 10 20 2 0
BITMAP
0C00
0C00
0C00
0000
FFC0
FFC0
C000
C000
C000
C000
C000
FF80
FF80
C000
C000
C000
C000
C000
FFC0
FFC0
ENDCHAR
STARTCHAR edotaccent
ENCODING 279
SWIDTH 536 0
DWIDTH 12 0
BBX 10 16 1 0
BITMAP
0C00
0E00
0C00
0000
1F00
3F80
71C0
E1C0
E0C0
FFC0
FFC0
E000
E080
70C0
3F80
1F00
ENDCHAR
STARTCHAR Eogonek
ENCODING 280
SWIDTH 565 0
DWIDTH 12 0
BBX 11 20 1 -4
BITMAP
FFC0
FFC0
E000
E000
E000
E000
E000
FF80
FF80
E000
E000
E000
E000
E000
FFE0
FFE0
0300
0300
0380
03C0
ENDCHAR
STARTCHAR eogonek
ENCODING 281
SWIDTH 536 0
DWIDTH 12 0
BBX 10 16 1 -4
BITMAP
1F00
3F80
71C0
E1C0
E0C0
FFC0
FFC0
E000
E080
70C0
3F80
1F00
0600
0C00
0F00
0700
ENDCHAR
STARTCHAR Ecaron
ENCODING 282
SWIDTH 565 0
DWIDTH 12 0
BBX 10 20 2 0
BITMAP
7380
3E00
1C00
0000
FFC0
FFC0
C000
C000
C000
C000
C000
FF80
FF80
C000
C000
C000
C000
C000
FFC0
FFC0
ENDCHAR
STARTCHAR ecaron
ENCODING 283
SWIDTH 536 0
DWIDTH 12 0
BBX 10 16 1 0
BITMAP
7380
1E00
0C00
0000
1F00
3F80
71C0
E1C0
E0C0
FFC0
FFC0
E000
E080
70C0
3F80
1F00
ENDCHAR
STARTCHAR Gcircumflex
ENCODING 284
SWIDTH 680 0
DWIDTH 15 0
BBX 13 20 1 0
BITMAP
0700
0F80
19C0
0000
0FC0
3FE0
7870
7070
6038
E000
E000
E000
E1F8
E1F8
E038
6038
7038
3878
3FF0
0FC0
ENDCHAR
STARTCHAR gcircumflex
ENCODING 285
SWIDTH 566 0
DWIDTH 12 0
BBX 10 20 1 -4
BITMAP
0C00
3F00
7380
0000
3CC0
7FC0
E1C0
E1C0
C1C0
C1C0
C1C0
C1C0
E1C0
E1C0
7FC0
3DC0
01C0
4380
FF80
3E00
ENDCHAR
STARTCHAR Gbreve
ENCODING 286
SWIDTH 680 0
DWIDTH 15 0
BBX 13 20 1 0
BITMAP
18C0
1F80
0F00
0000
0FC0
3FE0
7870
7070
6038
E000
E000
E000
E1F8
E1F8
E038
6038
7038
3878
3FF0
0FC0
ENDCHAR
STARTCHAR gbreve
ENCODING 287
SWIDTH 566 0
DWIDTH 12 0
BBX 10 20 1 -4
BITMAP
7300
3F00
1E00
0000
3CC0
7FC0
E1C0
E1C0
C1C0
C1C0
C1C0
C1C0
E1C0
E1C0
7FC0
3DC0
01C0
4380
FF80
3E00
ENDCHAR
STARTCHAR Gdotaccent
ENCODING 288
SWIDTH 680 0
DWIDTH 15 0
BBX 13 20 1 0
BITMAP
0700
0700
0700
0000
0FC0
3FE0
7870
7070
6038
E000
E000
E000
E1F8
E1F8
E038
6038
7038
3878
3FF0
0FC0
ENDCHAR
STARTCHAR gdotaccent
ENCODING 289
SWIDTH 566 0
DWIDTH 12 0
BBX 10 20 1 -4
BITMAP
0C00
0E00
0C00
0000
3CC0
7FC0
E1C0
E1C0
C1C0
C1C0
C1C0
C1C0
E1C0
E1C0
7FC0
3DC0
01C0
4380
FF80
3E00
ENDCHAR
STARTCHAR uni0122
ENCODING 290
SWIDTH 680 0
DWIDTH 15 0
BBX 13 21 1 -5
BITMAP
0FC0
3FE0
7870
7070
6038
E000
E000
E000
E1F8
E1F8
E038
6038
7038
3878
3FF0
0FC0
0000
0300
0300
0600
0600
ENDCHAR
STARTCHAR uni0123
ENCODING 291
SWIDTH 566 0
DWIDTH 12 0
BBX 10 22 1 -4
BITMAP
0400
0E00
0C00
0C00
0C00
0000
3CC0
7FC0
E1C0
E1C0
C1C0
C1C0
C1C0
C1C0
E1C0
E1C0
7FC0
3DC0
01C0
4380
FF80
3E00
ENDCHAR
STARTCHAR Hcircumflex
ENCODING 292
SWIDTH 710 0
DWIDTH 16 0
BBX 12 20 2 0
BITMAP
0E00
1F00
3980
0000
C070
C070
C070
C070
C070
C070
C070
FFF0
FFF0
C070
C070
C070
C070
C070
C070
C070
ENDCHAR
STARTCHAR hcircumflex
ENCODING 293
SWIDTH 555 0
DWIDTH 12 0
BBX 10 21 1 0
BITMAP
1C00
3600
6300
0000
E000
E000
E000
E000
E000
EF00
FF80
F1C0
E1C0
E1C0
E1C0
E1C0
E1C0
E1C0
E1C0
E1C0
E1C0
ENDCHAR
STARTCHAR Hbar
ENCODING 294
SWIDTH 710 0
DWIDTH 16 0
BBX 15 16 0 0
BITMAP
301C
301C
301C
FFFE
FFFE
301C
301C
3FFC
3FFC
301C
301C
301C
301C
301C
301C
301C
ENDCHAR
STARTCHAR hbar
ENCODING 295
SWIDTH 569 0
DWIDTH 13 0
BBX 11 17 0 0
BITMAP
3000
3000
FE00
FE00
3000
33C0
3FE0
38E0
3060
3060
3060
3060
3060
3060
3060
3060
3060
ENDCHAR
STARTCHAR Itilde
ENCODING 296
SWIDTH 282 0
DWIDTH 6 0
BBX 8 20 -1 0
BITMAP
73
FF
CE
00
18
18
18
18
18
18
18
18
18
18
18
18
18
18
18
18
ENDCHAR
STARTCHAR itilde
ENCODING 297
SWIDTH 262 0
DWIDTH 6 0
BBX 8 17 -1 0
BITMAP
73
FF
CE
00
00
18
18
18
18
18
18
18
18
18
18
18
18
ENDCHAR
STARTCHAR Imacron
ENCODING 298
SWIDTH 282 0
DWIDTH 6 0
BBX 7 19 0 0
BITMAP
FE
FE
00
30
30
30
30
30
30
30
30
30
30
30
30
30
30
30
30
ENDCHAR
STARTCHAR imacron
ENCODING 299
SWIDTH 262 0
DWIDTH 6 0
BBX 8 16 -1 0
BITMAP
FF
FF
00
00
18
18
18
18
18
18
18
18
18
18
18
18
ENDCHAR
STARTCHAR Ibreve
ENCODING 300
SWIDTH 282 0
DWIDTH 6 0
BBX 7 20 0 0
BITMAP
CE
FC
78
00
30
30
30
30
30
30
30
30
30
30
30
30
30
30
30
30
ENDCHAR
STARTCHAR ibreve
ENCODING 301
SWIDTH 262 0
DWIDTH 6 0
BBX 7 16 -1 0
BITMAP
E6
7E
3C
00
18
18
18
18
18
18
18
18
18
18
18
18
ENDCHAR
STARTCHAR Iogonek
ENCODING 302
SWIDTH 282 0
DWIDTH 6 0
BBX 4 20 0 -4
BITMAP
30
30
30
30
30
30
30
30
30
30
30
30
30
30
30
70
C0
C0
F0
70
ENDCHAR
STARTCHAR iogonek
ENCODING 303
SWIDTH 255 0
DWIDTH 6 0
BBX 4 21 0 -4
BITMAP
30
70
30
00
00
30
30
30
30
30
30
30
30
30
30
30
70
C0
C0
F0
70
ENDCHAR
STARTCHAR Idotaccent
ENCODING 304
SWIDTH 282 0
DWIDTH 6 0
BBX 3 20 2 0
BITMAP
C0
E0
C0
00
C0
C0
C0
C0
C0
C0
C0
C0
C0
C0
C0
C0
C0
C0
C0
C0
ENDCHAR
STARTCHAR dotlessi
ENCODING 305
SWIDTH 262 0
DWIDTH 6 0
BBX 2 12 2 0
BITMAP
C0
C0
C0
C0
C0
C0
C0
C0
C0
C0
C0
C0
ENDCHAR
STARTCHAR IJ
ENCODING 306
SWIDTH 837 0
DWIDTH 18 0
BBX 15 16 2 0
BITMAP
C00E
C00E
C00E
C00E
C00E
C00E
C00E
C00E
C00E
C00E
C00E
C60E
C60E
C71C
C3FC
C1F0
ENDCHAR
STARTCHAR ij
ENCODING 307
SWIDTH 505 0
DWIDTH 11 0
BBX 9 21 1 -4
BITMAP
6380
E380
6380
0000
0000
6380
6380
6380
6380
6380
6380
6380
6380
6380
6380
6380
6380
0380
0380
0F00
0E00
ENDCHAR
STARTCHAR Jcircumflex
ENCODING 308
SWIDTH 555 0
DWIDTH 12 0
BBX 13 20 0 0
BITMAP
00E0
01F0
0738
0000
00E0
00E0
00E0
00E0
00E0
00E0
00E0
00E0
00E0
00E0
00E0
E0E0
E0C0
71C0
7F80
1F00
ENDCHAR
STARTCHAR jcircumflex
ENCODING 309
SWIDTH 268 0
DWIDTH 6 0
BBX 8 20 -1 -4
BITMAP
18
7E
E7
00
18
18
18
18
18
18
18
18
18
18
18
18
18
38
F8
F0
ENDCHAR
STARTCHAR uni0136
ENCODING 310
SWIDTH 630 0
DWIDTH 14 0
BBX 12 20 2 -4
BITMAP
C0F0
C1C0
C3C0
C380
C700
CE00
DC00
FC00
FE00
FF00
E700
C380
C3C0
C1C0
C0E0
C0F0
0C00
0C00
0C00
1800
ENDCHAR
STARTCHAR uni0137
ENCODING 311
SWIDTH 521 0
DWIDTH 11 0
BBX 11 21 1 -4
BITMAP
E000
E000
E000
E000
E000
E1C0
E380
E700
EE00
FC00
FC00
FE00
F700
E700
E380
E1C0
E1C0
0C20
0C00
1C00
1800
ENDCHAR
STARTCHAR kgreenlandic
ENCODING 312
SWIDTH 574 0
DWIDTH 13 0
BBX 10 12 2 0
BITMAP
C3C0
C380
C700
CE00
DC00
FC00
FC00
CE00
CE00
C700
C380
C3C0
ENDCHAR
STARTCHAR Lacute
ENCODING 313
SWIDTH 541 0
DWIDTH 12 0
BBX 9 20 2 0
BITMAP
7800
E000
C000
0000
C000
C000
C000
C000
C000
C000
C000
C000
C000
C000
C000
C000
C000
C000
FF80
FF80
ENDCHAR
STARTCHAR lacute
ENCODING 314
SWIDTH 255 0
DWIDTH 6 0
BBX 6 21 1 0
BITMAP
3C
70
E0
00
E0
E0
E0
E0
E0
E0
E0
E0
E0
E0
E0
E0
E0
E0
E0
E0
E0
ENDCHAR
STARTCHAR uni013B
ENCODING 315
SWIDTH 541 0
DWIDTH 12 0
BBX 9 21 2 -5
BITMAP
C000
C000
C000
C000
C000
C000
C000
C000
C000
C000
C000
C000
C000
C000
FF80
FF80
0000
1C00
1C00
1800
1800
ENDCHAR
STARTCHAR uni013C
ENCODING 316
SWIDTH 255 0
DWIDTH 6 0
BBX 3 22 1 -5
BITMAP
E0
E0
E0
E0
E0
E0
E0
E0
E0
E0
E0
E0
E0
E0
E0
E0
E0
00
60
60
C0
C0
ENDCHAR
STARTCHAR Lcaron
ENCODING 317
SWIDTH 541 0
DWIDTH 12 0
BBX 9 16 2 0
BITMAP
C600
C600
C600
CC00
C000
C000
C000
C000
C000
C000
C000
C000
C000
C000
FF80
FF80
ENDCHAR
STARTCHAR lcaron
ENCODING 318
SWIDTH 328 0
DWIDTH 7 0
BBX 7 17 1 0
BITMAP
E6
E6
EE
EC
E0
E0
E0
E0
E0
E0
E0
E0
E0
E0
E0
E0
E0
ENDCHAR
STARTCHAR Ldot
ENCODING 319
SWIDTH 541 0
DWIDTH 12 0
BBX 9 16 2 0
BITMAP
C000
C000
C000
C000
C000
C000
C600
C600
C600
C000
C000
C000
C000
C000
FF80
FF80
ENDCHAR
STARTCHAR ldot
ENCODING 320
SWIDTH 362 0
DWIDTH 8 0
BBX 7 17 1 0
BITMAP
E0
E0
E0
E0
E0
E0
E0
E6
EE
E6
E0
E0
E0
E0
E0
E0
E0
ENDCHAR
STARTCHAR Lslash
ENCODING 321
SWIDTH 548 0
DWIDTH 12 0
BBX 12 16 0 0
BITMAP
3000
3000
3000
3000
3000
3000
3600
3E00
F800
F000
3000
3000
3000
3000
3FF0
3FF0
ENDCHAR
STARTCHAR lslash
ENCODING 322
SWIDTH 288 0
DWIDTH 6 0
BBX 6 17 0 0
BITMAP
30
30
30
30
30
30
30
34
3C
F8
F0
30
30
30
30
30
30
ENDCHAR
STARTCHAR Nacute
ENCODING 323
SWIDTH 709 0
DWIDTH 16 0
BBX 12 20 2 0
BITMAP
03C0
0700
0E00
0000
E030
E030
F030
F830
F830
FC30
EE30
EE30
E730
E330
E3B0
E1F0
E1F0
E0F0
E070
E070
ENDCHAR
STARTCHAR nacute
ENCODING 324
SWIDTH 556 0
DWIDTH 12 0
BBX 10 16 1 0
BITMAP
0380
0600
0C00
0000
EF00
FF80
F1C0
E1C0
E1C0
E1C0
E1C0
E1C0
E1C0
E1C0
E1C0
E1C0
ENDCHAR
STARTCHAR uni0145
ENCODING 325
SWIDTH 709 0
DWIDTH 16 0
BBX 12 21 2 -5
BITMAP
E030
E030
F030
F830
F830
FC30
EE30
EE30
E730
E330
E3B0
E1F0
E1F0
E0F0
E070
E070
0000
0600
0600
0C00
0C00
ENDCHAR
STARTCHAR uni0146
ENCODING 326
SWIDTH 556 0
DWIDTH 12 0
BBX 10 17 1 -5
BITMAP
EF00
FF80
F1C0
E1C0
E1C0
E1C0
E1C0
E1C0
E1C0
E1C0
E1C0
E1C0
0000
0C00
0C00
0C00
1800
ENDCHAR
STARTCHAR Ncaron
ENCODING 327
SWIDTH 709 0
DWIDTH 16 0
BBX 12 20 2 0
BITMAP
39C0
1F00
0E00
0000
E030
E030
F030
F830
F830
FC30
EE30
EE30
E730
E330
E3B0
E1F0
E1F0
E0F0
E070
E070
ENDCHAR
STARTCHAR ncaron
ENCODING 328
SWIDTH 556 0
DWIDTH 12 0
BBX 10 16 1 0
BITMAP
7380
1F00
0C00
0000
EF00
FF80
F1C0
E1C0
E1C0
E1C0
E1C0
E1C0
E1C0
E1C0
E1C0
E1C0
ENDCHAR
STARTCHAR napostrophe
ENCODING 329
SWIDTH 556 0
DWIDTH 12 0
BBX 12 17 -1 0
BITMAP
6000
6000
E000
C000
0000
3BC0
3FE0
3C70
3870
3870
3870
3870
3870
3870
3870
3870
3870
ENDCHAR
STARTCHAR Eng
ENCODING 330
SWIDTH 696 0
DWIDTH 15 0
BBX 13 20 1 -4
BITMAP
E038
F038
F838
F838
FC38
EC38
EE38
E738
E738
E3B8
E1B8
E1F8
E0F8
E0F8
E078
E038
0038
0030
00F0
01E0
ENDCHAR
STARTCHAR eng
ENCODING 331
SWIDTH 566 0
DWIDTH 12 0
BBX 10 16 1 -4
BITMAP
EF00
FF80
E1C0
E1C0
E1C0
E1C0
E1C0
E1C0
E1C0
E1C0
E1C0
E1C0
01C0
01C0
0780
0700
ENDCHAR
STARTCHAR Omacron
ENCODING 332
SWIDTH 690 0
DWIDTH 15 0
BBX 13 19 1 0
BITMAP
1FC0
1FC0
0000
0F80
3FE0
78F0
7070
E038
E038
E038
E038
E038
E038
E038
E038
7070
78F0
3FE0
0F80
ENDCHAR
STARTCHAR omacron
ENCODING 333
SWIDTH 569 0
DWIDTH 13 0
BBX 11 16 1 0
BITMAP
3F80
3F80
0000
0000
1F00
3F80
71C0
E0E0
E0E0
E0E0
E0E0
E0E0
E0E0
71C0
3F80
1F00
ENDCHAR
STARTCHAR Obreve
ENCODING 334
SWIDTH 690 0
DWIDTH 15 0
BBX 13 20 1 0
BITMAP
18C0
0FC0
0780
0000
0F80
3FE0
78F0
7070
E038
E038
E038
E038
E038
E038
E038
E038
7070
78F0
3FE0
0F80
ENDCHAR
STARTCHAR obreve
ENCODING 335
SWIDTH 569 0
DWIDTH 13 0
BBX 11 16 1 0
BITMAP
3180
3F00
1E00
0000
1F00
3F80
71C0
E0E0
E0E0
E0E0
E0E0
E0E0
E0E0
71C0
3F80
1F00
ENDCHAR
STARTCHAR Ohungarumlaut
ENCODING 336
SWIDTH 690 0
DWIDTH 15 0
BBX 13 20 1 0
BITMAP
0770
0EE0
0DC0
0000
0F80
3FE0
78F0
7070
E038
E038
E038
E038
E038
E038
E038
E038
7070
78F0
3FE0
0F80
ENDCHAR
STARTCHAR ohungarumlaut
ENCODING 337
SWIDTH 569 0
DWIDTH 13 0
BBX 11 16 1 0
BITMAP
0EE0
1980
3B00
0000
1F00
3F80
71C0
E0E0
E0E0
E0E0
E0E0
E0E0
E0E0
71C0
3F80
1F00
ENDCHAR
STARTCHAR OE
ENCODING 338
SWIDTH 962 0
DWIDTH 21 0
BBX 19 16 1 0
BITMAP
0FFFE0
3FFFE0
70E000
60E000
E0E000
E0E000
E0E000
E0FFC0
E0FFC0
E0E000
E0E000
E0E000
60E000
70E000
3FFFE0
0FFFE0
ENDCHAR
STARTCHAR oe
ENCODING 339
SWIDTH 903 0
DWIDTH 20 0
BBX 18 12 1 0
BITMAP
1F1F00
3FBF80
71F1C0
E0E1C0
E0E0C0
E0FFC0
E0FFC0
E0E000
E0E000
71F080
3FBFC0
1F1F00
ENDCHAR
STARTCHAR Racute
ENCODING 340
SWIDTH 624 0
DWIDTH 14 0
BBX 12 20 2 0
BITMAP
0700
0E00
1C00
0000
FF00
FFC0
C1C0
C0E0
C0E0
C0E0
C0E0
C1C0
FF80
FF00
C380
C380
C1C0
C1C0
C0E0
C0F0
ENDCHAR
STARTCHAR racute
ENCODING 341
SWIDTH 351 0
DWIDTH 8 0
BBX 7 16 1 0
BITMAP
0E
1C
38
00
EE
FE
F0
E0
E0
E0
E0
E0
E0
E0
E0
E0
ENDCHAR
STARTCHAR uni0156
ENCODING 342
SWIDTH 624 0
DWIDTH 14 0
BBX 12 21 2 -5
BITMAP
FF00
FFC0
C1C0
C0E0
C0E0
C0E0
C0E0
C1C0
FF80
FF00
C380
C380
C1C0
C1C0
C0E0
C0E0
0010
1C00
1C00
1800
1800
ENDCHAR
STARTCHAR uni0157
ENCODING 343
SWIDTH 351 0
DWIDTH 8 0
BBX 7 17 1 -5
BITMAP
EE
FE
F0
E0
E0
E0
E0
E0
E0
E0
E0
E0
00
60
60
C0
C0
ENDCHAR
STARTCHAR Rcaron
ENCODING 344
SWIDTH 624 0
DWIDTH 14 0
BBX 12 20 2 0
BITMAP
6300
3600
1C00
0000
FF00
FFC0
C1C0
C0E0
C0E0
C0E0
C0E0
C1C0
FF80
FF00
C380
C380
C1C0
C1C0
C0E0
C0F0
ENDCHAR
STARTCHAR rcaron
ENCODING 345
SWIDTH 351 0
DWIDTH 8 0
BBX 7 16 1 0
BITMAP
CE
7C
38
00
EE
FE
F0
E0
E0
E0
E0
E0
E0
E0
E0
E0
ENDCHAR
STARTCHAR Sacute
ENCODING 346
SWIDTH 603 0
DWIDTH 13 0
BBX 11 20 1 0
BITMAP
03C0
0700
0E00
0000
1F00
7FC0
70E0
E0E0
E060
E000
7800
3F00
0F80
01E0
00E0
C060
E060
F0E0
7FC0
1F80
ENDCHAR
STARTCHAR sacute
ENCODING 347
SWIDTH 516 0
DWIDTH 11 0
BBX 9 16 1 0
BITMAP
0780
0E00
0C00
0000
3E00
7F00
E380
E180
E000
7E00
1F00
0380
C180
E380
7F80
3E00
ENDCHAR
STARTCHAR Scircumflex
ENCODING 348
SWIDTH 603 0
DWIDTH 13 0
BBX 11 20 1 0
BITMAP
0E00
1F00
39C0
0000
1F00
7FC0
70E0
E0E0
E060
E000
7800
3F00
0F80
01E0
00E0
C060
E060
F0E0
7FC0
1F80
ENDCHAR
STARTCHAR scircumflex
ENCODING 349
SWIDTH 516 0
DWIDTH 11 0
BBX 9 16 1 0
BITMAP
0C00
3F00
7380
0000
3E00
7F00
E380
E180
E000
7E00
1F00
0380
C180
E380
7F80
3E00
ENDCHAR
STARTCHAR Scedilla
ENCODING 350
SWIDTH 603 0
DWIDTH 13 0
BBX 11 21 1 -5
BITMAP
1F00
7FC0
70E0
E0E0
E060
E000
7800
3F00
0F80
01E0
00E0
C060
E060
F0E0
7FC0
1F80
0600
0700
0300
0380
0600
ENDCHAR
STARTCHAR scedilla
ENCODING 351
SWIDTH 516 0
DWIDTH 11 0
BBX 9 17 1 -5
BITMAP
3E00
7F00
E380
E180
E000
7E00
1F00
0380
C180
E380
7F80
3E00
0C00
0E00
0700
0600
0C00
ENDCHAR
STARTCHAR Scaron
ENCODING 352
SWIDTH 603 0
DWIDTH 13 0
BBX 11 20 1 0
BITMAP
39C0
1F00
0E00
0000
1F00
7FC0
70E0
E0E0
E060
E000
7800
3F00
0F80
01E0
00E0
C060
E060
F0E0
7FC0
1F80
ENDCHAR
STARTCHAR scaron
ENCODING 353
SWIDTH 516 0
DWIDTH 11 0
BBX 9 16 1 0
BITMAP
7380
1E00
0C00
0000
3E00
7F00
E380
E180
E000
7E00
1F00
0380
C180
E380
7F80
3E00
ENDCHAR
STARTCHAR uni0162
ENCODING 354
SWIDTH 606 0
DWIDTH 13 0
BBX 13 21 0 -5
BITMAP
FFF8
FFF8
0700
0700
0700
0700
0700
0700
0700
0700
0700
0700
0700
0700
0700
0700
0300
0380
0180
0180
0300
ENDCHAR
STARTCHAR uni0163
ENCODING 355
SWIDTH 332 0
DWIDTH 7 0
BBX 7 20 0 -5
BITMAP
30
30
30
FC
FC
30
30
30
30
30
30
30
38
3E
1E
0C
0E
06
06
0C
ENDCHAR
STARTCHAR Tcaron
ENCODING 356
SWIDTH 606 0
DWIDTH 13 0
BBX 13 20 0 0
BITMAP
1CC0
0F80
0700
0000
FFF8
FFF8
0700
0700
0700
0700
0700
0700
0700
0700
0700
0700
0700
0700
0700
0700
ENDCHAR
STARTCHAR tcaron
ENCODING 357
SWIDTH 352 0
DWIDTH 8 0
BBX 9 18 0 0
BITMAP
0180
0380
0300
3300
3000
3000
FC00
FC00
3000
3000
3000
3000
3000
3000
3000
3800
3E00
1E00
ENDCHAR
STARTCHAR Tbar
ENCODING 358
SWIDTH 606 0
DWIDTH 13 0
BBX 13 16 0 0
BITMAP
FFF8
FFF8
0700
0700
0700
1FC0
1FC0
0700
0700
0700
0700
0700
0700
0700
0700
0700
ENDCHAR
STARTCHAR tbar
ENCODING 359
SWIDTH 332 0
DWIDTH 7 0
BBX 7 15 0 0
BITMAP
30
30
30
FC
FC
30
30
FE
FE
30
30
30
38
3E
1E
ENDCHAR
STARTCHAR Utilde
ENCODING 360
SWIDTH 651 0
DWIDTH 14 0
BBX 12 20 1 0
BITMAP
1CC0
1FC0
3380
0000
E070
E070
E070
E070
E070
E070
E070
E070
E070
E070
E070
E070
E070
70E0
3FC0
1F80
ENDCHAR
STARTCHAR utilde
ENCODING 361
SWIDTH 555 0
DWIDTH 12 0
BBX 10 17 1 0
BITMAP
3980
7F80
6700
0000
0000
E1C0
E1C0
E1C0
E1C0
E1C0
E1C0
E1C0
E1C0
E1C0
E3C0
7FC0
3DC0
ENDCHAR
STARTCHAR Umacron
ENCODING 362
SWIDTH 651 0
DWIDTH 14 0
BBX 12 19 1 0
BITMAP
1FC0
1FC0
0000
E070
E070
E070
E070
E070
E070
E070
E070
E070
E070
E070
E070
E070
70E0
3FC0
1F80
ENDCHAR
STARTCHAR umacron
ENCODING 363
SWIDTH 555 0
DWIDTH 12 0
BBX 10 16 1 0
BITMAP
3F80
3F80
0000
0000
E1C0
E1C0
E1C0
E1C0
E1C0
E1C0
E1C0
E1C0
E1C0
E3C0
7FC0
3DC0
ENDCHAR
STARTCHAR Ubreve
ENCODING 364
SWIDTH 651 0
DWIDTH 14 0
BBX 12 20 1 0
BITMAP
18C0
1F80
0F00
0000
E070
E070
E070
E070
E070
E070
E070
E070
E070
E070
E070
E070
E070
70E0
3FC0
1F80
ENDCHAR
STARTCHAR ubreve
ENCODING 365
SWIDTH 555 0
DWIDTH 12 0
BBX 10 16 1 0
BITMAP
3380
3F00
1E00
0000
E1C0
E1C0
E1C0
E1C0
E1C0
E1C0
E1C0
E1C0
E1C0
E3C0
7FC0
3DC0
ENDCHAR
STARTCHAR Uring
ENCODING 366
SWIDTH 651 0
DWIDTH 14 0
BBX 12 21 1 0
BITMAP
0700
0900
0980
0700
0000
E070
E070
E070
E070
E070
E070
E070
E070
E070
E070
E070
E070
E070
70E0
3FC0
1F80
ENDCHAR
STARTCHAR uring
ENCODING 367
SWIDTH 555 0
DWIDTH 12 0
BBX 10 18 1 0
BITMAP
0E00
1200
1300
0E00
0000
0000
E1C0
E1C0
E1C0
E1C0
E1C0
E1C0
E1C0
E1C0
E1C0
E3C0
7FC0
3DC0
ENDCHAR
STARTCHAR Uhungarumlaut
ENCODING 368
SWIDTH 651 0
DWIDTH 14 0
BBX 12 20 1 0
BITMAP
0770
0CC0
1D80
0000
E070
E070
E070
E070
E070
E070
E070
E070
E070
E070
E070
E070
E070
70E0
3FC0
1F80
ENDCHAR
STARTCHAR uhungarumlaut
ENCODING 369
SWIDTH 555 0
DWIDTH 12 0
BBX 11 16 1 0
BITMAP
0DE0
1B80
3300
0000
E1C0
E1C0
E1C0
E1C0
E1C0
E1C0
E1C0
E1C0
E1C0
E3C0
7FC0
3DC0
ENDCHAR
STARTCHAR Uogonek
ENCODING 370
SWIDTH 651 0
DWIDTH 14 0
BBX 12 20 1 -4
BITMAP
E070
E070
E070
E070
E070
E070
E070
E070
E070
E070
E070
E070
E070
70E0
3FC0
1F80
0300
0700
0380
03C0
ENDCHAR
STARTCHAR uogonek
ENCODING 371
SWIDTH 555 0
DWIDTH 12 0
BBX 10 16 1 -4
BITMAP
E1C0
E1C0
E1C0
E1C0
E1C0
E1C0
E1C0
E1C0
E1C0
E3C0
7FC0
3DC0
0180
0300
03C0
03C0
ENDCHAR
STARTCHAR Wcircumflex
ENCODING 372
SWIDTH 879 0
DWIDTH 19 0
BBX 19 20 0 0
BITMAP
00E000
01F000
039C00
000000
E0E0E0
60E0C0
70E0C0
70F1C0
71F1C0
31B1C0
31B180
39B980
3B9B80
3B1B80
1B1B00
1B1F00
1E0F00
1E0F00
0E0E00
0E0E00
ENDCHAR
STARTCHAR wcircumflex
ENCODING 373
SWIDTH 743 0
DWIDTH 16 0
BBX 16 16 0 0
BITMAP
01C0
03E0
0E70
0000
E187
6186
63C6
73CE
73CE
36EC
366C
366C
3E7C
1C38
1C38
1C38
ENDCHAR
STARTCHAR Ycircumflex
ENCODING 374
SWIDTH 609 0
DWIDTH 13 0
BBX 13 20 0 0
BITMAP
0700
0F80
1CC0
0000
E038
7038
7070
3860
38E0
1CC0
1DC0
0F80
0F80
0700
0700
0700
0700
0700
0700
0700
ENDCHAR
STARTCHAR ycircumflex
ENCODING 375
SWIDTH 486 0
DWIDTH 11 0
BBX 11 20 0 -4
BITMAP
0E00
1B00
3180
0000
E0E0
71C0
71C0
3180
3980
3B80
1B00
1B00
1F00
0E00
0E00
0E00
0C00
1C00
7800
7000
ENDCHAR
STARTCHAR Ydieresis
ENCODING 376
SWIDTH 609 0
DWIDTH 13 0
BBX 13 20 0 0
BITMAP
18C0
1CE0
18C0
0000
E038
7038
7070
3860
38E0
1CC0
1DC0
0F80
0F80
0700
0700
0700
0700
0700
0700
0700
ENDCHAR
STARTCHAR Zacute
ENCODING 377
SWIDTH 602 0
DWIDTH 13 0
BBX 12 20 1 0
BITMAP
0380
0700
0E00
0000
FFE0
FFE0
00E0
01C0
0380
0380
0700
0E00
0E00
1C00
3800
3800
7000
E000
FFF0
FFF0
ENDCHAR
STARTCHAR zacute
ENCODING 378
SWIDTH 502 0
DWIDTH 11 0
BBX 9 16 1 0
BITMAP
0700
0E00
1C00
0000
FF80
FF80
0700
0700
0E00
1C00
1C00
3800
7000
E000
FF80
FF80
ENDCHAR
STARTCHAR Zdotaccent
ENCODING 379
SWIDTH 602 0
DWIDTH 13 0
BBX 12 20 1 0
BITMAP
0600
0600
0600
0000
FFE0
FFE0
00E0
01C0
0380
0380
0700
0E00
0E00
1C00
3800
3800
7000
E000
FFF0
FFF0
ENDCHAR
STARTCHAR zdotaccent
ENCODING 380
SWIDTH 502 0
DWIDTH 11 0
BBX 9 16 1 0
BITMAP
0C00
1C00
0C00
0000
FF80
FF80
0700
0700
0E00
1C00
1C00
3800
7000
E000
FF80
FF80
ENDCHAR
STARTCHAR Zcaron
ENCODING 381
SWIDTH 602 0
DWIDTH 13 0
BBX 12 20 1 0
BITMAP
3980
1F00
0E00
0000
FFE0
FFE0
00E0
01C0
0380
0380
0700
0E00
0E00
1C00
3800
3800
7000
E000
FFF0
FFF0
ENDCHAR
STARTCHAR zcaron
ENCODING 382
SWIDTH 502 0
DWIDTH 11 0
BBX 9 16 1 0
BITMAP
6300
3600
1C00
0000
FF80
FF80
0700
0700
0E00
1C00
1C00
3800
7000
E000
FF80
FF80
ENDCHAR
STARTCHAR longs
ENCODING 383
SWIDTH 255 0
DWIDTH 6 0
BBX 5 17 2 0
BITMAP
38
F8
E0
C0
C0
C0
C0
C0
C0
C0
C0
C0
C0
C0
C0
C0
C0
ENDCHAR
STARTCHAR uni018F
ENCODING 399
SWIDTH 691 0
DWIDTH 15 0
BBX 13 16 1 0
BITMAP
3F80
7FC0
40E0
0070
0038
0038
0038
FFF8
FFF8
C038
E038
E030
E070
70E0
3FC0
0F80
ENDCHAR
STARTCHAR florin
ENCODING 402
SWIDTH 351 0
DWIDTH 8 0
BBX 8 21 0 -4
BITMAP
0F
1F
38
38
38
7E
7E
38
38
38
38
38
38
38
38
38
38
38
38
F0
E0
ENDCHAR
STARTCHAR Ohorn
ENCODING 416
SWIDTH 692 0
DWIDTH 15 0
BBX 14 17 1 0
BITMAP
000C
0F8C
3FCC
70F8
7070
E030
E038
E038
E038
E038
E038
E038
E030
7070
78E0
3FC0
0F80
ENDCHAR
STARTCHAR ohorn
ENCODING 417
SWIDTH 577 0
DWIDTH 13 0
BBX 12 13 1 0
BITMAP
0030
1F30
3FB0
71E0
E0C0
E0E0
E0E0
E0E0
E0E0
E0C0
71C0
3F80
1F00
ENDCHAR
STARTCHAR Uhorn
ENCODING 431
SWIDTH 705 0
DWIDTH 16 0
BBX 15 17 2 0
BITMAP
0006
C066
C066
C07C
C060
C060
C060
C060
C060
C060
C060
C060
C0E0
E0E0
E1C0
7FC0
1F00
ENDCHAR
STARTCHAR uhorn
ENCODING 432
SWIDTH 618 0
DWIDTH 14 0
BBX 13 13 1 0
BITMAP
0008
E1D8
E1F0
E1C0
E1C0
E1C0
E1C0
E1C0
E1C0
61C0
71C0
7FC0
3CC0
ENDCHAR
STARTCHAR uni01F0
ENCODING 496
SWIDTH 268 0
DWIDTH 6 0
BBX 8 20 -1 -4
BITMAP
E7
3C
18
00
18
18
18
18
18
18
18
18
18
18
18
18
18
38
F8
F0
ENDCHAR
STARTCHAR Aringacute
ENCODING 506
SWIDTH 665 0
DWIDTH 15 0
BBX 14 21 0 0
BITMAP
00E0
0180
0380
0680
0680
0380
0380
0780
07C0
0EC0
0EE0
0CE0
1C60
1C70
1870
3FF0
3FF8
7018
701C
601C
E01C
ENDCHAR
STARTCHAR aringacute
ENCODING 507
SWIDTH 541 0
DWIDTH 12 0
BBX 10 18 1 0
BITMAP
0380
0600
0C00
1200
1200
0C00
1E00
7F80
6380
E1C0
01C0
3FC0
7FC0
E1C0
E1C0
E3C0
7FC0
3DC0
ENDCHAR
STARTCHAR AEacute
ENCODING 508
SWIDTH 939 0
DWIDTH 21 0
BBX 20 20 0 0
BITMAP
003C00
003000
006000
000000
007FF0
00FFF0
01F800
01F800
03B800
03B800
073800
073FE0
0E3FE0
0C3800
1FF800
3FF800
383800
703800
703FF0
E01FF0
ENDCHAR
STARTCHAR aeacute
ENCODING 509
SWIDTH 844 0
DWIDTH 19 0
BBX 17 16 1 0
BITMAP
007000
00E000
01C000
000000
3F3E00
7FFF00
F1E380
61C380
01C180
3FFF80
7FFF80
E1C000
E1C000
E3E100
7F7F80
3E3F00
ENDCHAR
STARTCHAR Oslashacute
ENCODING 510
SWIDTH 689 0
DWIDTH 15 0
BBX 13 21 1 -1
BITMAP
01C0
0380
0700
0000
0F98
3FF0
78F0
7070
60F8
E1B8
E1B8
E338
E238
E638
EC38
EC38
7870
78F0
3FE0
6F80
6000
ENDCHAR
STARTCHAR oslashacute
ENCODING 511
SWIDTH 566 0
DWIDTH 12 0
BBX 10 17 1 -1
BITMAP
0780
0E00
1C00
0080
1F80
7F80
E3C0
E3C0
C6C0
C4C0
CCC0
C8C0
F9C0
F1C0
7F80
3E00
6000
ENDCHAR
STARTCHAR uni0218
ENCODING 536
SWIDTH 603 0
DWIDTH 13 0
BBX 11 21 1 -5
BITMAP
1F00
7FC0
70E0
E0E0
E060
E000
7800
3F00
0F80
01E0
00E0
C060
E060
F0E0
7FC0
1F80
0000
0600
0600
0E00
0C00
ENDCHAR
STARTCHAR uni0219
ENCODING 537
SWIDTH 516 0
DWIDTH 11 0
BBX 9 17 1 -5
BITMAP
3E00
7F00
E380
E180
E000
7E00
1F00
0380
C180
E380
7F80
3E00
0000
0C00
0C00
1C00
1800
ENDCHAR
STARTCHAR uni021A
ENCODING 538
SWIDTH 606 0
DWIDTH 13 0
BBX 13 21 0 -5
BITMAP
FFF8
FFF8
0700
0700
0700
0700
0700
0700
0700
0700
0700
0700
0700
0700
0700
0700
0000
0300
0300
0600
0600
ENDCHAR
STARTCHAR uni021B
ENCODING 539
SWIDTH 332 0
DWIDTH 7 0
BBX 7 20 0 -5
BITMAP
30
30
30
FC
FC
30
30
30
30
30
30
30
38
3E
1E
00
0C
0C
18
18
ENDCHAR
STARTCHAR uni0237
ENCODING 567
SWIDTH 268 0
DWIDTH 6 0
BBX 5 16 -1 -4
BITMAP
18
18
18
18
18
18
18
18
18
18
18
18
18
38
F8
F0
ENDCHAR
STARTCHAR uni0259
ENCODING 601
SWIDTH 529 0
DWIDTH 12 0
BBX 10 12 1 0
BITMAP
3E00
FF80
4380
01C0
01C0
FFC0
FFC0
E1C0
E1C0
7380
7F80
1E00
ENDCHAR
STARTCHAR uni02BC
ENCODING 700
SWIDTH 216 0
DWIDTH 5 0
BBX 3 5 1 12
BITMAP
60
60
60
C0
C0
ENDCHAR
STARTCHAR circumflex
ENCODING 710
SWIDTH 487 0
DWIDTH 11 0
BBX 7 3 2 13
BITMAP
38
7C
CE
ENDCHAR
STARTCHAR caron
ENCODING 711
SWIDTH 460 0
DWIDTH 10 0
BBX 8 3 1 13
BITMAP
E7
3C
18
ENDCHAR
STARTCHAR uni02C9
ENCODING 713
SWIDTH 482 0
DWIDTH 11 0
BBX 7 2 2 14
BITMAP
FE
FE
ENDCHAR
STARTCHAR breve
ENCODING 728
SWIDTH 435 0
DWIDTH 10 0
BBX 7 3 1 13
BITMAP
C6
7E
3C
ENDCHAR
STARTCHAR dotaccent
ENCODING 729
SWIDTH 255 0
DWIDTH 6 0
BBX 2 3 2 13
BITMAP
C0
C0
C0
ENDCHAR
STARTCHAR ring
ENCODING 730
SWIDTH 336 0
DWIDTH 7 0
BBX 5 4 1 13
BITMAP
70
C8
C8
70
ENDCHAR
STARTCHAR ogonek
ENCODING 731
SWIDTH 287 0
DWIDTH 6 0
BBX 4 6 0 -4
BITMAP
20
70
60
C0
F0
70
ENDCHAR
STARTCHAR tilde
ENCODING 732
SWIDTH 480 0
DWIDTH 11 0
BBX 8 3 1 14
BITMAP
73
7F
CE
ENDCHAR
STARTCHAR hungarumlaut
ENCODING 733
SWIDTH 390 0
DWIDTH 9 0
BBX 8 3 1 13
BITMAP
77
6E
DC
ENDCHAR
STARTCHAR uni02F3
ENCODING 755
SWIDTH 302 0
DWIDTH 7 0
BBX 4 4 1 -5
BITMAP
70
D0
D0
70
ENDCHAR
STARTCHAR gravecomb
ENCODING 768
SWIDTH 0 0
DWIDTH 0 0
BBX 5 3 -9 13
BITMAP
E0
70
38
ENDCHAR
STARTCHAR acutecomb
ENCODING 769
SWIDTH 0 0
DWIDTH 0 0
BBX 5 3 -7 13
BITMAP
78
60
C0
ENDCHAR
STARTCHAR tildecomb
ENCODING 771
SWIDTH 0 0
DWIDTH 0 0
BBX 8 3 -10 14
BITMAP
73
7F
CE
ENDCHAR
STARTCHAR hookabovecomb
ENCODING 777
SWIDTH 0 0
DWIDTH 0 0
BBX 4 4 -8 13
BITMAP
E0
30
70
60
ENDCHAR
STARTCHAR uni030F
ENCODING 783
SWIDTH 0 0
DWIDTH 0 0
BBX 9 3 -11 13
BITMAP
EE00
3F00
1F80
ENDCHAR
STARTCHAR dotbelowcomb
ENCODING 803
SWIDTH 0 0
DWIDTH 0 0
BBX 3 3 -8 -4
BITMAP
E0
E0
E0
ENDCHAR
STARTCHAR tonos
ENCODING 900
SWIDTH 295 0
DWIDTH 7 0
BBX 3 4 2 14
BITMAP
60
E0
C0
C0
ENDCHAR
STARTCHAR dieresistonos
ENCODING 901
SWIDTH 529 0
DWIDTH 12 0
BBX 9 5 1 13
BITMAP
0E00
0C00
ED80
E180
E180
ENDCHAR
STARTCHAR Alphatonos
ENCODING 902
SWIDTH 665 0
DWIDTH 15 0
BBX 14 18 0 0
BITMAP
3000
3000
3380
6380
0780
07C0
0EC0
0EE0
0CE0
1C60
1C70
1870
3FF0
3FF8
7018
701C
601C
E01C
ENDCHAR
STARTCHAR anoteleia
ENCODING 903
SWIDTH 282 0
DWIDTH 6 0
BBX 3 3 1 6
BITMAP
60
E0
60
ENDCHAR
STARTCHAR Epsilontonos
ENCODING 904
SWIDTH 565 0
DWIDTH 12 0
BBX 15 18 -3 0
BITMAP
6000
C000
C7FE
C7FE
0600
0600
0600
0600
0600
07FC
07FC
0600
0600
0600
0600
0600
07FE
07FE
ENDCHAR
STARTCHAR Etatonos
ENCODING 905
SWIDTH 710 0
DWIDTH 16 0
BBX 17 18 -3 0
BITMAP
600000
E00000
C60380
C60380
060380
060380
060380
060380
060380
07FF80
07FF80
060380
060380
060380
060380
060380
060380
060380
ENDCHAR
STARTCHAR Iotatonos
ENCODING 906
SWIDTH 282 0
DWIDTH 6 0
BBX 7 18 -3 0
BITMAP
60
E0
C6
C6
06
06
06
06
06
06
06
06
06
06
06
06
06
06
ENDCHAR
STARTCHAR Omicrontonos
ENCODING 908
SWIDTH 700 0
DWIDTH 15 0
BBX 15 18 -1 0
BITMAP
6000
E000
C3E0
C7F8
0E1C
1C0C
180E
380E
380E
380E
380E
380E
380E
180E
1C0C
0E1C
07F8
03E0
ENDCHAR
STARTCHAR Upsilontonos
ENCODING 910
SWIDTH 658 0
DWIDTH 14 0
BBX 17 18 -3 0
BITMAP
E00000
C00000
CE0380
C70380
070700
038700
038E00
01CE00
00DC00
00F800
007800
007000
007000
007000
007000
007000
007000
007000
ENDCHAR
STARTCHAR Omegatonos
ENCODING 911
SWIDTH 679 0
DWIDTH 15 0
BBX 15 18 -1 0
BITMAP
6000
6000
C3E0
C7F8
0E38
1C1C
1C0C
180E
180E
180E
180E
180E
1C0C
1C1C
0C18
0E38
1F7E
1F7E
ENDCHAR
STARTCHAR iotadieresistonos
ENCODING 912
SWIDTH 333 0
DWIDTH 7 0
BBX 9 18 -1 0
BITMAP
0C00
0C00
DB80
C380
C380
0000
1800
1800
1800
1800
1800
1800
1800
1800
1800
1C00
1F00
0F00
ENDCHAR
STARTCHAR Alpha
ENCODING 913
SWIDTH 665 0
DWIDTH 15 0
BBX 14 16 0 0
BITMAP
0380
0380
0780
07C0
0EC0
0EE0
0CE0
1C60
1C70
1870
3FF0
3FF8
7018
701C
601C
E01C
ENDCHAR
STARTCHAR Beta
ENCODING 914
SWIDTH 630 0
DWIDTH 14 0
BBX 11 16 2 0
BITMAP
FF00
FF80
C1C0
C0C0
C0C0
C0C0
C1C0
FF80
FF80
C1C0
C0E0
C0E0
C0E0
C1C0
FFC0
FF00
ENDCHAR
STARTCHAR Gamma
ENCODING 915
SWIDTH 557 0
DWIDTH 12 0
BBX 10 16 2 0
BITMAP
FFC0
FFC0
C000
C000
C000
C000
C000
C000
C000
C000
C000
C000
C000
C000
C000
C000
ENDCHAR
STARTCHAR Delta.dup1
ENCODING 916
SWIDTH 718 0
DWIDTH 16 0
BBX 15 16 0 0
BITMAP
0380
03C0
03C0
07E0
07E0
0E60
0E70
0C70
1C38
1C38
3818
381C
381C
700E
7FFE
FFFE
ENDCHAR
STARTCHAR Epsilon
ENCODING 917
SWIDTH 565 0
DWIDTH 12 0
BBX 10 16 2 0
BITMAP
FFC0
FFC0
C000
C000
C000
C000
C000
FF80
FF80
C000
C000
C000
C000
C000
FFC0
FFC0
ENDCHAR
STARTCHAR Zeta
ENCODING 918
SWIDTH 602 0
DWIDTH 13 0
BBX 12 16 1 0
BITMAP
FFE0
FFE0
00E0
01C0
0380
0380
0700
0E00
0E00
1C00
3800
3800
7000
E000
FFF0
FFF0
ENDCHAR
STARTCHAR Eta
ENCODING 919
SWIDTH 710 0
DWIDTH 16 0
BBX 12 16 2 0
BITMAP
C070
C070
C070
C070
C070
C070
C070
FFF0
FFF0
C070
C070
C070
C070
C070
C070
C070
ENDCHAR
STARTCHAR Theta
ENCODING 920
SWIDTH 684 0
DWIDTH 15 0
BBX 13 16 1 0
BITMAP
0F80
3FE0
78E0
7070
E030
E038
EFB8
EFB8
E038
E038
E038
E030
7070
78F0
3FE0
0F80
ENDCHAR
STARTCHAR Iota
ENCODING 921
SWIDTH 282 0
DWIDTH 6 0
BBX 2 16 2 0
BITMAP
C0
C0
C0
C0
C0
C0
C0
C0
C0
C0
C0
C0
C0
C0
C0
C0
ENDCHAR
STARTCHAR Kappa
ENCODING 922
SWIDTH 630 0
DWIDTH 14 0
BBX 12 16 2 0
BITMAP
C0F0
C1C0
C3C0
C380
C700
CE00
DC00
FC00
FE00
FF00
E700
C380
C3C0
C1C0
C0E0
C0F0
ENDCHAR
STARTCHAR Lambda
ENCODING 923
SWIDTH 652 0
DWIDTH 14 0
BBX 14 16 0 0
BITMAP
0380
0780
0780
07C0
0FC0
0EC0
0CE0
1CE0
1C60
1870
3870
3830
3038
7038
7018
E01C
ENDCHAR
STARTCHAR Mu
ENCODING 924
SWIDTH 875 0
DWIDTH 19 0
BBX 16 16 2 0
BITMAP
E00F
F00F
F01F
F01F
F83F
D83F
DC37
DC77
CC67
CE67
C6E7
C6C7
C7C7
C3C7
C387
C387
ENDCHAR
STARTCHAR Nu
ENCODING 925
SWIDTH 709 0
DWIDTH 16 0
BBX 12 16 2 0
BITMAP
E030
E030
F030
F830
F830
FC30
EE30
EE30
E730
E330
E3B0
E1F0
E1F0
E0F0
E070
E070
ENDCHAR
STARTCHAR Xi
ENCODING 926
SWIDTH 570 0
DWIDTH 13 0
BBX 11 16 1 0
BITMAP
FFC0
FFC0
0000
0000
0000
0000
0000
7F80
7F80
0000
0000
0000
0000
0000
FFE0
FFE0
ENDCHAR
STARTCHAR Omicron
ENCODING 927
SWIDTH 690 0
DWIDTH 15 0
BBX 13 16 1 0
BITMAP
0F80
3FE0
78F0
7070
E038
E038
E038
E038
E038
E038
E038
E038
7070
78F0
3FE0
0F80
ENDCHAR
STARTCHAR Pi
ENCODING 928
SWIDTH 711 0
DWIDTH 16 0
BBX 12 16 2 0
BITMAP
FFF0
FFF0
C070
C070
C070
C070
C070
C070
C070
C070
C070
C070
C070
C070
C070
C070
ENDCHAR
STARTCHAR Rho
ENCODING 929
SWIDTH 639 0
DWIDTH 14 0
BBX 11 16 2 0
BITMAP
FF00
FFC0
C1E0
C0E0
C0E0
C0E0
C0E0
C1E0
FFC0
FF00
C000
C000
C000
C000
C000
C000
ENDCHAR
STARTCHAR Sigma
ENCODING 931
SWIDTH 570 0
DWIDTH 13 0
BBX 11 16 1 0
BITMAP
FFC0
FFC0
7000
7000
3800
1C00
0E00
0E00
0F00
0E00
1C00
3800
7000
7000
FFE0
FFE0
ENDCHAR
STARTCHAR Tau
ENCODING 932
SWIDTH 606 0
DWIDTH 13 0
BBX 13 16 0 0
BITMAP
FFF8
FFF8
0700
0700
0700
0700
0700
0700
0700
0700
0700
0700
0700
0700
0700
0700
ENDCHAR
STARTCHAR Upsilon
ENCODING 933
SWIDTH 609 0
DWIDTH 13 0
BBX 13 16 0 0
BITMAP
E038
7038
7070
3860
38E0
1CC0
1DC0
0F80
0F80
0700
0700
0700
0700
0700
0700
0700
ENDCHAR
STARTCHAR Phi
ENCODING 934
SWIDTH 741 0
DWIDTH 16 0
BBX 15 16 1 0
BITMAP
0300
0300
1FE0
3FF8
7338
E31C
E30C
C30C
C30E
C30C
E31C
7338
3FF8
1FE0
0300
0300
ENDCHAR
STARTCHAR Chi
ENCODING 935
SWIDTH 632 0
DWIDTH 14 0
BBX 14 16 0 0
BITMAP
7038
7870
3870
1CE0
1CE0
0FC0
0FC0
0780
0780
0FC0
0FC0
1CE0
1CE0
3870
7078
F03C
ENDCHAR
STARTCHAR Psi
ENCODING 936
SWIDTH 708 0
DWIDTH 16 0
BBX 14 16 1 0
BITMAP
E31C
E31C
E31C
E31C
E31C
E31C
E31C
E31C
6318
7338
3FF0
0FC0
0300
0300
0300
0300
ENDCHAR
STARTCHAR Omega.dup2
ENCODING 937
SWIDTH 669 0
DWIDTH 15 0
BBX 13 16 1 0
BITMAP
0F80
3FC0
38E0
7070
6070
E030
E038
E038
E038
E030
6070
7070
3060
38E0
FDF0
FDF0
ENDCHAR
STARTCHAR Iotadieresis
ENCODING 938
SWIDTH 282 0
DWIDTH 6 0
BBX 8 20 -1 0
BITMAP
63
E7
63
00
18
18
18
18
18
18
18
18
18
18
18
18
18
18
18
18
ENDCHAR
STARTCHAR Upsilondieresis
ENCODING 939
SWIDTH 609 0
DWIDTH 13 0
BBX 13 20 0 0
BITMAP
18C0
1CE0
18C0
0000
E038
7038
7070
3860
38E0
1CC0
1DC0
0F80
0F80
0700
0700
0700
0700
0700
0700
0700
ENDCHAR
STARTCHAR alphatonos
ENCODING 940
SWIDTH 564 0
DWIDTH 12 0
BBX 11 18 1 0
BITMAP
0700
0600
0600
0400
0000
0000
3DC0
7FC0
E3C0
E1C0
C1C0
C1C0
C1C0
C1C0
E1C0
E3C0
7FE0
3CE0
ENDCHAR
STARTCHAR epsilontonos
ENCODING 941
SWIDTH 546 0
DWIDTH 12 0
BBX 10 18 1 0
BITMAP
0600
0600
0C00
0C00
0000
0000
3F00
7F80
E1C0
E1C0
E000
7E00
7E00
E000
E0C0
E1C0
7F80
3F00
ENDCHAR
STARTCHAR etatonos
ENCODING 942
SWIDTH 566 0
DWIDTH 12 0
BBX 10 22 1 -4
BITMAP
0600
0600
0C00
0C00
0000
0000
EF00
FF80
E1C0
E1C0
E1C0
E1C0
E1C0
E1C0
E1C0
E1C0
E1C0
E1C0
01C0
01C0
01C0
01C0
ENDCHAR
STARTCHAR iotatonos
ENCODING 943
SWIDTH 333 0
DWIDTH 7 0
BBX 5 18 2 0
BITMAP
60
60
C0
C0
00
00
C0
C0
C0
C0
C0
C0
C0
C0
C0
E0
F8
78
ENDCHAR
STARTCHAR upsilondieresistonos
ENCODING 944
SWIDTH 546 0
DWIDTH 12 0
BBX 10 18 1 0
BITMAP
0600
0C00
6D80
E1C0
6180
0000
E380
E180
E1C0
E1C0
E1C0
E1C0
E1C0
E1C0
E1C0
7380
7F00
3E00
ENDCHAR
STARTCHAR alpha
ENCODING 945
SWIDTH 564 0
DWIDTH 12 0
BBX 11 12 1 0
BITMAP
3DC0
7FC0
E3C0
E1C0
C1C0
C1C0
C1C0
C1C0
E1C0
E3C0
7FE0
3CE0
ENDCHAR
STARTCHAR beta
ENCODING 946
SWIDTH 596 0
DWIDTH 13 0
BBX 10 20 2 -4
BITMAP
3E00
7F00
E380
C180
C180
C180
C380
CF00
CF80
C1C0
C1C0
C1C0
C1C0
E1C0
FF80
DF00
C000
C000
C000
C000
ENDCHAR
STARTCHAR gamma
ENCODING 947
SWIDTH 506 0
DWIDTH 11 0
BBX 11 16 0 -4
BITMAP
E0E0
60C0
71C0
31C0
3180
3B80
1B00
1B00
1F00
0E00
0E00
0E00
0E00
0E00
0E00
0E00
ENDCHAR
STARTCHAR delta
ENCODING 948
SWIDTH 566 0
DWIDTH 12 0
BBX 10 17 1 0
BITMAP
1F00
3F00
7100
7000
7000
3E00
3F00
7380
E1C0
C0C0
C0C0
C0C0
C0C0
E1C0
F1C0
7F80
1E00
ENDCHAR
STARTCHAR epsilon
ENCODING 949
SWIDTH 546 0
DWIDTH 12 0
BBX 10 12 1 0
BITMAP
3F00
7F80
E1C0
E1C0
E000
7E00
7E00
E000
E0C0
E1C0
7F80
3F00
ENDCHAR
STARTCHAR zeta
ENCODING 950
SWIDTH 512 0
DWIDTH 11 0
BBX 9 20 1 -4
BITMAP
FF80
FF80
0300
0700
0E00
1C00
3800
3800
7000
7000
6000
6000
6000
7000
7C00
1F00
0380
0380
0300
0600
ENDCHAR
STARTCHAR eta
ENCODING 951
SWIDTH 566 0
DWIDTH 12 0
BBX 10 16 1 -4
BITMAP
EF00
FF80
E1C0
E1C0
E1C0
E1C0
E1C0
E1C0
E1C0
E1C0
E1C0
E1C0
01C0
01C0
01C0
01C0
ENDCHAR
STARTCHAR theta
ENCODING 952
SWIDTH 578 0
DWIDTH 13 0
BBX 11 16 1 0
BITMAP
1F00
3F80
71C0
60C0
60C0
E0E0
FFE0
FFE0
E0E0
E0E0
E0E0
60C0
71C0
71C0
3F80
1F00
ENDCHAR
STARTCHAR iota
ENCODING 953
SWIDTH 333 0
DWIDTH 7 0
BBX 5 12 2 0
BITMAP
C0
C0
C0
C0
C0
C0
C0
C0
C0
E0
F8
78
ENDCHAR
STARTCHAR kappa
ENCODING 954
SWIDTH 574 0
DWIDTH 13 0
BBX 10 12 2 0
BITMAP
C3C0
C380
C700
CE00
DC00
FC00
FC00
CE00
CE00
C700
C380
C3C0
ENDCHAR
STARTCHAR lambda
ENCODING 955
SWIDTH 551 0
DWIDTH 12 0
BBX 12 16 0 0
BITMAP
7800
3C00
1C00
0C00
0E00
0E00
0F00
1F00
1F00
1B80
3B80
39C0
71C0
70E0
70F0
E070
ENDCHAR
STARTCHAR uni03BC
ENCODING 956
SWIDTH 591 0
DWIDTH 13 0
BBX 9 16 2 -4
BITMAP
C180
C180
C180
C180
C180
C180
C180
C180
C180
E380
FF80
FD80
C000
C000
C000
C000
ENDCHAR
STARTCHAR nu
ENCODING 957
SWIDTH 494 0
DWIDTH 11 0
BBX 11 12 0 0
BITMAP
E0E0
60C0
71C0
7180
3180
3B80
3B00
1B00
1B00
0E00
0E00
0E00
ENDCHAR
STARTCHAR xi
ENCODING 958
SWIDTH 509 0
DWIDTH 11 0
BBX 9 20 1 -4
BITMAP
1F80
3F80
7000
6000
6000
7000
3F00
3F00
7000
E000
E000
E000
E000
F000
7E00
1F80
0380
0180
0380
0100
ENDCHAR
STARTCHAR omicron
ENCODING 959
SWIDTH 569 0
DWIDTH 13 0
BBX 11 12 1 0
BITMAP
1F00
3F80
71C0
E0E0
E0E0
E0E0
E0E0
E0E0
E0E0
71C0
3F80
1F00
ENDCHAR
STARTCHAR pi
ENCODING 960
SWIDTH 618 0
DWIDTH 14 0
BBX 12 12 1 0
BITMAP
FFF0
FFF0
30C0
30C0
30C0
30C0
30C0
30C0
30C0
30C0
30F0
3070
ENDCHAR
STARTCHAR rho
ENCODING 961
SWIDTH 566 0
DWIDTH 12 0
BBX 10 16 1 -4
BITMAP
1F00
3F80
71C0
E1C0
E0C0
E0C0
E0C0
E0C0
E1C0
E1C0
FF80
EF00
E000
E000
E000
E000
ENDCHAR
STARTCHAR sigma1
ENCODING 962
SWIDTH 526 0
DWIDTH 12 0
BBX 10 16 1 -4
BITMAP
1F00
3F80
71C0
E1C0
E000
E000
E000
E000
E000
7800
3F00
0F80
0380
0380
0300
0200
ENDCHAR
STARTCHAR sigma
ENCODING 963
SWIDTH 570 0
DWIDTH 13 0
BBX 12 12 1 0
BITMAP
1FF0
3FF0
7180
E0C0
E0C0
E0E0
E0E0
E0E0
E0C0
71C0
3F80
1F00
ENDCHAR
STARTCHAR tau
ENCODING 964
SWIDTH 521 0
DWIDTH 11 0
BBX 10 12 0 0
BITMAP
FFC0
FFC0
0E00
0E00
0E00
0E00
0E00
0E00
0E00
0E00
0F80
0780
ENDCHAR
STARTCHAR upsilon
ENCODING 965
SWIDTH 546 0
DWIDTH 12 0
BBX 10 12 1 0
BITMAP
E380
E180
E1C0
E1C0
E1C0
E1C0
E1C0
E1C0
E1C0
7380
7F00
3E00
ENDCHAR
STARTCHAR phi
ENCODING 966
SWIDTH 726 0
DWIDTH 16 0
BBX 14 17 1 -5
BITMAP
21E0
73F0
E338
E31C
C31C
C30C
C30C
E31C
E31C
7338
3FF0
1FE0
0300
0300
0300
0300
0300
ENDCHAR
STARTCHAR chi
ENCODING 967
SWIDTH 502 0
DWIDTH 11 0
BBX 12 16 0 -4
BITMAP
F0E0
F0C0
39C0
1980
1F80
0F00
0F00
0600
0F00
0F00
1F80
1B80
3980
39C0
70F0
7060
ENDCHAR
STARTCHAR psi
ENCODING 968
SWIDTH 723 0
DWIDTH 16 0
BBX 14 17 1 -5
BITMAP
E338
E31C
E31C
E31C
E31C
E30C
E30C
E31C
E31C
7338
3FF0
0FC0
0300
0300
0300
0300
0300
ENDCHAR
STARTCHAR omega
ENCODING 969
SWIDTH 822 0
DWIDTH 18 0
BBX 16 12 1 0
BITMAP
700E
700E
E007
E187
E187
E187
E187
E187
E3C7
73CE
7FFE
3E7C
ENDCHAR
STARTCHAR iotadieresis
ENCODING 970
SWIDTH 333 0
DWIDTH 7 0
BBX 8 16 -1 0
BITMAP
63
E7
63
00
18
18
18
18
18
18
18
18
18
1C
1F
0F
ENDCHAR
STARTCHAR upsilondieresis
ENCODING 971
SWIDTH 546 0
DWIDTH 12 0
BBX 10 16 1 0
BITMAP
7300
7380
7300
0000
E380
E180
E1C0
E1C0
E1C0
E1C0
E1C0
E1C0
E1C0
7380
7F00
3E00
ENDCHAR
STARTCHAR omicrontonos
ENCODING 972
SWIDTH 569 0
DWIDTH 13 0
BBX 11 18 1 0
BITMAP
0600
0600
0C00
0C00
0000
0000
1F00
3F80
71C0
E0E0
E0E0
E0E0
E0E0
E0E0
E0E0
71C0
3F80
1F00
ENDCHAR
STARTCHAR upsilontonos
ENCODING 973
SWIDTH 546 0
DWIDTH 12 0
BBX 10 18 1 0
BITMAP
0600
0E00
0C00
0C00
0000
0000
E380
E180
E1C0
E1C0
E1C0
E1C0
E1C0
E1C0
E1C0
7380
7F00
3E00
ENDCHAR
STARTCHAR omegatonos
ENCODING 974
SWIDTH 822 0
DWIDTH 18 0
BBX 16 18 1 0
BITMAP
00C0
01C0
0180
0180
0000
0000
700E
700E
E007
E187
E187
E187
E187
E187
E3C7
73CE
7FFE
3E7C
ENDCHAR
STARTCHAR theta1
ENCODING 977
SWIDTH 587 0
DWIDTH 13 0
BBX 12 16 1 0
BITMAP
0F80
1FC0
19C0
18C0
18C0
1CC0
1EC0
0FF0
E3F0
E0C0
E0C0
E0C0
61C0
71C0
3F80
1F00
ENDCHAR
STARTCHAR Upsilon1
ENCODING 978
SWIDTH 560 0
DWIDTH 12 0
BBX 13 16 0 0
BITMAP
E078
F070
70E0
30C0
39C0
1980
1F80
0F00
0F00
0F00
0600
0600
0600
0600
0600
0600
ENDCHAR
STARTCHAR omega1
ENCODING 982
SWIDTH 805 0
DWIDTH 18 0
BBX 17 12 1 0
BITMAP
FFFF80
FFFF80
600600
E00700
E18700
E18700
E18700
E18700
63C600
73CE00
7F7E00
1C3C00
ENDCHAR
STARTCHAR uni0400
ENCODING 1024
SWIDTH 565 0
DWIDTH 12 0
BBX 10 20 2 0
BITMAP
7000
3800
1C00
0000
FFC0
FFC0
C000
C000
C000
C000
C000
FF80
FF80
C000
C000
C000
C000
C000
FFC0
FFC0
ENDCHAR
STARTCHAR uni0401
ENCODING 1025
SWIDTH 565 0
DWIDTH 12 0
BBX 10 20 2 0
BITMAP
6300
7380
6300
0000
FFC0
FFC0
C000
C000
C000
C000
C000
FF80
FF80
C000
C000
C000
C000
C000
FFC0
FFC0
ENDCHAR
STARTCHAR uni0402
ENCODING 1026
SWIDTH 749 0
DWIDTH 16 0
BBX 16 16 0 0
BITMAP
FFF0
FFF0
0E00
0E00
0E00
0E00
0FF8
0FFC
0E0E
0E06
0E06
0E07
0E06
0E0E
0E3C
0E38
ENDCHAR
STARTCHAR uni0403
ENCODING 1027
SWIDTH 557 0
DWIDTH 12 0
BBX 10 20 2 0
BITMAP
0700
0E00
1C00
0000
FFC0
FFC0
C000
C000
C000
C000
C000
C000
C000
C000
C000
C000
C000
C000
C000
C000
ENDCHAR
STARTCHAR uni0404
ENCODING 1028
SWIDTH 668 0
DWIDTH 15 0
BBX 13 16 1 0
BITMAP
0F80
3FE0
3870
7030
6038
E000
E000
FF00
FF00
E000
E000
6038
7030
3870
3FE0
0F80
ENDCHAR
STARTCHAR uni0405
ENCODING 1029
SWIDTH 603 0
DWIDTH 13 0
BBX 11 16 1 0
BITMAP
1F00
7FC0
70E0
E0E0
E060
E000
7800
3F00
0F80
01E0
00E0
C060
E060
F0E0
7FC0
1F80
ENDCHAR
STARTCHAR uni0406
ENCODING 1030
SWIDTH 282 0
DWIDTH 6 0
BBX 2 16 2 0
BITMAP
C0
C0
C0
C0
C0
C0
C0
C0
C0
C0
C0
C0
C0
C0
C0
C0
ENDCHAR
STARTCHAR uni0407
ENCODING 1031
SWIDTH 282 0
DWIDTH 6 0
BBX 8 20 -1 0
BITMAP
63
E7
63
00
18
18
18
18
18
18
18
18
18
18
18
18
18
18
18
18
ENDCHAR
STARTCHAR uni0408
ENCODING 1032
SWIDTH 555 0
DWIDTH 12 0
BBX 11 16 0 0
BITMAP
00E0
00E0
00E0
00E0
00E0
00E0
00E0
00E0
00E0
00E0
00E0
E0E0
E0C0
71C0
7F80
1F00
ENDCHAR
STARTCHAR uni0409
ENCODING 1033
SWIDTH 1066 0
DWIDTH 23 0
BBX 22 16 0 0
BITMAP
0FFC00
0FFC00
1C1C00
1C1C00
1C1C00
1C1C00
1C1FF0
1C1FF8
1C1C1C
1C1C1C
1C1C0C
1C1C0C
181C1C
381C1C
F01FF8
E01FF0
ENDCHAR
STARTCHAR uni040A
ENCODING 1034
SWIDTH 1069 0
DWIDTH 24 0
BBX 21 16 2 0
BITMAP
E07000
E07000
E07000
E07000
E07000
E07000
E07FC0
FFFFF0
FFF070
E07038
E07038
E07038
E07038
E07070
E07FF0
E07FC0
ENDCHAR
STARTCHAR uni040B
ENCODING 1035
SWIDTH 794 0
DWIDTH 17 0
BBX 15 16 1 0
BITMAP
FFF0
FFF0
0C00
0C00
0C00
0C00
0FF0
0FFC
0C1C
0C0E
0C0E
0C0E
0C0E
0C0E
0C0E
0C0E
ENDCHAR
STARTCHAR uni040C
ENCODING 1036
SWIDTH 630 0
DWIDTH 14 0
BBX 12 20 2 0
BITMAP
0700
0E00
1C00
0000
C0F0
C1C0
C3C0
C380
C700
CE00
DC00
FC00
FE00
FF00
E700
C380
C3C0
C1C0
C0E0
C0F0
ENDCHAR
STARTCHAR uni040D
ENCODING 1037
SWIDTH 707 0
DWIDTH 16 0
BBX 12 20 2 0
BITMAP
3800
0C00
0E00
0000
C070
C0F0
C0F0
C1F0
C3F0
C3F0
C770
C670
CE70
DC70
DC70
F870
F070
F070
E070
E070
ENDCHAR
STARTCHAR uni040E
ENCODING 1038
SWIDTH 629 0
DWIDTH 14 0
BBX 12 20 1 0
BITMAP
19C0
1F80
0F00
0000
E070
E070
70E0
70E0
38E0
39C0
1DC0
1D80
0F80
0F00
0700
0700
0600
0E00
3C00
3800
ENDCHAR
STARTCHAR uni040F
ENCODING 1039
SWIDTH 708 0
DWIDTH 16 0
BBX 12 20 2 -4
BITMAP
C070
C070
C070
C070
C070
C070
C070
C070
C070
C070
C070
C070
C070
C070
FFF0
FFF0
0E00
0E00
0E00
0E00
ENDCHAR
STARTCHAR uni0410
ENCODING 1040
SWIDTH 665 0
DWIDTH 15 0
BBX 14 16 0 0
BITMAP
0380
0380
0780
07C0
0EC0
0EE0
0CE0
1C60
1C70
1870
3FF0
3FF8
7018
701C
601C
E01C
ENDCHAR
STARTCHAR uni0411
ENCODING 1041
SWIDTH 628 0
DWIDTH 14 0
BBX 11 16 2 0
BITMAP
FFC0
FFC0
C000
C000
C000
C000
FF00
FFC0
C1E0
C0E0
C0E0
C0E0
C0E0
C1E0
FFC0
FF00
ENDCHAR
STARTCHAR uni0412
ENCODING 1042
SWIDTH 630 0
DWIDTH 14 0
BBX 11 16 2 0
BITMAP
FF00
FF80
C1C0
C0C0
C0C0
C0C0
C1C0
FF80
FF80
C1C0
C0E0
C0E0
C0E0
C1C0
FFC0
FF00
ENDCHAR
STARTCHAR uni0413
ENCODING 1043
SWIDTH 557 0
DWIDTH 12 0
BBX 10 16 2 0
BITMAP
FFC0
FFC0
C000
C000
C000
C000
C000
C000
C000
C000
C000
C000
C000
C000
C000
C000
ENDCHAR
STARTCHAR uni0414
ENCODING 1044
SWIDTH 752 0
DWIDTH 17 0
BBX 15 20 1 -4
BITMAP
1FF8
1FF8
1C18
1C18
1C18
1C18
1C18
1C18
1C18
1818
1818
3818
3818
7018
FFFE
FFFE
C006
C006
C006
C006
ENDCHAR
STARTCHAR uni0415
ENCODING 1045
SWIDTH 565 0
DWIDTH 12 0
BBX 10 16 2 0
BITMAP
FFC0
FFC0
C000
C000
C000
C000
C000
FF80
FF80
C000
C000
C000
C000
C000
FFC0
FFC0
ENDCHAR
STARTCHAR uni0416
ENCODING 1046
SWIDTH 954 0
DWIDTH 21 0
BBX 21 16 0 0
BITMAP
707078
787070
3870E0
1C71C0
1C71C0
0E7380
067380
07FF00
07FF00
0E7380
0E71C0
1C71C0
3C70E0
3870E0
707070
F07078
ENDCHAR
STARTCHAR uni0417
ENCODING 1047
SWIDTH 604 0
DWIDTH 13 0
BBX 11 16 1 0
BITMAP
1F00
7FC0
E1E0
E0E0
00E0
00C0
0F80
0FC0
01E0
00E0
00E0
C0E0
E0E0
F1E0
7FC0
1F00
ENDCHAR
STARTCHAR uni0418
ENCODING 1048
SWIDTH 707 0
DWIDTH 16 0
BBX 12 16 2 0
BITMAP
C070
C0F0
C0F0
C1F0
C3F0
C3F0
C770
C670
CE70
DC70
DC70
F870
F070
F070
E070
E070
ENDCHAR
STARTCHAR uni0419
ENCODING 1049
SWIDTH 707 0
DWIDTH 16 0
BBX 12 20 2 0
BITMAP
3180
1F80
0F00
0000
C070
C0F0
C0F0
C1F0
C3F0
C3F0
C770
C670
CE70
DC70
DC70
F870
F070
F070
E070
E070
ENDCHAR
STARTCHAR uni041A
ENCODING 1050
SWIDTH 644 0
DWIDTH 14 0
BBX 12 16 2 0
BITMAP
C0F0
C1E0
C1C0
C380
C380
C700
CE00
FE00
FE00
C700
C700
C380
C1C0
C1C0
C0E0
C070
ENDCHAR
STARTCHAR uni041B
ENCODING 1051
SWIDTH 707 0
DWIDTH 16 0
BBX 13 16 1 0
BITMAP
1FF8
1FF8
1C38
1838
1838
1838
1838
1838
1838
1838
3838
3838
3838
7038
F038
E038
ENDCHAR
STARTCHAR uni041C
ENCODING 1052
SWIDTH 875 0
DWIDTH 19 0
BBX 16 16 2 0
BITMAP
E00F
F00F
F01F
F01F
F83F
D83F
DC37
DC77
CC67
CE67
C6E7
C6C7
C7C7
C3C7
C387
C387
ENDCHAR
STARTCHAR uni041D
ENCODING 1053
SWIDTH 710 0
DWIDTH 16 0
BBX 12 16 2 0
BITMAP
C070
C070
C070
C070
C070
C070
C070
FFF0
FFF0
C070
C070
C070
C070
C070
C070
C070
ENDCHAR
STARTCHAR uni041E
ENCODING 1054
SWIDTH 690 0
DWIDTH 15 0
BBX 13 16 1 0
BITMAP
0F80
3FE0
78F0
7070
E038
E038
E038
E038
E038
E038
E038
E038
7070
78F0
3FE0
0F80
ENDCHAR
STARTCHAR uni041F
ENCODING 1055
SWIDTH 711 0
DWIDTH 16 0
BBX 12 16 2 0
BITMAP
FFF0
FFF0
C070
C070
C070
C070
C070
C070
C070
C070
C070
C070
C070
C070
C070
C070
ENDCHAR
STARTCHAR uni0420
ENCODING 1056
SWIDTH 639 0
DWIDTH 14 0
BBX 11 16 2 0
BITMAP
FF00
FFC0
C1E0
C0E0
C0E0
C0E0
C0E0
C1E0
FFC0
FF00
C000
C000
C000
C000
C000
C000
ENDCHAR
STARTCHAR uni0421
ENCODING 1057
SWIDTH 652 0
DWIDTH 14 0
BBX 12 16 1 0
BITMAP
0F80
3FE0
70F0
6070
E030
E000
E000
E000
E000
E000
E000
E030
6070
70F0
3FE0
0F80
ENDCHAR
STARTCHAR uni0422
ENCODING 1058
SWIDTH 606 0
DWIDTH 13 0
BBX 13 16 0 0
BITMAP
FFF8
FFF8
0700
0700
0700
0700
0700
0700
0700
0700
0700
0700
0700
0700
0700
0700
ENDCHAR
STARTCHAR uni0423
ENCODING 1059
SWIDTH 629 0
DWIDTH 14 0
BBX 12 16 1 0
BITMAP
E070
E070
70E0
70E0
38E0
39C0
1DC0
1D80
0F80
0F00
0700
0700
0600
0E00
3C00
3800
ENDCHAR
STARTCHAR uni0424
ENCODING 1060
SWIDTH 796 0
DWIDTH 18 0
BBX 16 17 1 -1
BITMAP
0180
0180
0FF0
3FFC
718E
6186
E187
E187
E187
E187
E187
6186
718E
3FFC
0FF0
0180
0180
ENDCHAR
STARTCHAR uni0425
ENCODING 1061
SWIDTH 632 0
DWIDTH 14 0
BBX 14 16 0 0
BITMAP
7038
7870
3870
1CE0
1CE0
0FC0
0FC0
0780
0780
0FC0
0FC0
1CE0
1CE0
3870
7078
F03C
ENDCHAR
STARTCHAR uni0426
ENCODING 1062
SWIDTH 746 0
DWIDTH 16 0
BBX 14 20 2 -4
BITMAP
C070
C070
C070
C070
C070
C070
C070
C070
C070
C070
C070
C070
C070
C070
FFFC
FFFC
001C
001C
001C
001C
ENDCHAR
STARTCHAR uni0427
ENCODING 1063
SWIDTH 691 0
DWIDTH 15 0
BBX 12 16 2 0
BITMAP
C070
C070
C070
C070
C070
C070
C070
E070
7FF0
3FF0
0070
0070
0070
0070
0070
0070
ENDCHAR
STARTCHAR uni0428
ENCODING 1064
SWIDTH 950 0
DWIDTH 21 0
BBX 17 16 2 0
BITMAP
C1C180
C1C180
C1C180
C1C180
C1C180
C1C180
C1C180
C1C180
C1C180
C1C180
C1C180
C1C180
C1C180
C1C180
FFFF80
FFFF80
ENDCHAR
STARTCHAR uni0429
ENCODING 1065
SWIDTH 996 0
DWIDTH 22 0
BBX 19 20 2 -4
BITMAP
C1C180
C1C180
C1C180
C1C180
C1C180
C1C180
C1C180
C1C180
C1C180
C1C180
C1C180
C1C180
C1C180
C1C180
FFFFE0
FFFFE0
000060
000060
000060
000060
ENDCHAR
STARTCHAR uni042A
ENCODING 1066
SWIDTH 762 0
DWIDTH 17 0
BBX 16 16 0 0
BITMAP
FE00
FE00
0600
0600
0600
0600
07F8
07FE
060F
0607
0607
0607
0607
060F
07FE
07F8
ENDCHAR
STARTCHAR uni042B
ENCODING 1067
SWIDTH 871 0
DWIDTH 19 0
BBX 15 16 2 0
BITMAP
C006
C006
C006
C006
C006
C006
FF06
FFC6
C1E6
C0E6
C0E6
C0E6
C0E6
C1C6
FFC6
FF06
ENDCHAR
STARTCHAR uni042C
ENCODING 1068
SWIDTH 628 0
DWIDTH 14 0
BBX 11 16 2 0
BITMAP
C000
C000
C000
C000
C000
C000
FF00
FFC0
C1E0
C0E0
C0E0
C0E0
C0E0
C1E0
FFC0
FF00
ENDCHAR
STARTCHAR uni042D
ENCODING 1069
SWIDTH 664 0
DWIDTH 15 0
BBX 13 16 1 0
BITMAP
0F80
3FE0
70E0
7070
E030
0038
0038
07F8
07F8
0038
0038
E030
7070
70E0
3FE0
0F80
ENDCHAR
STARTCHAR uni042E
ENCODING 1070
SWIDTH 916 0
DWIDTH 20 0
BBX 17 16 2 0
BITMAP
C0F800
C1FE00
C38700
C70300
C60380
CE0380
CE0380
FE0180
FE0180
CE0380
CE0380
C60380
C70300
C38700
C1FE00
C0F800
ENDCHAR
STARTCHAR uni042F
ENCODING 1071
SWIDTH 620 0
DWIDTH 14 0
BBX 11 16 1 0
BITMAP
1FE0
3FE0
70E0
E0E0
E0E0
E0E0
60E0
70E0
3FE0
1FE0
38E0
38E0
70E0
70E0
E0E0
E0E0
ENDCHAR
STARTCHAR uni0430
ENCODING 1072
SWIDTH 541 0
DWIDTH 12 0
BBX 10 12 1 0
BITMAP
1E00
7F80
6380
E1C0
01C0
3FC0
7FC0
E1C0
E1C0
E3C0
7FC0
3DC0
ENDCHAR
STARTCHAR uni0431
ENCODING 1073
SWIDTH 561 0
DWIDTH 12 0
BBX 10 17 1 0
BITMAP
01C0
0780
1F80
3E00
7000
6000
DF00
FF80
F1C0
E0C0
C0C0
C0C0
C0C0
E1C0
71C0
7F80
1F00
ENDCHAR
STARTCHAR uni0432
ENCODING 1074
SWIDTH 569 0
DWIDTH 13 0
BBX 10 12 2 0
BITMAP
FE00
FF80
C380
C180
C380
FF00
FF80
C1C0
C1C0
C1C0
FF80
FF00
ENDCHAR
STARTCHAR uni0433
ENCODING 1075
SWIDTH 418 0
DWIDTH 9 0
BBX 8 12 1 0
BITMAP
FF
FF
E0
E0
E0
E0
E0
E0
E0
E0
E0
E0
ENDCHAR
STARTCHAR uni0434
ENCODING 1076
SWIDTH 620 0
DWIDTH 14 0
BBX 12 15 1 -3
BITMAP
1FE0
1FE0
18E0
38E0
38E0
38E0
38E0
38E0
30E0
70E0
FFF0
FFF0
C030
C030
C030
ENDCHAR
STARTCHAR uni0435
ENCODING 1077
SWIDTH 536 0
DWIDTH 12 0
BBX 10 12 1 0
BITMAP
1F00
3F80
71C0
E1C0
E0C0
FFC0
FFC0
E000
E080
70C0
3F80
1F00
ENDCHAR
STARTCHAR uni0436
ENCODING 1078
SWIDTH 807 0
DWIDTH 18 0
BBX 17 12 0 0
BITMAP
70C380
78C700
38C700
1CCE00
1CCC00
0FFC00
0FFC00
1CCE00
18CE00
38C700
70C780
F0C380
ENDCHAR
STARTCHAR uni0437
ENCODING 1079
SWIDTH 510 0
DWIDTH 11 0
BBX 9 12 1 0
BITMAP
3E00
7F00
E380
C380
0380
1F00
1F00
0380
C180
E380
FF80
3E00
ENDCHAR
STARTCHAR uni0438
ENCODING 1080
SWIDTH 574 0
DWIDTH 13 0
BBX 10 12 1 0
BITMAP
E1C0
E1C0
E3C0
E3C0
E6C0
EEC0
ECC0
FCC0
F8C0
F0C0
F0C0
E0C0
ENDCHAR
STARTCHAR uni0439
ENCODING 1081
SWIDTH 574 0
DWIDTH 13 0
BBX 10 16 1 0
BITMAP
3180
3F00
1E00
0000
E1C0
E1C0
E3C0
E3C0
E6C0
EEC0
ECC0
FCC0
F8C0
F0C0
F0C0
E0C0
ENDCHAR
STARTCHAR uni043A
ENCODING 1082
SWIDTH 553 0
DWIDTH 12 0
BBX 10 12 2 0
BITMAP
C3C0
C780
C700
CE00
DC00
FC00
FC00
CE00
C700
C700
C380
C3C0
ENDCHAR
STARTCHAR uni043B
ENCODING 1083
SWIDTH 575 0
DWIDTH 13 0
BBX 10 12 1 0
BITMAP
3FC0
3FC0
30C0
30C0
30C0
30C0
30C0
30C0
70C0
70C0
E0C0
C0C0
ENDCHAR
STARTCHAR uni043C
ENCODING 1084
SWIDTH 751 0
DWIDTH 17 0
BBX 13 12 2 0
BITMAP
E078
E078
F078
F0F8
F8F8
D9F8
D9B8
CDB8
CFB8
CF38
C738
C638
ENDCHAR
STARTCHAR uni043D
ENCODING 1085
SWIDTH 573 0
DWIDTH 13 0
BBX 10 12 1 0
BITMAP
E0C0
E0C0
E0C0
E0C0
E0C0
FFC0
FFC0
E0C0
E0C0
E0C0
E0C0
E0C0
ENDCHAR
STARTCHAR uni043E
ENCODING 1086
SWIDTH 569 0
DWIDTH 13 0
BBX 11 12 1 0
BITMAP
1F00
3F80
71C0
E0E0
E0E0
E0E0
E0E0
E0E0
E0E0
71C0
3F80
1F00
ENDCHAR
STARTCHAR uni043F
ENCODING 1087
SWIDTH 574 0
DWIDTH 13 0
BBX 10 12 1 0
BITMAP
FFC0
FFC0
E0C0
E0C0
E0C0
E0C0
E0C0
E0C0
E0C0
E0C0
E0C0
E0C0
ENDCHAR
STARTCHAR uni0440
ENCODING 1088
SWIDTH 562 0
DWIDTH 12 0
BBX 10 16 1 -4
BITMAP
EF00
FF80
E1C0
E1C0
E0C0
E0C0
E0C0
E0C0
E1C0
E1C0
FF80
EF00
E000
E000
E000
E000
ENDCHAR
STARTCHAR uni0441
ENCODING 1089
SWIDTH 523 0
DWIDTH 12 0
BBX 10 12 1 0
BITMAP
1F00
3F80
71C0
E0C0
E000
E000
E000
E000
E0C0
71C0
3F80
1F00
ENDCHAR
STARTCHAR uni0442
ENCODING 1090
SWIDTH 494 0
DWIDTH 11 0
BBX 10 12 0 0
BITMAP
FFC0
FFC0
0E00
0E00
0E00
0E00
0E00
0E00
0E00
0E00
0E00
0E00
ENDCHAR
STARTCHAR uni0443
ENCODING 1091
SWIDTH 486 0
DWIDTH 11 0
BBX 11 16 0 -4
BITMAP
E0E0
71C0
71C0
3180
3980
3B80
1B00
1B00
1F00
0E00
0E00
0E00
0C00
1C00
7800
7000
ENDCHAR
STARTCHAR uni0444
ENCODING 1092
SWIDTH 728 0
DWIDTH 16 0
BBX 14 21 1 -4
BITMAP
0300
0300
0300
0300
0300
3FF0
7FF8
7338
E31C
E31C
E31C
E31C
E31C
E31C
E31C
7FF8
3FF0
0300
0300
0300
0300
ENDCHAR
STARTCHAR uni0445
ENCODING 1093
SWIDTH 502 0
DWIDTH 11 0
BBX 11 12 0 0
BITMAP
F1E0
71C0
3B80
1B80
1F00
0E00
0E00
1F00
3B80
3B80
71C0
F0E0
ENDCHAR
STARTCHAR uni0446
ENCODING 1094
SWIDTH 603 0
DWIDTH 13 0
BBX 12 15 1 -3
BITMAP
E0C0
E0C0
E0C0
E0C0
E0C0
E0C0
E0C0
E0C0
E0C0
E0C0
FFF0
FFF0
0070
0070
0070
ENDCHAR
STARTCHAR uni0447
ENCODING 1095
SWIDTH 549 0
DWIDTH 12 0
BBX 10 12 1 0
BITMAP
E1C0
E1C0
E1C0
E1C0
E1C0
E1C0
7FC0
3FC0
01C0
01C0
01C0
01C0
ENDCHAR
STARTCHAR uni0448
ENCODING 1096
SWIDTH 819 0
DWIDTH 18 0
BBX 16 12 1 0
BITMAP
E187
E187
E187
E187
E187
E187
E187
E187
E187
E187
FFFF
FFFF
ENDCHAR
STARTCHAR uni0449
ENCODING 1097
SWIDTH 865 0
DWIDTH 19 0
BBX 17 15 1 -3
BITMAP
E18600
E18600
E18600
E18600
E18600
E18600
E18600
E18600
E18600
E18600
FFFF80
FFFF80
000180
000180
000180
ENDCHAR
STARTCHAR uni044A
ENCODING 1098
SWIDTH 636 0
DWIDTH 14 0
BBX 14 12 0 0
BITMAP
FC00
FC00
0C00
0C00
0FE0
0FF8
0C38
0C18
0C1C
0C38
0FF8
0FE0
ENDCHAR
STARTCHAR uni044B
ENCODING 1099
SWIDTH 804 0
DWIDTH 18 0
BBX 14 12 2 0
BITMAP
C01C
C01C
C01C
C01C
FE1C
FF9C
C39C
C19C
C1DC
C39C
FF9C
FE1C
ENDCHAR
STARTCHAR uni044C
ENCODING 1100
SWIDTH 550 0
DWIDTH 12 0
BBX 10 12 1 0
BITMAP
E000
E000
E000
E000
FF00
FF80
E1C0
E0C0
E0C0
E1C0
FF80
FF00
ENDCHAR
STARTCHAR uni044D
ENCODING 1101
SWIDTH 529 0
DWIDTH 12 0
BBX 10 12 1 0
BITMAP
3E00
7F00
E380
E1C0
01C0
0FC0
0FC0
01C0
E1C0
E380
7F00
3E00
ENDCHAR
STARTCHAR uni044E
ENCODING 1102
SWIDTH 814 0
DWIDTH 18 0
BBX 15 12 2 0
BITMAP
C1F0
C3FC
C71C
C60E
CE0E
FE06
FE06
CE0E
C60E
C71C
C3FC
C1F0
ENDCHAR
STARTCHAR uni044F
ENCODING 1103
SWIDTH 554 0
DWIDTH 12 0
BBX 11 12 0 0
BITMAP
1FE0
3FE0
70E0
70E0
60E0
70E0
3FE0
1FE0
38E0
38E0
70E0
E0E0
ENDCHAR
STARTCHAR uni0450
ENCODING 1104
SWIDTH 536 0
DWIDTH 12 0
BBX 10 16 1 0
BITMAP
7800
1800
0C00
0000
1F00
3F80
71C0
E1C0
E0C0
FFC0
FFC0
E000
E080
70C0
3F80
1F00
ENDCHAR
STARTCHAR uni0451
ENCODING 1105
SWIDTH 536 0
DWIDTH 12 0
BBX 10 16 1 0
BITMAP
7300
7380
7300
0000
1F00
3F80
71C0
E1C0
E0C0
FFC0
FFC0
E000
E080
70C0
3F80
1F00
ENDCHAR
STARTCHAR uni0452
ENCODING 1106
SWIDTH 555 0
DWIDTH 12 0
BBX 12 21 -1 -4
BITMAP
3800
3800
FF00
FF00
3800
3BC0
3FE0
3C70
3870
3870
3870
3870
3870
3870
3870
3870
3870
0070
0070
01E0
01C0
ENDCHAR
STARTCHAR uni0453
ENCODING 1107
SWIDTH 418 0
DWIDTH 9 0
BBX 8 16 1 0
BITMAP
0E
1C
38
00
FF
FF
E0
E0
E0
E0
E0
E0
E0
E0
E0
E0
ENDCHAR
STARTCHAR uni0454
ENCODING 1108
SWIDTH 529 0
DWIDTH 12 0
BBX 10 12 1 0
BITMAP
1F00
3F80
71C0
E0C0
E000
FC00
FC00
E000
E0C0
71C0
3F80
1F00
ENDCHAR
STARTCHAR uni0455
ENCODING 1109
SWIDTH 516 0
DWIDTH 11 0
BBX 9 12 1 0
BITMAP
3E00
7F00
E380
E180
E000
7E00
1F00
0380
C180
E380
7F80
3E00
ENDCHAR
STARTCHAR uni0456
ENCODING 1110
SWIDTH 255 0
DWIDTH 6 0
BBX 3 17 1 0
BITMAP
60
E0
60
00
00
60
60
60
60
60
60
60
60
60
60
60
60
ENDCHAR
STARTCHAR uni0457
ENCODING 1111
SWIDTH 262 0
DWIDTH 6 0
BBX 8 16 -1 0
BITMAP
E6
E7
E6
00
18
18
18
18
18
18
18
18
18
18
18
18
ENDCHAR
STARTCHAR uni0458
ENCODING 1112
SWIDTH 250 0
DWIDTH 6 0
BBX 5 21 -1 -4
BITMAP
18
38
18
00
00
18
18
18
18
18
18
18
18
18
18
18
18
18
38
F8
F0
ENDCHAR
STARTCHAR uni0459
ENCODING 1113
SWIDTH 852 0
DWIDTH 19 0
BBX 18 12 0 0
BITMAP
1FE000
1FE000
18E000
18E000
18FF00
18FF80
18E1C0
18E0C0
38E0C0
38E1C0
F0FF80
E0FF00
ENDCHAR
STARTCHAR uni045A
ENCODING 1114
SWIDTH 861 0
DWIDTH 19 0
BBX 17 12 1 0
BITMAP
E0C000
E0C000
E0C000
E0C000
E0FE00
FFFF80
FFC380
E0C180
E0C180
E0C380
E0FF80
E0FE00
ENDCHAR
STARTCHAR uni045B
ENCODING 1115
SWIDTH 566 0
DWIDTH 12 0
BBX 11 17 0 0
BITMAP
7000
7000
FE00
FE00
7000
7780
7FC0
70C0
70E0
70E0
70E0
70E0
70E0
70E0
70E0
70E0
70E0
ENDCHAR
STARTCHAR uni045C
ENCODING 1116
SWIDTH 553 0
DWIDTH 12 0
BBX 10 16 2 0
BITMAP
0F00
0C00
1800
0000
C3C0
C780
C700
CE00
DC00
FC00
FC00
CE00
C700
C700
C380
C3C0
ENDCHAR
STARTCHAR uni045D
ENCODING 1117
SWIDTH 574 0
DWIDTH 13 0
BBX 10 16 1 0
BITMAP
3800
1C00
0E00
0000
E1C0
E1C0
E3C0
E3C0
E6C0
EEC0
ECC0
FCC0
F8C0
F0C0
F0C0
E0C0
ENDCHAR
STARTCHAR uni045E
ENCODING 1118
SWIDTH 486 0
DWIDTH 11 0
BBX 11 20 0 -4
BITMAP
3180
3F80
1F00
0000
E0E0
71C0
71C0
3180
3980
3B80
1B00
1B00
1F00
0E00
0E00
0E00
0C00
1C00
7800
7000
ENDCHAR
STARTCHAR uni045F
ENCODING 1119
SWIDTH 574 0
DWIDTH 13 0
BBX 10 16 1 -4
BITMAP
E0C0
E0C0
E0C0
E0C0
E0C0
E0C0
E0C0
E0C0
E0C0
E0C0
FFC0
FFC0
0E00
0E00
0E00
0E00
ENDCHAR
STARTCHAR uni0460
ENCODING 1120
SWIDTH 910 0
DWIDTH 20 0
BBX 18 16 1 0
BITMAP
E0C1C0
E0C1C0
E0C1C0
E0C1C0
E0C1C0
E0C1C0
E0C1C0
E0C1C0
E0C1C0
E0C1C0
E0C1C0
E0C1C0
61E180
71E380
3FFF00
1F3E00
ENDCHAR
STARTCHAR uni0461
ENCODING 1121
SWIDTH 788 0
DWIDTH 17 0
BBX 15 12 1 0
BITMAP
E38E
E38E
E38E
E38E
E38E
E38E
E38E
E38E
E38E
E38E
7FFC
3C78
ENDCHAR
STARTCHAR uni0462
ENCODING 1122
SWIDTH 628 0
DWIDTH 14 0
BBX 13 16 0 0
BITMAP
3000
3000
FE00
FE00
3000
3000
3FC0
3FF0
3078
3038
3038
3038
3038
3078
3FF0
3FC0
ENDCHAR
STARTCHAR uni0463
ENCODING 1123
SWIDTH 550 0
DWIDTH 12 0
BBX 11 17 0 0
BITMAP
7000
7000
7000
FE00
FE00
7000
7000
7000
7000
7F80
7FC0
70E0
7060
7060
70E0
7FC0
7F80
ENDCHAR
STARTCHAR uni0464
ENCODING 1124
SWIDTH 894 0
DWIDTH 20 0
BBX 17 16 2 0
BITMAP
E0FC00
E1FE00
E38700
E70300
E70380
E60000
EE0000
FFF000
FFF000
EE0000
E60000
E70380
E70300
E38700
E1FE00
E0FC00
ENDCHAR
STARTCHAR uni0465
ENCODING 1125
SWIDTH 750 0
DWIDTH 17 0
BBX 14 12 2 0
BITMAP
C1F0
C7F8
C71C
CE1C
CE00
FFE0
FFE0
CE00
CE1C
C71C
C7F8
C1F0
ENDCHAR
STARTCHAR uni0466
ENCODING 1126
SWIDTH 630 0
DWIDTH 14 0
BBX 14 16 0 0
BITMAP
0380
0780
0780
07C0
0FC0
0EC0
0CE0
1CE0
1C60
1FF0
3FF0
3B30
3338
7338
7318
E31C
ENDCHAR
STARTCHAR uni0467
ENCODING 1127
SWIDTH 546 0
DWIDTH 12 0
BBX 12 12 0 0
BITMAP
0E00
0F00
0F00
1F00
1B80
1980
39C0
3FC0
7FC0
76E0
6660
E670
ENDCHAR
STARTCHAR uni0468
ENCODING 1128
SWIDTH 907 0
DWIDTH 20 0
BBX 18 16 2 0
BITMAP
E07000
E07800
E07800
E0F800
E0FC00
E0CC00
E1CE00
E1CE00
E18600
FFFF00
FFFF00
E33300
E73380
E73380
E63380
EE31C0
ENDCHAR
STARTCHAR uni0469
ENCODING 1129
SWIDTH 776 0
DWIDTH 17 0
BBX 15 12 2 0
BITMAP
C1C0
C1E0
C1E0
C3F0
C370
C330
C738
FFF8
FFF8
CEDC
CCCC
DCCE
ENDCHAR
STARTCHAR uni046A
ENCODING 1130
SWIDTH 865 0
DWIDTH 19 0
BBX 17 16 1 0
BITMAP
3FFE00
1FFC00
1C1C00
0E3800
063800
077000
037000
1FFC00
7FFF00
71C700
61C380
E1C380
E1C380
E1C380
E1C380
E1C380
ENDCHAR
STARTCHAR uni046B
ENCODING 1131
SWIDTH 737 0
DWIDTH 16 0
BBX 14 12 1 0
BITMAP
3FF8
1FF0
1CE0
0CC0
0FC0
1FE0
7FF8
7338
E31C
E31C
E31C
E31C
ENDCHAR
STARTCHAR uni046C
ENCODING 1132
SWIDTH 1149 0
DWIDTH 25 0
BBX 22 16 2 0
BITMAP
C1FFF0
C0FFF0
C0F0E0
C070C0
C039C0
C03B80
C01F80
FFFFE0
FFFFF8
C38E38
C30E1C
C70E1C
C70E1C
C70E1C
C70E1C
C70E1C
ENDCHAR
STARTCHAR uni046D
ENCODING 1133
SWIDTH 996 0
DWIDTH 22 0
BBX 19 12 2 0
BITMAP
C3FF80
C1FF00
C0E700
C06600
C07E00
FFFF00
FFFFC0
C319C0
C718C0
C718E0
C718E0
C718E0
ENDCHAR
STARTCHAR uni046E
ENCODING 1134
SWIDTH 515 0
DWIDTH 11 0
BBX 10 25 0 -4
BITMAP
3380
1F00
0E00
0000
0000
7E00
7F80
0380
01C0
0180
0380
1F00
1F00
0380
01C0
01C0
01C0
01C0
0380
3F80
7E00
E000
E000
7000
3000
ENDCHAR
STARTCHAR uni046F
ENCODING 1135
SWIDTH 492 0
DWIDTH 11 0
BBX 9 21 1 -4
BITMAP
E700
3C00
1800
0000
0000
FC00
FF00
0700
0300
0700
3E00
3F00
0380
0380
0380
7F00
FE00
C000
C000
E000
3000
ENDCHAR
STARTCHAR uni0470
ENCODING 1136
SWIDTH 708 0
DWIDTH 16 0
BBX 14 16 1 0
BITMAP
E31C
E31C
E31C
E31C
E31C
E31C
E31C
E31C
6318
7338
3FF0
0FC0
0300
0300
0300
0300
ENDCHAR
STARTCHAR uni0471
ENCODING 1137
SWIDTH 723 0
DWIDTH 16 0
BBX 14 17 1 -5
BITMAP
E338
E31C
E31C
E31C
E31C
E30C
E30C
E31C
E31C
7338
3FF0
0FC0
0300
0300
0300
0300
0300
ENDCHAR
STARTCHAR uni0472
ENCODING 1138
SWIDTH 684 0
DWIDTH 15 0
BBX 13 16 1 0
BITMAP
0F80
3FE0
78F0
7070
E038
E038
E038
FFF8
FFF8
E038
E038
E038
7070
78F0
3FE0
0F80
ENDCHAR
STARTCHAR uni0473
ENCODING 1139
SWIDTH 566 0
DWIDTH 12 0
BBX 10 12 1 0
BITMAP
1E00
7F80
E1C0
E1C0
C0C0
FFC0
FFC0
C0C0
E1C0
E1C0
7F80
1E00
ENDCHAR
STARTCHAR uni0474
ENCODING 1140
SWIDTH 637 0
DWIDTH 14 0
BBX 14 16 0 0
BITMAP
E01C
603C
7030
7030
3070
3860
3860
18E0
1CC0
1CC0
0DC0
0DC0
0F80
0780
0780
0700
ENDCHAR
STARTCHAR uni0475
ENCODING 1141
SWIDTH 506 0
DWIDTH 11 0
BBX 11 12 0 0
BITMAP
E0E0
60E0
71C0
7180
3380
3380
3B00
1B00
1F00
1E00
0E00
0E00
ENDCHAR
STARTCHAR uni0476
ENCODING 1142
SWIDTH 637 0
DWIDTH 14 0
BBX 14 20 0 0
BITMAP
7700
1B80
0DC0
0000
E01C
603C
7030
7030
3070
3860
3860
18E0
1CC0
1CC0
0DC0
0DC0
0F80
0780
0780
0700
ENDCHAR
STARTCHAR uni0477
ENCODING 1143
SWIDTH 506 0
DWIDTH 11 0
BBX 11 16 0 0
BITMAP
EE00
7700
1B80
0000
E0E0
60E0
71C0
7180
3380
3380
3B00
1B00
1F00
1E00
0E00
0E00
ENDCHAR
STARTCHAR uni0478
ENCODING 1144
SWIDTH 1177 0
DWIDTH 26 0
BBX 25 20 1 -4
BITMAP
0F800000
3FE00000
78F00000
70700000
E03B8380
E039C300
E039C700
E038C700
E038E600
E038EE00
E0386E00
E0387C00
70707C00
78F03C00
3FE03800
0F801800
00003000
00003000
0001F000
0001E000
ENDCHAR
STARTCHAR uni0479
ENCODING 1145
SWIDTH 1056 0
DWIDTH 23 0
BBX 22 16 1 -4
BITMAP
1F0E1C
3F8E1C
71C618
E0E738
E0E738
E0E330
E0E3F0
E0E3F0
E0E1E0
71C1E0
3F80E0
1F00C0
0001C0
000180
000780
000700
ENDCHAR
STARTCHAR uni047A
ENCODING 1146
SWIDTH 684 0
DWIDTH 15 0
BBX 13 18 1 -1
BITMAP
0700
0F80
3FE0
7770
7070
E038
E038
E038
E038
E038
E038
E038
E038
7070
7770
3FE0
0F80
0700
ENDCHAR
STARTCHAR uni047B
ENCODING 1147
SWIDTH 566 0
DWIDTH 12 0
BBX 10 14 1 -1
BITMAP
0C00
1F00
7F80
EDC0
E1C0
C0C0
C0C0
C0C0
C0C0
E1C0
EDC0
7F80
1F00
0C00
ENDCHAR
STARTCHAR uni047C
ENCODING 1148
SWIDTH 908 0
DWIDTH 20 0
BBX 17 20 1 0
BITMAP
03E000
023C00
00C000
00C000
188600
380700
700380
600180
600180
E00180
E00180
E0C180
E0C180
E0C180
E0C180
60C180
61C180
71E380
3FFF00
1F3E00
ENDCHAR
STARTCHAR uni047D
ENCODING 1149
SWIDTH 783 0
DWIDTH 17 0
BBX 15 16 1 0
BITMAP
0780
0C78
0180
0180
3B18
781C
600E
E00E
E00E
E38E
E38E
E38E
E38E
638E
7EFC
3C78
ENDCHAR
STARTCHAR uni047E
ENCODING 1150
SWIDTH 910 0
DWIDTH 20 0
BBX 18 19 1 0
BITMAP
0FFC00
00C000
000000
E0C1C0
E0C1C0
E0C1C0
E0C1C0
E0C1C0
E0C1C0
E0C1C0
E0C1C0
E0C1C0
E0C1C0
E0C1C0
E0C1C0
61E180
71E380
3FFF00
1F3E00
ENDCHAR
STARTCHAR uni047F
ENCODING 1151
SWIDTH 788 0
DWIDTH 17 0
BBX 15 15 1 0
BITMAP
1FF0
0100
0000
E38E
E38E
E38E
E38E
E38E
E38E
E38E
E38E
E38E
E38E
7FFC
3C78
ENDCHAR
STARTCHAR uni0480
ENCODING 1152
SWIDTH 637 0
DWIDTH 14 0
BBX 12 20 1 -4
BITMAP
0F80
3FC0
70E0
7070
E070
E000
E000
E000
E000
E000
E000
E000
7000
7000
3F00
1F00
0700
0700
0700
0700
ENDCHAR
STARTCHAR uni0481
ENCODING 1153
SWIDTH 536 0
DWIDTH 12 0
BBX 10 16 1 -4
BITMAP
1F00
3F80
71C0
E1C0
E000
E000
E000
E000
E000
7000
3E00
1E00
0E00
0E00
0E00
0E00
ENDCHAR
STARTCHAR uni0482
ENCODING 1154
SWIDTH 624 0
DWIDTH 14 0
BBX 12 14 1 0
BITMAP
0060
00C0
1880
0F80
0380
03E0
0670
C600
7C00
1C00
1F00
3380
3000
6000
ENDCHAR
STARTCHAR uni0483
ENCODING 1155
SWIDTH 0 0
DWIDTH 0 0
BBX 8 3 -10 13
BITMAP
03
FF
C0
ENDCHAR
STARTCHAR uni0484
ENCODING 1156
SWIDTH 0 0
DWIDTH 0 0
BBX 8 2 -10 14
BITMAP
1F
F1
ENDCHAR
STARTCHAR uni0485
ENCODING 1157
SWIDTH 0 0
DWIDTH 0 0
BBX 3 4 -7 14
BITMAP
C0
C0
40
60
ENDCHAR
STARTCHAR uni0486
ENCODING 1158
SWIDTH 0 0
DWIDTH 0 0
BBX 2 4 -6 14
BITMAP
C0
C0
C0
80
ENDCHAR
STARTCHAR uni0488
ENCODING 1160
SWIDTH 0 0
DWIDTH 0 0
BBX 21 19 -16 -3
BITMAP
007000
009000
000000
1C01C0
240360
000000
000000
000000
000000
700070
9000D8
000000
000000
000000
3801C0
240360
000000
007000
009800
ENDCHAR
STARTCHAR uni0489
ENCODING 1161
SWIDTH 0 0
DWIDTH 0 0
BBX 20 20 -16 -4
BITMAP
002000
002000
102000
0860C0
0C0380
040100
000000
000000
000000
E00040
300070
000000
000000
000000
000000
040100
0E2300
302080
006080
004000
ENDCHAR
STARTCHAR uni048A
ENCODING 1162
SWIDTH 770 0
DWIDTH 17 0
BBX 14 24 2 -4
BITMAP
3180
1F80
0F00
0000
C070
C0F0
C0F0
C1F0
C3F0
C3F0
C770
C670
CE70
DC70
DC70
F870
F070
F070
E07C
E07C
000C
000C
0018
0018
ENDCHAR
STARTCHAR uni048B
ENCODING 1163
SWIDTH 638 0
DWIDTH 14 0
BBX 13 20 1 -4
BITMAP
3180
3F00
1E00
0000
E1C0
E1C0
E3C0
E3C0
E6C0
EEC0
ECC0
FCC0
F8C0
F0C0
F0F8
E0F8
0030
0030
0030
0060
ENDCHAR
STARTCHAR uni048C
ENCODING 1164
SWIDTH 628 0
DWIDTH 14 0
BBX 13 16 0 0
BITMAP
3000
3000
FE00
FE00
3000
3000
3FC0
3FF0
3078
3038
3038
3038
3038
3078
3FF0
3FC0
ENDCHAR
STARTCHAR uni048D
ENCODING 1165
SWIDTH 550 0
DWIDTH 12 0
BBX 11 18 0 0
BITMAP
7000
7000
FE00
FE00
7000
7000
7000
7000
7000
7000
7F80
7FC0
70E0
7060
7060
70E0
7FC0
7F80
ENDCHAR
STARTCHAR uni048E
ENCODING 1166
SWIDTH 634 0
DWIDTH 14 0
BBX 11 16 2 0
BITMAP
FF00
FFC0
C1E0
C0E0
C060
C260
C3E0
C1E0
FFC0
FFE0
C020
C000
C000
C000
C000
C000
ENDCHAR
STARTCHAR uni048F
ENCODING 1167
SWIDTH 565 0
DWIDTH 12 0
BBX 10 16 1 -4
BITMAP
EF00
FF80
E1C0
E1C0
E0C0
E0C0
E0C0
E2C0
E7C0
E3C0
FF80
EFC0
E080
E000
E000
E000
ENDCHAR
STARTCHAR uni0490
ENCODING 1168
SWIDTH 551 0
DWIDTH 12 0
BBX 11 19 1 0
BITMAP
00E0
00E0
00E0
FFE0
FFE0
E000
E000
E000
E000
E000
E000
E000
E000
E000
E000
E000
E000
E000
E000
ENDCHAR
STARTCHAR uni0491
ENCODING 1169
SWIDTH 453 0
DWIDTH 10 0
BBX 8 15 1 0
BITMAP
03
03
03
FF
FF
E0
E0
E0
E0
E0
E0
E0
E0
E0
E0
ENDCHAR
STARTCHAR uni0492
ENCODING 1170
SWIDTH 557 0
DWIDTH 12 0
BBX 12 16 0 0
BITMAP
3FF0
3FF0
3000
3000
3000
3000
3000
FE00
FE00
3000
3000
3000
3000
3000
3000
3000
ENDCHAR
STARTCHAR uni0493
ENCODING 1171
SWIDTH 418 0
DWIDTH 9 0
BBX 9 12 0 0
BITMAP
7F80
7F80
7000
7000
7000
FE00
FE00
7000
7000
7000
7000
7000
ENDCHAR
STARTCHAR uni0494
ENCODING 1172
SWIDTH 618 0
DWIDTH 14 0
BBX 11 19 2 -3
BITMAP
FFC0
FFC0
E000
E000
E000
E000
E000
FE00
FF80
E1C0
E0C0
E0E0
E0E0
E0E0
E0E0
E0E0
01C0
0780
0700
ENDCHAR
STARTCHAR uni0495
ENCODING 1173
SWIDTH 515 0
DWIDTH 11 0
BBX 9 15 1 -3
BITMAP
FF00
FF00
E000
E000
E000
FC00
FF00
E380
E380
E180
E180
E180
0380
0F00
0600
ENDCHAR
STARTCHAR uni0496
ENCODING 1174
SWIDTH 1013 0
DWIDTH 22 0
BBX 22 20 0 -4
BITMAP
707078
787070
3870E0
1C71C0
1C71C0
0E7380
067380
07FF00
07FF00
0E7380
0E71C0
1C71C0
3C70E0
3870E0
70707C
70707C
80001C
00001C
00001C
00001C
ENDCHAR
STARTCHAR uni0497
ENCODING 1175
SWIDTH 853 0
DWIDTH 19 0
BBX 18 16 0 -4
BITMAP
70C380
78C700
38C700
1CCE00
1CCC00
0FFC00
0FFC00
1CCE00
18CE00
38C700
70C7C0
70C3C0
8000C0
0000C0
0000C0
0000C0
ENDCHAR
STARTCHAR uni0498
ENCODING 1176
SWIDTH 604 0
DWIDTH 13 0
BBX 11 21 1 -5
BITMAP
1F00
7FC0
E1E0
E0E0
00E0
00C0
0F80
0FC0
01E0
00E0
00E0
C0E0
E0E0
F1E0
7FC0
1F00
0E00
0E00
0E00
0E00
0E00
ENDCHAR
STARTCHAR uni0499
ENCODING 1177
SWIDTH 510 0
DWIDTH 11 0
BBX 9 17 1 -5
BITMAP
3E00
7F00
E380
C380
0380
1F00
1F00
0380
C180
E380
FF80
3E00
1C00
1C00
1C00
1C00
1C00
ENDCHAR
STARTCHAR uni049A
ENCODING 1178
SWIDTH 724 0
DWIDTH 16 0
BBX 13 20 2 -4
BITMAP
C0F0
C1E0
C1C0
C380
C380
C700
CE00
FE00
FE00
C700
C700
C380
C1C0
C1C0
C0F8
C078
0038
0038
0038
0038
ENDCHAR
STARTCHAR uni049B
ENCODING 1179
SWIDTH 622 0
DWIDTH 14 0
BBX 11 16 2 -4
BITMAP
C3C0
C780
C700
CE00
DC00
FC00
FC00
CE00
C700
C700
C3E0
C3E0
00E0
00E0
00E0
00E0
ENDCHAR
STARTCHAR uni049C
ENCODING 1180
SWIDTH 646 0
DWIDTH 14 0
BBX 12 16 2 0
BITMAP
C0F0
C0E0
C0E0
C1C0
D980
DB80
DB00
FF00
FF00
DB80
DB80
D9C0
C1C0
C0E0
C0F0
C070
ENDCHAR
STARTCHAR uni049D
ENCODING 1181
SWIDTH 583 0
DWIDTH 13 0
BBX 11 12 2 0
BITMAP
C1E0
C1C0
C380
DB80
DF00
FE00
FF00
DF00
DB80
C380
C1C0
C1E0
ENDCHAR
STARTCHAR uni049E
ENCODING 1182
SWIDTH 654 0
DWIDTH 14 0
BBX 14 16 0 0
BITMAP
383C
3838
FE70
FEF0
38E0
39C0
3BC0
3F80
3F80
39C0
39E0
38E0
3870
3838
3838
381C
ENDCHAR
STARTCHAR uni049F
ENCODING 1183
SWIDTH 533 0
DWIDTH 12 0
BBX 13 17 -1 0
BITMAP
1800
1800
FE00
FE00
1800
1870
18E0
18E0
19C0
1980
1F80
1F80
19C0
19C0
18E0
1870
1878
ENDCHAR
STARTCHAR uni04A0
ENCODING 1184
SWIDTH 822 0
DWIDTH 18 0
BBX 17 16 1 0
BITMAP
FE0780
FE0F00
060E00
061C00
063C00
063800
067000
07F000
07F000
063800
063800
061C00
060E00
060E00
060700
060380
ENDCHAR
STARTCHAR uni04A1
ENCODING 1185
SWIDTH 705 0
DWIDTH 16 0
BBX 15 12 1 0
BITMAP
FE1C
FE38
0E70
0E70
0EE0
0FC0
0FE0
0EE0
0E70
0E38
0E38
0E1E
ENDCHAR
STARTCHAR uni04A2
ENCODING 1186
SWIDTH 769 0
DWIDTH 17 0
BBX 14 20 2 -4
BITMAP
C070
C070
C070
C070
C070
C070
C070
FFF0
FFF0
C070
C070
C070
C070
C070
C07C
C07C
001C
001C
001C
001C
ENDCHAR
STARTCHAR uni04A3
ENCODING 1187
SWIDTH 631 0
DWIDTH 14 0
BBX 12 16 1 -4
BITMAP
E0C0
E0C0
E0C0
E0C0
E0C0
FFC0
FFC0
E0C0
E0C0
E0C0
E0F0
E0F0
0030
0030
0030
0030
ENDCHAR
STARTCHAR uni04A4
ENCODING 1188
SWIDTH 976 0
DWIDTH 21 0
BBX 19 16 2 0
BITMAP
C07FE0
C07FE0
C07000
C07000
C07000
C07000
C07000
FFF000
FFF000
C07000
C07000
C07000
C07000
C07000
C07000
C07000
ENDCHAR
STARTCHAR uni04A5
ENCODING 1189
SWIDTH 708 0
DWIDTH 16 0
BBX 14 12 1 0
BITMAP
E1FC
E1FC
E1C0
E1C0
E1C0
FFC0
FFC0
E1C0
E1C0
E1C0
E1C0
E1C0
ENDCHAR
STARTCHAR uni04A6
ENCODING 1190
SWIDTH 1034 0
DWIDTH 23 0
BBX 20 19 2 -3
BITMAP
FFF000
FFF000
C07000
C07000
C07000
C07000
C07000
C07F00
C07FC0
C070E0
C07060
C07070
C07070
C07070
C07070
C07070
0000E0
0003C0
000380
ENDCHAR
STARTCHAR uni04A7
ENCODING 1191
SWIDTH 869 0
DWIDTH 19 0
BBX 17 15 1 -3
BITMAP
FFC000
FFC000
E1C000
E1C000
E1C000
E1FC00
E1FF00
E1C380
E1C380
E1C180
E1C180
E1C180
000380
000F00
000600
ENDCHAR
STARTCHAR uni04A8
ENCODING 1192
SWIDTH 770 0
DWIDTH 17 0
BBX 15 16 1 0
BITMAP
18F0
39F8
739C
638E
E30E
E30E
E30E
E30E
E30E
E38E
E38E
63DC
71FC
38F8
1FFE
0FCE
ENDCHAR
STARTCHAR uni04A9
ENCODING 1193
SWIDTH 624 0
DWIDTH 14 0
BBX 12 12 1 0
BITMAP
31C0
73E0
6670
E670
E670
E670
E670
E670
67E0
73E0
3FF0
1F30
ENDCHAR
STARTCHAR uni04AA
ENCODING 1194
SWIDTH 652 0
DWIDTH 14 0
BBX 12 21 1 -5
BITMAP
0F80
3FE0
70F0
6070
E030
E000
E000
E000
E000
E000
E000
E030
6070
70F0
3FE0
0F80
0700
0700
0700
0700
0700
ENDCHAR
STARTCHAR uni04AB
ENCODING 1195
SWIDTH 523 0
DWIDTH 12 0
BBX 10 17 1 -5
BITMAP
1F00
3F80
71C0
E0C0
E000
E000
E000
E000
E0C0
71C0
3F80
1F00
0C00
0C00
0C00
0C00
0C00
ENDCHAR
STARTCHAR uni04AC
ENCODING 1196
SWIDTH 606 0
DWIDTH 13 0
BBX 13 20 0 -4
BITMAP
FFF8
FFF8
0700
0700
0700
0700
0700
0700
0700
0700
0700
0700
0700
0700
07C0
07C0
01C0
01C0
01C0
01C0
ENDCHAR
STARTCHAR uni04AD
ENCODING 1197
SWIDTH 494 0
DWIDTH 11 0
BBX 10 16 0 -4
BITMAP
FFC0
FFC0
0E00
0E00
0E00
0E00
0E00
0E00
0E00
0E00
0F80
0F80
0380
0380
0380
0380
ENDCHAR
STARTCHAR uni04AE
ENCODING 1198
SWIDTH 609 0
DWIDTH 13 0
BBX 13 16 0 0
BITMAP
E038
7038
7070
3860
38E0
1CC0
1DC0
0F80
0F80
0700
0700
0700
0700
0700
0700
0700
ENDCHAR
STARTCHAR uni04AF
ENCODING 1199
SWIDTH 506 0
DWIDTH 11 0
BBX 11 16 0 -4
BITMAP
E0E0
60C0
71C0
31C0
3180
3B80
1B00
1B00
1F00
0E00
0E00
0E00
0E00
0E00
0E00
0E00
ENDCHAR
STARTCHAR uni04B0
ENCODING 1200
SWIDTH 609 0
DWIDTH 13 0
BBX 13 16 0 0
BITMAP
E038
7070
7070
38E0
38E0
19C0
1DC0
0D80
1FC0
1FC0
0700
0700
0700
0700
0700
0700
ENDCHAR
STARTCHAR uni04B1
ENCODING 1201
SWIDTH 506 0
DWIDTH 11 0
BBX 11 16 0 -4
BITMAP
E0E0
60C0
71C0
71C0
3180
3B80
1B80
1B00
1F00
0F00
3F80
3F80
0E00
0E00
0E00
0E00
ENDCHAR
STARTCHAR uni04B2
ENCODING 1202
SWIDTH 652 0
DWIDTH 14 0
BBX 14 20 0 -4
BITMAP
7038
7870
3870
1CE0
1CE0
0FC0
0FC0
0780
0780
0FC0
0FC0
1CE0
1CE0
3870
707C
703C
801C
001C
001C
001C
ENDCHAR
STARTCHAR uni04B3
ENCODING 1203
SWIDTH 534 0
DWIDTH 12 0
BBX 11 16 0 -4
BITMAP
F1E0
71C0
3B80
1B80
1F00
0E00
0E00
1F00
3B80
3B80
71E0
70E0
8060
0060
0060
0060
ENDCHAR
STARTCHAR uni04B4
ENCODING 1204
SWIDTH 898 0
DWIDTH 20 0
BBX 18 20 0 -4
BITMAP
FFE380
FFE380
0E0380
0E0380
0E0380
0E0380
0E0380
0E0380
0E0380
0E0380
0E0380
0E0380
0E0380
0E0380
0FFFC0
0FFFC0
0000C0
0000C0
0000C0
0000C0
ENDCHAR
STARTCHAR uni04B5
ENCODING 1205
SWIDTH 679 0
DWIDTH 15 0
BBX 14 15 0 -3
BITMAP
FF38
FF38
1C38
1C38
1C38
1C38
1C38
1C38
1C38
1C38
1FFC
1FFC
000C
000C
000C
ENDCHAR
STARTCHAR uni04B6
ENCODING 1206
SWIDTH 747 0
DWIDTH 16 0
BBX 14 20 2 -4
BITMAP
C070
C070
C070
C070
C070
C070
C070
E070
7FF0
3FF0
0070
0070
0070
0070
007C
007C
001C
001C
001C
001C
ENDCHAR
STARTCHAR uni04B7
ENCODING 1207
SWIDTH 607 0
DWIDTH 13 0
BBX 12 16 1 -4
BITMAP
E1C0
E1C0
E1C0
E1C0
E1C0
E1C0
7FC0
3FC0
01C0
01C0
01F0
01F0
0070
0070
0070
0070
ENDCHAR
STARTCHAR uni04B8
ENCODING 1208
SWIDTH 681 0
DWIDTH 15 0
BBX 12 16 1 0
BITMAP
E030
E030
E030
E030
E030
E230
6230
7230
3FF0
1FF0
0230
0230
0030
0030
0030
0030
ENDCHAR
STARTCHAR uni04B9
ENCODING 1209
SWIDTH 556 0
DWIDTH 12 0
BBX 10 12 1 0
BITMAP
E1C0
E1C0
EDC0
EDC0
EDC0
7FC0
3FC0
0DC0
0DC0
01C0
01C0
01C0
ENDCHAR
STARTCHAR uni04BA
ENCODING 1210
SWIDTH 690 0
DWIDTH 15 0
BBX 12 16 1 0
BITMAP
E000
E000
E000
E000
E000
E000
FFC0
FFE0
E070
E070
E030
E030
E030
E030
E030
E030
ENDCHAR
STARTCHAR uni04BB
ENCODING 1211
SWIDTH 555 0
DWIDTH 12 0
BBX 10 17 1 0
BITMAP
E000
E000
E000
E000
E000
EF00
FF80
F1C0
E1C0
E1C0
E1C0
E1C0
E1C0
E1C0
E1C0
E1C0
E1C0
ENDCHAR
STARTCHAR uni04BC
ENCODING 1212
SWIDTH 767 0
DWIDTH 17 0
BBX 16 16 0 0
BITMAP
01F0
03FC
070E
060E
0E06
CE07
6C07
7FFF
1FFF
0C00
0E00
0E00
0E00
0704
03FE
00FC
ENDCHAR
STARTCHAR uni04BD
ENCODING 1213
SWIDTH 595 0
DWIDTH 13 0
BBX 13 12 -1 0
BITMAP
03E0
07F0
0E38
CC18
7C18
7FF8
1FF8
1C00
0C10
0E18
07F8
03E0
ENDCHAR
STARTCHAR uni04BE
ENCODING 1214
SWIDTH 767 0
DWIDTH 17 0
BBX 16 21 0 -5
BITMAP
01F0
03FC
070E
060E
0E06
CE07
6C07
7FFF
1FFF
0C00
0E00
0E00
0E00
0704
03FE
00FC
0070
0070
0070
0070
0070
ENDCHAR
STARTCHAR uni04BF
ENCODING 1215
SWIDTH 595 0
DWIDTH 13 0
BBX 13 17 -1 -5
BITMAP
03E0
07F0
0E38
CC18
7C18
7FF8
1FF8
1C00
0C10
0E18
07F8
03E0
01C0
01C0
01C0
01C0
01C0
ENDCHAR
STARTCHAR uni04C0
ENCODING 1216
SWIDTH 282 0
DWIDTH 6 0
BBX 2 16 2 0
BITMAP
C0
C0
C0
C0
C0
C0
C0
C0
C0
C0
C0
C0
C0
C0
C0
C0
ENDCHAR
STARTCHAR uni04C1
ENCODING 1217
SWIDTH 954 0
DWIDTH 21 0
BBX 21 20 0 0
BITMAP
018C00
01FC00
00F800
000000
707078
787070
3870E0
1C71C0
1C71C0
0E7380
067380
07FF00
07FF00
0E7380
0E71C0
1C71C0
3C70E0
3870E0
707070
F07078
ENDCHAR
STARTCHAR uni04C2
ENCODING 1218
SWIDTH 807 0
DWIDTH 18 0
BBX 17 16 0 0
BITMAP
073000
03F000
01E000
000000
70C380
78C700
38C700
1CCE00
1CCC00
0FFC00
0FFC00
1CCE00
18CE00
38C700
70C780
F0C380
ENDCHAR
STARTCHAR uni04C3
ENCODING 1219
SWIDTH 641 0
DWIDTH 14 0
BBX 13 19 1 -3
BITMAP
E070
E0E0
E1C0
E3C0
E380
E700
FF00
FFC0
E0E0
E070
E030
E030
E030
E038
E030
E070
0070
01E0
0180
ENDCHAR
STARTCHAR uni04C4
ENCODING 1220
SWIDTH 558 0
DWIDTH 12 0
BBX 11 15 1 -3
BITMAP
E1E0
E380
E700
EE00
FE00
FF80
E1C0
E1C0
E0C0
E0C0
E0C0
E1C0
03C0
0780
0300
ENDCHAR
STARTCHAR uni04C5
ENCODING 1221
SWIDTH 769 0
DWIDTH 17 0
BBX 15 20 1 -4
BITMAP
1FF8
1FF8
1C38
1838
1838
1838
1838
1838
1838
1838
3838
3838
3838
7038
F03E
E03E
0006
0006
000C
000C
ENDCHAR
STARTCHAR uni04C6
ENCODING 1222
SWIDTH 639 0
DWIDTH 14 0
BBX 13 16 1 -4
BITMAP
3FC0
3FC0
30C0
30C0
30C0
30C0
30C0
30C0
70C0
70C0
E0F8
C0F8
0038
0030
0030
0060
ENDCHAR
STARTCHAR uni04C7
ENCODING 1223
SWIDTH 710 0
DWIDTH 16 0
BBX 12 20 2 -4
BITMAP
E070
E070
E070
E070
E070
E070
E070
FFF0
FFF0
E070
E070
E070
E070
E070
E070
E070
0070
0070
01F0
01C0
ENDCHAR
STARTCHAR uni04C8
ENCODING 1224
SWIDTH 566 0
DWIDTH 12 0
BBX 10 16 1 -4
BITMAP
E1C0
E1C0
E1C0
E1C0
E1C0
FFC0
FFC0
E1C0
E1C0
E1C0
E1C0
E1C0
01C0
01C0
0780
0700
ENDCHAR
STARTCHAR uni04C9
ENCODING 1225
SWIDTH 775 0
DWIDTH 17 0
BBX 14 20 2 -4
BITMAP
C070
C070
C070
C070
C070
C070
C070
FFF0
FFF0
C070
C070
C070
C070
C070
C07C
C07C
000C
000C
001C
0018
ENDCHAR
STARTCHAR uni04CA
ENCODING 1226
SWIDTH 637 0
DWIDTH 14 0
BBX 13 16 1 -4
BITMAP
E0C0
E0C0
E0C0
E0C0
E0C0
FFC0
FFC0
E0C0
E0C0
E0C0
E0F8
E0F8
0030
0030
0070
0020
ENDCHAR
STARTCHAR uni04CB
ENCODING 1227
SWIDTH 691 0
DWIDTH 15 0
BBX 12 20 2 -4
BITMAP
C070
C070
C070
C070
C070
C070
C070
E070
7FF0
3FF0
0070
0070
0070
0070
01F0
01F0
0180
0180
0180
0180
ENDCHAR
STARTCHAR uni04CC
ENCODING 1228
SWIDTH 549 0
DWIDTH 12 0
BBX 10 16 1 -4
BITMAP
E1C0
E1C0
E1C0
E1C0
E1C0
E1C0
7FC0
3FC0
01C0
01C0
07C0
07C0
0600
0600
0600
0600
ENDCHAR
STARTCHAR uni04CD
ENCODING 1229
SWIDTH 936 0
DWIDTH 21 0
BBX 18 20 2 -4
BITMAP
E00F00
F00F00
F01F00
F01F00
F83F00
D83F00
DC3700
DC7700
CC6700
CE6700
C6E700
C6C700
C7C700
C3C700
C387C0
C387C0
0001C0
0001C0
000180
000300
ENDCHAR
STARTCHAR uni04CE
ENCODING 1230
SWIDTH 808 0
DWIDTH 18 0
BBX 15 16 2 -4
BITMAP
E078
E078
F078
F0F8
F8F8
D9F8
D9B8
CDB8
CFB8
CF38
C73E
C63E
0006
0006
000E
000C
ENDCHAR
STARTCHAR uni04CF
ENCODING 1231
SWIDTH 282 0
DWIDTH 6 0
BBX 2 16 2 0
BITMAP
C0
C0
C0
C0
C0
C0
C0
C0
C0
C0
C0
C0
C0
C0
C0
C0
ENDCHAR
STARTCHAR uni04D0
ENCODING 1232
SWIDTH 665 0
DWIDTH 15 0
BBX 14 20 0 0
BITMAP
0C60
0FC0
0780
0000
0380
0380
0780
07C0
0EC0
0EE0
0CE0
1C60
1C70
1870
3FF0
3FF8
7018
701C
601C
E01C
ENDCHAR
STARTCHAR uni04D1
ENCODING 1233
SWIDTH 541 0
DWIDTH 12 0
BBX 10 16 1 0
BITMAP
3380
3F00
1E00
0000
1E00
7F80
6380
E1C0
01C0
3FC0
7FC0
E1C0
E1C0
E3C0
7FC0
3DC0
ENDCHAR
STARTCHAR uni04D2
ENCODING 1234
SWIDTH 665 0
DWIDTH 15 0
BBX 14 20 0 0
BITMAP
0C60
0CE0
0C60
0000
0380
0380
0780
07C0
0EC0
0EE0
0CE0
1C60
1C70
1870
3FF0
3FF8
7018
701C
601C
E01C
ENDCHAR
STARTCHAR uni04D3
ENCODING 1235
SWIDTH 541 0
DWIDTH 12 0
BBX 10 16 1 0
BITMAP
3180
7380
3180
0000
1E00
7F80
6380
E1C0
01C0
3FC0
7FC0
E1C0
E1C0
E3C0
7FC0
3DC0
ENDCHAR
STARTCHAR uni04D4
ENCODING 1236
SWIDTH 939 0
DWIDTH 21 0
BBX 20 16 0 0
BITMAP
007FF0
00FFF0
01F800
01F800
03B800
03B800
073800
073FE0
0E3FE0
0C3800
1FF800
3FF800
383800
703800
703FF0
E01FF0
ENDCHAR
STARTCHAR uni04D5
ENCODING 1237
SWIDTH 844 0
DWIDTH 19 0
BBX 17 12 1 0
BITMAP
3F3E00
7FFF00
F1E380
61C380
01C180
3FFF80
7FFF80
E1C000
E1C000
E3E100
7F7F80
3E3F00
ENDCHAR
STARTCHAR uni04D6
ENCODING 1238
SWIDTH 565 0
DWIDTH 12 0
BBX 10 20 2 0
BITMAP
6300
3F00
1E00
0000
FFC0
FFC0
C000
C000
C000
C000
C000
FF80
FF80
C000
C000
C000
C000
C000
FFC0
FFC0
ENDCHAR
STARTCHAR uni04D7
ENCODING 1239
SWIDTH 536 0
DWIDTH 12 0
BBX 10 16 1 0
BITMAP
7300
3F00
1E00
0000
1F00
3F80
71C0
E1C0
E0C0
FFC0
FFC0
E000
E080
70C0
3F80
1F00
ENDCHAR
STARTCHAR uni04D8
ENCODING 1240
SWIDTH 691 0
DWIDTH 15 0
BBX 13 16 1 0
BITMAP
3F80
7FC0
40E0
0070
0038
0038
0038
FFF8
FFF8
C038
E038
E038
E070
70E0
3FC0
0F80
ENDCHAR
STARTCHAR uni04D9
ENCODING 1241
SWIDTH 529 0
DWIDTH 12 0
BBX 10 12 1 0
BITMAP
3E00
FF80
4380
01C0
01C0
FFC0
FFC0
E1C0
E1C0
7380
7F80
1E00
ENDCHAR
STARTCHAR uni04DA
ENCODING 1242
SWIDTH 691 0
DWIDTH 15 0
BBX 13 20 1 0
BITMAP
3180
39C0
3180
0000
3F80
7FC0
40E0
0070
0038
0038
0038
FFF8
FFF8
C038
E038
E038
E070
70E0
3FC0
0F80
ENDCHAR
STARTCHAR uni04DB
ENCODING 1243
SWIDTH 529 0
DWIDTH 12 0
BBX 10 16 1 0
BITMAP
7300
7380
7300
0000
3E00
FF80
4380
01C0
01C0
FFC0
FFC0
E1C0
E1C0
7380
7F80
1E00
ENDCHAR
STARTCHAR uni04DC
ENCODING 1244
SWIDTH 954 0
DWIDTH 21 0
BBX 21 20 0 0
BITMAP
018C00
018C00
018C00
000000
707078
787070
3870E0
1C71C0
1C71C0
0E7380
067380
07FF00
07FF00
0E7380
0E71C0
1C71C0
3C70E0
3870E0
707070
F07078
ENDCHAR
STARTCHAR uni04DD
ENCODING 1245
SWIDTH 807 0
DWIDTH 18 0
BBX 17 16 0 0
BITMAP
073000
073800
073000
000000
70C380
78C700
38C700
1CCE00
1CCC00
0FFC00
0FFC00
1CCE00
18CE00
38C700
70C780
F0C380
ENDCHAR
STARTCHAR uni04DE
ENCODING 1246
SWIDTH 604 0
DWIDTH 13 0
BBX 11 20 1 0
BITMAP
3180
3180
3180
0000
1F00
7FC0
E1E0
E0E0
00E0
00C0
0F80
0FC0
01E0
00E0
00E0
C0E0
E0E0
F1E0
7FC0
1F00
ENDCHAR
STARTCHAR uni04DF
ENCODING 1247
SWIDTH 510 0
DWIDTH 11 0
BBX 9 16 1 0
BITMAP
6300
7300
6300
0000
3E00
7F00
E380
C380
0380
1F00
1F00
0380
C180
E380
FF80
3E00
ENDCHAR
STARTCHAR uni04E0
ENCODING 1248
SWIDTH 581 0
DWIDTH 13 0
BBX 11 16 1 0
BITMAP
7FC0
7FC0
01C0
0380
0700
0E00
1F00
1FC0
01C0
00E0
00E0
E0E0
E0E0
71C0
7FC0
1F00
ENDCHAR
STARTCHAR uni04E1
ENCODING 1249
SWIDTH 581 0
DWIDTH 13 0
BBX 11 16 1 -4
BITMAP
7FC0
7FC0
01C0
0380
0700
0E00
1F00
1FC0
01C0
00E0
00E0
E0E0
E0E0
71C0
7FC0
1F00
ENDCHAR
STARTCHAR uni04E2
ENCODING 1250
SWIDTH 707 0
DWIDTH 16 0
BBX 12 19 2 0
BITMAP
3FC0
3FC0
0000
C070
C0F0
C0F0
C1F0
C3F0
C3F0
C770
C670
CE70
DC70
DC70
F870
F070
F070
E070
E070
ENDCHAR
STARTCHAR uni04E3
ENCODING 1251
SWIDTH 574 0
DWIDTH 13 0
BBX 10 16 1 0
BITMAP
3F80
3F80
0000
0000
E1C0
E1C0
E3C0
E3C0
E6C0
EEC0
ECC0
FCC0
F8C0
F0C0
F0C0
E0C0
ENDCHAR
STARTCHAR uni04E4
ENCODING 1252
SWIDTH 707 0
DWIDTH 16 0
BBX 12 20 2 0
BITMAP
3180
39C0
3180
0000
C070
C0F0
C0F0
C1F0
C3F0
C3F0
C770
C670
CE70
DC70
DC70
F870
F070
F070
E070
E070
ENDCHAR
STARTCHAR uni04E5
ENCODING 1253
SWIDTH 574 0
DWIDTH 13 0
BBX 10 16 1 0
BITMAP
3180
3380
3180
0000
E1C0
E1C0
E3C0
E3C0
E6C0
EEC0
ECC0
FCC0
F8C0
F0C0
F0C0
E0C0
ENDCHAR
STARTCHAR uni04E6
ENCODING 1254
SWIDTH 690 0
DWIDTH 15 0
BBX 13 20 1 0
BITMAP
18C0
1CC0
18C0
0000
0F80
3FE0
78F0
7070
E038
E038
E038
E038
E038
E038
E038
E038
7070
78F0
3FE0
0F80
ENDCHAR
STARTCHAR uni04E7
ENCODING 1255
SWIDTH 569 0
DWIDTH 13 0
BBX 11 16 1 0
BITMAP
3180
7380
3180
0000
1F00
3F80
71C0
E0E0
E0E0
E0E0
E0E0
E0E0
E0E0
71C0
3F80
1F00
ENDCHAR
STARTCHAR uni04E8
ENCODING 1256
SWIDTH 684 0
DWIDTH 15 0
BBX 13 16 1 0
BITMAP
0F80
3FE0
78F0
7070
E038
E038
E038
FFF8
FFF8
E038
E038
E038
7070
78F0
3FE0
0F80
ENDCHAR
STARTCHAR uni04E9
ENCODING 1257
SWIDTH 566 0
DWIDTH 12 0
BBX 10 12 1 0
BITMAP
1E00
7F80
E1C0
E1C0
C0C0
FFC0
FFC0
C0C0
E1C0
E1C0
7F80
1E00
ENDCHAR
STARTCHAR uni04EA
ENCODING 1258
SWIDTH 684 0
DWIDTH 15 0
BBX 13 20 1 0
BITMAP
18C0
1CE0
18C0
0000
0F80
3FE0
78F0
7070
E038
E038
E038
FFF8
FFF8
E038
E038
E038
7070
78F0
3FE0
0F80
ENDCHAR
STARTCHAR uni04EB
ENCODING 1259
SWIDTH 566 0
DWIDTH 12 0
BBX 10 16 1 0
BITMAP
3380
7380
3380
0000
1E00
7F80
E1C0
E1C0
C0C0
FFC0
FFC0
C0C0
E1C0
E1C0
7F80
1E00
ENDCHAR
STARTCHAR uni04EC
ENCODING 1260
SWIDTH 664 0
DWIDTH 15 0
BBX 13 20 1 0
BITMAP
18C0
39C0
18C0
0000
0F80
3FE0
70E0
7070
E030
0038
0038
07F8
07F8
0038
0038
E030
7070
70E0
3FE0
0F80
ENDCHAR
STARTCHAR uni04ED
ENCODING 1261
SWIDTH 529 0
DWIDTH 12 0
BBX 10 16 1 0
BITMAP
6300
7380
6300
0000
3E00
7F00
E380
E1C0
01C0
0FC0
0FC0
01C0
E1C0
E380
7F00
3E00
ENDCHAR
STARTCHAR uni04EE
ENCODING 1262
SWIDTH 629 0
DWIDTH 14 0
BBX 12 19 1 0
BITMAP
3FC0
3FC0
0000
E070
E070
70E0
70E0
38E0
39C0
1DC0
1D80
0F80
0F00
0700
0700
0600
0E00
3C00
3800
ENDCHAR
STARTCHAR uni04EF
ENCODING 1263
SWIDTH 486 0
DWIDTH 11 0
BBX 11 20 0 -4
BITMAP
3F80
3F80
0000
0000
E0E0
71C0
71C0
3180
3980
3B80
1B00
1B00
1F00
0E00
0E00
0E00
0C00
1C00
7800
7000
ENDCHAR
STARTCHAR uni04F0
ENCODING 1264
SWIDTH 629 0
DWIDTH 14 0
BBX 12 20 1 0
BITMAP
19C0
39C0
19C0
0000
E070
E070
70E0
70E0
38E0
39C0
1DC0
1D80
0F80
0F00
0700
0700
0600
0E00
3C00
3800
ENDCHAR
STARTCHAR uni04F1
ENCODING 1265
SWIDTH 486 0
DWIDTH 11 0
BBX 11 20 0 -4
BITMAP
3180
3180
3180
0000
E0E0
71C0
71C0
3180
3980
3B80
1B00
1B00
1F00
0E00
0E00
0E00
0C00
1C00
7800
7000
ENDCHAR
STARTCHAR uni04F2
ENCODING 1266
SWIDTH 629 0
DWIDTH 14 0
BBX 12 20 1 0
BITMAP
06E0
0DC0
1B80
0000
E070
E070
70E0
70E0
38E0
39C0
1DC0
1D80
0F80
0F00
0700
0700
0600
0E00
3C00
3800
ENDCHAR
STARTCHAR uni04F3
ENCODING 1267
SWIDTH 486 0
DWIDTH 11 0
BBX 11 20 0 -4
BITMAP
0EE0
1D80
3B80
0000
E0E0
71C0
71C0
3180
3980
3B80
1B00
1B00
1F00
0E00
0E00
0E00
0C00
1C00
7800
7000
ENDCHAR
STARTCHAR uni04F4
ENCODING 1268
SWIDTH 691 0
DWIDTH 15 0
BBX 12 20 2 0
BITMAP
3180
39C0
3180
0000
C070
C070
C070
C070
C070
C070
C070
E070
7FF0
3FF0
0070
0070
0070
0070
0070
0070
ENDCHAR
STARTCHAR uni04F5
ENCODING 1269
SWIDTH 549 0
DWIDTH 12 0
BBX 10 16 1 0
BITMAP
7300
7380
7300
0000
E1C0
E1C0
E1C0
E1C0
E1C0
E1C0
7FC0
3FC0
01C0
01C0
01C0
01C0
ENDCHAR
STARTCHAR uni04F6
ENCODING 1270
SWIDTH 557 0
DWIDTH 12 0
BBX 10 20 2 -4
BITMAP
FFC0
FFC0
C000
C000
C000
C000
C000
C000
C000
C000
C000
C000
C000
C000
F000
F000
3000
3000
3000
3000
ENDCHAR
STARTCHAR uni04F7
ENCODING 1271
SWIDTH 418 0
DWIDTH 9 0
BBX 8 16 1 -4
BITMAP
FF
FF
E0
E0
E0
E0
E0
E0
E0
E0
F8
F8
18
18
18
18
ENDCHAR
STARTCHAR uni04F8
ENCODING 1272
SWIDTH 871 0
DWIDTH 19 0
BBX 15 20 2 0
BITMAP
0C60
0E60
0C60
0000
C006
C006
C006
C006
C006
C006
FF06
FFC6
C1E6
C0E6
C066
C066
C0E6
C1E6
FFC6
FF06
ENDCHAR
STARTCHAR uni04F9
ENCODING 1273
SWIDTH 804 0
DWIDTH 18 0
BBX 15 16 1 0
BITMAP
0C60
0E70
0C60
0000
E00E
E00E
E00E
E00E
FF0E
FF8E
E1CE
E0CE
E0CE
E1CE
FF8E
FF0E
ENDCHAR
STARTCHAR uni04FA
ENCODING 1274
SWIDTH 597 0
DWIDTH 13 0
BBX 11 20 1 -4
BITMAP
3FE0
3FE0
3000
3000
3000
3000
3000
FE00
FE00
3000
3000
3000
3000
3000
3E00
3E00
0E00
0E00
3C00
3800
ENDCHAR
STARTCHAR uni04FB
ENCODING 1275
SWIDTH 460 0
DWIDTH 10 0
BBX 10 16 0 -4
BITMAP
3FC0
3FC0
3800
3800
FF00
FF00
3800
3800
3800
3800
3E00
3E00
0600
0E00
3E00
3C00
ENDCHAR
STARTCHAR uni04FC
ENCODING 1276
SWIDTH 675 0
DWIDTH 15 0
BBX 15 20 0 -4
BITMAP
7038
7870
3870
1CE0
1CE0
0FC0
0FC0
0780
0780
0FC0
0FC0
1CE0
1CE0
3870
707E
703E
800E
000E
003C
0038
ENDCHAR
STARTCHAR uni04FD
ENCODING 1277
SWIDTH 556 0
DWIDTH 12 0
BBX 12 16 0 -4
BITMAP
F1E0
71C0
3B80
1B80
1F00
0E00
0E00
1F00
3B80
3B80
71F0
70F0
8070
0070
01F0
01E0
ENDCHAR
STARTCHAR uni04FE
ENCODING 1278
SWIDTH 632 0
DWIDTH 14 0
BBX 14 16 0 0
BITMAP
7038
7878
3870
1CE0
1CE0
0FC0
0FC0
1FE0
1FE0
0F80
0FC0
1CE0
1CE0
3870
7078
F03C
ENDCHAR
STARTCHAR uni04FF
ENCODING 1279
SWIDTH 502 0
DWIDTH 11 0
BBX 11 12 0 0
BITMAP
F1E0
71C0
3B80
1B80
1F00
3F80
3F80
1F00
1B80
3B80
71C0
F0E0
ENDCHAR
STARTCHAR uni0500
ENCODING 1280
SWIDTH 628 0
DWIDTH 14 0
BBX 11 16 1 0
BITMAP
0060
0060
0060
0060
0060
0060
1FE0
7FE0
7060
E060
E060
E060
E060
7060
7FE0
1FE0
ENDCHAR
STARTCHAR uni0501
ENCODING 1281
SWIDTH 564 0
DWIDTH 12 0
BBX 10 17 1 0
BITMAP
01C0
01C0
01C0
01C0
01C0
3DC0
7FC0
E3C0
E1C0
C1C0
C1C0
C1C0
C1C0
E1C0
E3C0
7FC0
3DC0
ENDCHAR
STARTCHAR uni0502
ENCODING 1282
SWIDTH 867 0
DWIDTH 19 0
BBX 17 16 1 0
BITMAP
007000
007000
007000
007000
007000
007000
1FF000
7FF380
707380
E07180
E07180
E07180
E07380
707380
7FFF00
1FFE00
ENDCHAR
STARTCHAR uni0503
ENCODING 1283
SWIDTH 857 0
DWIDTH 19 0
BBX 17 17 1 0
BITMAP
01C000
01C000
01C000
01C000
01C000
1FC000
7FC000
71C300
E1C380
E1C380
E1C380
E1C380
E1C380
E1C380
71E700
7FFE00
3E7C00
ENDCHAR
STARTCHAR uni0504
ENCODING 1284
SWIDTH 790 0
DWIDTH 17 0
BBX 16 16 0 0
BITMAP
FE00
FF80
0380
01C0
01C0
01C0
0386
3F07
3F07
0387
01C7
01C7
01C7
01CE
00FC
0078
ENDCHAR
STARTCHAR uni0505
ENCODING 1285
SWIDTH 644 0
DWIDTH 14 0
BBX 14 12 0 0
BITMAP
FC00
FE00
0700
0700
0738
7E18
7E1C
071C
0318
0338
03F0
01E0
ENDCHAR
STARTCHAR uni0506
ENCODING 1286
SWIDTH 560 0
DWIDTH 12 0
BBX 10 20 1 -4
BITMAP
FC00
FE00
0700
0700
0300
0700
0700
FE00
FE00
0700
0700
0300
0300
0300
03C0
03C0
00C0
00C0
01C0
0080
ENDCHAR
STARTCHAR uni0507
ENCODING 1287
SWIDTH 530 0
DWIDTH 12 0
BBX 10 16 1 -4
BITMAP
FC00
FF00
0700
0300
0700
7E00
7E00
0700
0300
0300
03C0
03C0
00C0
00C0
01C0
0080
ENDCHAR
STARTCHAR uni0508
ENCODING 1288
SWIDTH 967 0
DWIDTH 21 0
BBX 19 16 1 0
BITMAP
1FF800
1FF800
183800
183800
183800
183800
1838E0
183860
183860
383860
383860
383860
3838E0
7038E0
F01FC0
E00F00
ENDCHAR
STARTCHAR uni0509
ENCODING 1289
SWIDTH 826 0
DWIDTH 18 0
BBX 16 12 1 0
BITMAP
3FC0
3FC0
39C7
31C7
31C3
31C3
31C3
31C3
71C7
70E7
E0FE
C07C
ENDCHAR
STARTCHAR uni050A
ENCODING 1290
SWIDTH 998 0
DWIDTH 22 0
BBX 19 16 2 0
BITMAP
C07000
C07000
C07000
C07000
C07000
C07000
C071C0
FFF0C0
FFF0E0
C070E0
C070E0
C070E0
C070C0
C071C0
C03F80
C01F00
ENDCHAR
STARTCHAR uni050B
ENCODING 1291
SWIDTH 827 0
DWIDTH 18 0
BBX 16 12 1 0
BITMAP
E1C0
E1C0
E1C7
E1C7
E1C3
FFC3
FFC3
E1C3
E1C7
E0E7
E0FE
E07C
ENDCHAR
STARTCHAR uni050C
ENCODING 1292
SWIDTH 626 0
DWIDTH 14 0
BBX 12 16 1 0
BITMAP
0FC0
3FC0
7840
7000
E000
E000
E000
E070
E070
E070
E070
E070
7070
78F0
3FE0
0F80
ENDCHAR
STARTCHAR uni050D
ENCODING 1293
SWIDTH 521 0
DWIDTH 11 0
BBX 9 12 1 0
BITMAP
1F00
7F00
7100
E000
C000
C000
C180
C180
E180
7180
7F80
1F00
ENDCHAR
STARTCHAR uni050E
ENCODING 1294
SWIDTH 708 0
DWIDTH 16 0
BBX 14 16 1 0
BITMAP
FFF0
FFF0
0E00
0E00
0E00
0E00
0E18
0E1C
0E1C
0E1C
0E1C
0E1C
0E1C
0738
07F0
03E0
ENDCHAR
STARTCHAR uni050F
ENCODING 1295
SWIDTH 639 0
DWIDTH 14 0
BBX 12 12 1 0
BITMAP
FF80
FF80
1C00
1C00
1C70
1C70
1C30
1C30
1C70
1C70
0FE0
07C0
ENDCHAR
STARTCHAR uni0510
ENCODING 1296
SWIDTH 666 0
DWIDTH 15 0
BBX 12 16 2 0
BITMAP
1F80
7FE0
E0E0
E070
E000
E000
3F00
7F00
E000
E000
C000
C070
E070
F0E0
7FC0
1F80
ENDCHAR
STARTCHAR uni0511
ENCODING 1297
SWIDTH 546 0
DWIDTH 12 0
BBX 10 12 1 0
BITMAP
3F00
7F80
E1C0
E1C0
E000
7E00
7E00
E000
E0C0
E1C0
7F80
3F00
ENDCHAR
STARTCHAR uni0512
ENCODING 1298
SWIDTH 785 0
DWIDTH 17 0
BBX 16 20 1 -4
BITMAP
1FF8
1FF8
1C38
1838
1838
1838
1838
1838
1838
1838
3838
3838
3838
7038
F03F
E03F
0007
0007
001E
003C
ENDCHAR
STARTCHAR uni0513
ENCODING 1299
SWIDTH 655 0
DWIDTH 14 0
BBX 13 16 1 -4
BITMAP
3FC0
3FC0
30C0
30C0
30C0
30C0
30C0
30C0
70C0
70C0
E0F8
C0F8
0038
0038
00F0
00E0
ENDCHAR
STARTCHAR uni1E00
ENCODING 7680
SWIDTH 665 0
DWIDTH 15 0
BBX 14 21 0 -5
BITMAP
0380
0380
0780
07C0
0EC0
0EE0
0CE0
1C60
1C70
1870
3FF0
3FF8
7018
701C
601C
E01C
0000
0380
0280
0680
0380
ENDCHAR
STARTCHAR uni1E01
ENCODING 7681
SWIDTH 541 0
DWIDTH 12 0
BBX 10 17 1 -5
BITMAP
1E00
7F80
6380
E1C0
01C0
3FC0
7FC0
E1C0
E1C0
E3C0
7FC0
3DC0
0000
1800
2400
2400
1C00
ENDCHAR
STARTCHAR uni1E3E
ENCODING 7742
SWIDTH 875 0
DWIDTH 19 0
BBX 16 20 2 0
BITMAP
00E0
01C0
0380
0000
E00F
F00F
F01F
F01F
F83F
D83F
DC37
DC77
CC67
CE67
C6E7
C6C7
C7C7
C3C7
C387
C387
ENDCHAR
STARTCHAR uni1E3F
ENCODING 7743
SWIDTH 870 0
DWIDTH 19 0
BBX 17 16 1 0
BITMAP
007800
00E000
01C000
000000
EF1E00
FFBF00
F1E380
E1C380
E1C380
E1C380
E1C380
E1C380
E1C380
E1C380
E1C380
E1C380
ENDCHAR
STARTCHAR Wgrave
ENCODING 7808
SWIDTH 879 0
DWIDTH 19 0
BBX 19 20 0 0
BITMAP
03C000
00C000
006000
000000
E0E0E0
60E0C0
70E0C0
70F1C0
71F1C0
31B1C0
31B180
39B980
3B9B80
3B1B80
1B1B00
1B1F00
1E0F00
1E0F00
0E0E00
0E0E00
ENDCHAR
STARTCHAR wgrave
ENCODING 7809
SWIDTH 743 0
DWIDTH 16 0
BBX 16 16 0 0
BITMAP
0F00
0380
0180
0000
E187
6186
63C6
73CE
73CE
36EC
366C
366C
3E7C
1C38
1C38
1C38
ENDCHAR
STARTCHAR Wacute
ENCODING 7810
SWIDTH 879 0
DWIDTH 19 0
BBX 19 20 0 0
BITMAP
003C00
007000
00E000
000000
E0E0E0
60E0C0
70E0C0
70F1C0
71F1C0
31B1C0
31B180
39B980
3B9B80
3B1B80
1B1B00
1B1F00
1E0F00
1E0F00
0E0E00
0E0E00
ENDCHAR
STARTCHAR wacute
ENCODING 7811
SWIDTH 743 0
DWIDTH 16 0
BBX 16 16 0 0
BITMAP
00F0
00C0
0180
0000
E187
6186
63C6
73CE
73CE
36EC
366C
366C
3E7C
1C38
1C38
1C38
ENDCHAR
STARTCHAR Wdieresis
ENCODING 7812
SWIDTH 879 0
DWIDTH 19 0
BBX 19 20 0 0
BITMAP
031800
039C00
031800
000000
E0E0E0
60E0C0
70E0C0
70F1C0
71F1C0
31B1C0
31B180
39B980
3B9B80
3B1B80
1B1B00
1B1F00
1E0F00
1E0F00
0E0E00
0E0E00
ENDCHAR
STARTCHAR wdieresis
ENCODING 7813
SWIDTH 743 0
DWIDTH 16 0
BBX 16 16 0 0
BITMAP
0630
0E70
0630
0000
E187
6186
63C6
73CE
73CE
36EC
366C
366C
3E7C
1C38
1C38
1C38
ENDCHAR
STARTCHAR uni1EA0
ENCODING 7840
SWIDTH 665 0
DWIDTH 15 0
BBX 14 20 0 -4
BITMAP
0380
0380
0780
07C0
0EC0
0EE0
0CE0
1C60
1C70
1870
3FF0
3FF8
7018
701C
601C
E01C
0000
0380
0380
0380
ENDCHAR
STARTCHAR uni1EA1
ENCODING 7841
SWIDTH 541 0
DWIDTH 12 0
BBX 10 16 1 -4
BITMAP
1E00
7F80
6380
E1C0
01C0
3FC0
7FC0
E1C0
E1C0
E3C0
7FC0
3DC0
0000
1800
1C00
1800
ENDCHAR
STARTCHAR uni1EA2
ENCODING 7842
SWIDTH 665 0
DWIDTH 15 0
BBX 14 21 0 0
BITMAP
0380
00C0
03C0
0300
0000
0380
0380
0780
07C0
0EC0
0EE0
0CE0
1C60
1C70
1870
3FF0
3FF8
7018
701C
601C
E01C
ENDCHAR
STARTCHAR uni1EA3
ENCODING 7843
SWIDTH 541 0
DWIDTH 12 0
BBX 10 17 1 0
BITMAP
0E00
0300
0F00
0C00
0000
1E00
7F80
6380
E1C0
01C0
3FC0
7FC0
E1C0
E1C0
E3C0
7FC0
3DC0
ENDCHAR
STARTCHAR uni1EA4
ENCODING 7844
SWIDTH 665 0
DWIDTH 15 0
BBX 15 22 0 0
BITMAP
000E
0018
0398
06C0
1C60
0000
0380
0380
0780
07C0
0EC0
0EE0
0CE0
1C60
1C70
1870
3FF0
3FF8
7018
701C
601C
E01C
ENDCHAR
STARTCHAR uni1EA5
ENCODING 7845
SWIDTH 541 0
DWIDTH 12 0
BBX 12 18 1 0
BITMAP
0030
0060
0EC0
3F00
7380
0000
1E00
7F80
6380
E1C0
01C0
3FC0
7FC0
E1C0
E1C0
E3C0
7FC0
3DC0
ENDCHAR
STARTCHAR uni1EA6
ENCODING 7846
SWIDTH 665 0
DWIDTH 15 0
BBX 14 22 0 0
BITMAP
E000
7000
3380
06C0
1C60
0000
0380
0380
0780
07C0
0EC0
0EE0
0CE0
1C60
1C70
1870
3FF0
3FF8
7018
701C
601C
E01C
ENDCHAR
STARTCHAR uni1EA7
ENCODING 7847
SWIDTH 541 0
DWIDTH 12 0
BBX 12 18 -1 0
BITMAP
E000
6000
3380
0FC0
1CE0
0000
0780
1FE0
18E0
3870
0070
0FF0
1FF0
3870
3870
38F0
1FF0
0F70
ENDCHAR
STARTCHAR uni1EA8
ENCODING 7848
SWIDTH 665 0
DWIDTH 15 0
BBX 14 22 0 0
BITMAP
0030
0018
03B8
06F0
1C60
0000
0380
0380
0780
07C0
0EC0
0EE0
0CE0
1C60
1C70
1870
3FF0
3FF8
7018
701C
601C
E01C
ENDCHAR
STARTCHAR uni1EA9
ENCODING 7849
SWIDTH 541 0
DWIDTH 12 0
BBX 11 18 1 0
BITMAP
00C0
0060
1EE0
3BC0
7180
0000
1E00
7F80
6380
E1C0
01C0
3FC0
7FC0
E1C0
E1C0
E3C0
7FC0
3DC0
ENDCHAR
STARTCHAR uni1EAA
ENCODING 7850
SWIDTH 665 0
DWIDTH 15 0
BBX 14 23 0 0
BITMAP
0640
05C0
0000
0380
06C0
1C60
0000
0380
0380
0780
07C0
0EC0
0EE0
0CE0
1C60
1C70
1870
3FF0
3FF8
7018
701C
601C
E01C
ENDCHAR
STARTCHAR uni1EAB
ENCODING 7851
SWIDTH 541 0
DWIDTH 12 0
BBX 10 19 1 0
BITMAP
1900
2600
0000
0E00
3F00
7380
0000
1E00
7F80
6380
E1C0
01C0
3FC0
7FC0
E1C0
E1C0
E3C0
7FC0
3DC0
ENDCHAR
STARTCHAR uni1EAC
ENCODING 7852
SWIDTH 665 0
DWIDTH 15 0
BBX 14 24 0 -4
BITMAP
0380
07C0
0CE0
0000
0380
0380
0780
07C0
0EC0
0EE0
0CE0
1C60
1C70
1870
3FF0
3FF8
7018
701C
601C
E01C
0000
0380
0380
0380
ENDCHAR
STARTCHAR uni1EAD
ENCODING 7853
SWIDTH 541 0
DWIDTH 12 0
BBX 10 20 1 -4
BITMAP
0C00
1F00
7380
0000
1E00
7F80
6380
E1C0
01C0
3FC0
7FC0
E1C0
E1C0
E3C0
7FC0
3DC0
0000
1800
1C00
1800
ENDCHAR
STARTCHAR uni1EAE
ENCODING 7854
SWIDTH 665 0
DWIDTH 15 0
BBX 14 21 0 0
BITMAP
01C0
0100
0C60
07C0
0000
0380
0380
0780
07C0
0EC0
0EE0
0CE0
1C60
1C70
1870
3FF0
3FF8
7018
701C
601C
E01C
ENDCHAR
STARTCHAR uni1EAF
ENCODING 7855
SWIDTH 541 0
DWIDTH 12 0
BBX 10 17 1 0
BITMAP
0700
0C00
3380
1E00
0000
1E00
7F80
6380
E1C0
01C0
3FC0
7FC0
E1C0
E1C0
E3C0
7FC0
3DC0
ENDCHAR
STARTCHAR uni1EB0
ENCODING 7856
SWIDTH 665 0
DWIDTH 15 0
BBX 14 21 0 0
BITMAP
0600
0300
0C60
07C0
0000
0380
0380
0780
07C0
0EC0
0EE0
0CE0
1C60
1C70
1870
3FF0
3FF8
7018
701C
601C
E01C
ENDCHAR
STARTCHAR uni1EB1
ENCODING 7857
SWIDTH 541 0
DWIDTH 12 0
BBX 10 17 1 0
BITMAP
1800
0C00
3380
1E00
0000
1E00
7F80
6380
E1C0
01C0
3FC0
7FC0
E1C0
E1C0
E3C0
7FC0
3DC0
ENDCHAR
STARTCHAR uni1EB2
ENCODING 7858
SWIDTH 665 0
DWIDTH 15 0
BBX 14 22 0 0
BITMAP
0380
00C0
0300
0C60
07C0
0000
0380
0380
0780
07C0
0EC0
0EE0
0CE0
1C60
1C70
1870
3FF0
3FF8
7018
701C
601C
E01C
ENDCHAR
STARTCHAR uni1EB3
ENCODING 7859
SWIDTH 541 0
DWIDTH 12 0
BBX 10 18 1 0
BITMAP
0E00
0200
0C00
3300
1E00
0000
1E00
7F80
6380
E1C0
01C0
3FC0
7FC0
E1C0
E1C0
E3C0
7FC0
3DC0
ENDCHAR
STARTCHAR uni1EB4
ENCODING 7860
SWIDTH 665 0
DWIDTH 15 0
BBX 14 22 0 0
BITMAP
0640
0DC0
0000
0C60
07C0
0000
0380
0380
0780
07C0
0EC0
0EE0
0CE0
1C60
1C70
1870
3FF0
3FF8
7018
701C
601C
E01C
ENDCHAR
STARTCHAR uni1EB5
ENCODING 7861
SWIDTH 541 0
DWIDTH 12 0
BBX 10 18 1 0
BITMAP
1900
2700
0000
3300
1E00
0000
1E00
7F80
6380
E1C0
01C0
3FC0
7FC0
E1C0
E1C0
E3C0
7FC0
3DC0
ENDCHAR
STARTCHAR uni1EB6
ENCODING 7862
SWIDTH 665 0
DWIDTH 15 0
BBX 14 24 0 -4
BITMAP
0C60
0FC0
0780
0000
0380
0380
0780
07C0
0EC0
0EE0
0CE0
1C60
1C70
1870
3FF0
3FF8
7018
701C
601C
E01C
0000
0380
0380
0380
ENDCHAR
STARTCHAR uni1EB7
ENCODING 7863
SWIDTH 541 0
DWIDTH 12 0
BBX 10 20 1 -4
BITMAP
3380
3F00
1E00
0000
1E00
7F80
6380
E1C0
01C0
3FC0
7FC0
E1C0
E1C0
E3C0
7FC0
3DC0
0000
1800
1C00
1800
ENDCHAR
STARTCHAR uni1EB8
ENCODING 7864
SWIDTH 565 0
DWIDTH 12 0
BBX 10 20 2 -4
BITMAP
FFC0
FFC0
C000
C000
C000
C000
C000
FF80
FF80
C000
C000
C000
C000
C000
FFC0
FFC0
0000
0C00
1C00
0C00
ENDCHAR
STARTCHAR uni1EB9
ENCODING 7865
SWIDTH 536 0
DWIDTH 12 0
BBX 10 16 1 -4
BITMAP
1F00
3F80
71C0
E1C0
E0C0
FFC0
FFC0
E000
E080
70C0
3F80
1F00
0000
0C00
0E00
0C00
ENDCHAR
STARTCHAR uni1EBA
ENCODING 7866
SWIDTH 565 0
DWIDTH 12 0
BBX 10 21 2 0
BITMAP
0C00
0600
0E00
0C00
0000
FFC0
FFC0
C000
C000
C000
C000
C000
FF80
FF80
C000
C000
C000
C000
C000
FFC0
FFC0
ENDCHAR
STARTCHAR uni1EBB
ENCODING 7867
SWIDTH 536 0
DWIDTH 12 0
BBX 10 17 1 0
BITMAP
0E00
0700
0E00
0C00
0000
1F00
3F80
71C0
E1C0
E0C0
FFC0
FFC0
E000
E080
70C0
3F80
1F00
ENDCHAR
STARTCHAR uni1EBC
ENCODING 7868
SWIDTH 565 0
DWIDTH 12 0
BBX 10 20 2 0
BITMAP
3980
7F00
6700
0000
FFC0
FFC0
C000
C000
C000
C000
C000
FF80
FF80
C000
C000
C000
C000
C000
FFC0
FFC0
ENDCHAR
STARTCHAR uni1EBD
ENCODING 7869
SWIDTH 536 0
DWIDTH 12 0
BBX 10 17 1 0
BITMAP
3980
7F80
6700
0000
0000
1F00
3F80
71C0
E1C0
E0C0
FFC0
FFC0
E000
E080
70C0
3F80
1F00
ENDCHAR
STARTCHAR uni1EBE
ENCODING 7870
SWIDTH 565 0
DWIDTH 12 0
BBX 12 22 2 0
BITMAP
0070
0060
1CC0
3E00
7380
0000
FFC0
FFC0
C000
C000
C000
C000
C000
FF80
FF80
C000
C000
C000
C000
C000
FFC0
FFC0
ENDCHAR
STARTCHAR uni1EBF
ENCODING 7871
SWIDTH 536 0
DWIDTH 12 0
BBX 12 18 1 0
BITMAP
0070
0060
1CC0
3F00
7380
0000
1F00
3F80
71C0
E1C0
E0C0
FFC0
FFC0
E000
E080
70C0
3F80
1F00
ENDCHAR
STARTCHAR uni1EC0
ENCODING 7872
SWIDTH 565 0
DWIDTH 12 0
BBX 12 22 0 0
BITMAP
C000
6000
7700
0F80
1CE0
0000
3FF0
3FF0
3000
3000
3000
3000
3000
3FE0
3FE0
3000
3000
3000
3000
3000
3FF0
3FF0
ENDCHAR
STARTCHAR uni1EC1
ENCODING 7873
SWIDTH 536 0
DWIDTH 12 0
BBX 12 18 -1 0
BITMAP
C000
6000
3700
0FC0
1CE0
0000
07C0
0FE0
1C70
3870
3830
3FF0
3FF0
3800
3820
1C30
0FE0
07C0
ENDCHAR
STARTCHAR uni1EC2
ENCODING 7874
SWIDTH 565 0
DWIDTH 12 0
BBX 11 22 2 0
BITMAP
00C0
0060
1CC0
3780
6380
0000
FFC0
FFC0
C000
C000
C000
C000
C000
FF80
FF80
C000
C000
C000
C000
C000
FFC0
FFC0
ENDCHAR
STARTCHAR uni1EC3
ENCODING 7875
SWIDTH 536 0
DWIDTH 12 0
BBX 11 18 1 0
BITMAP
00C0
0060
1EE0
3F80
7380
0000
1F00
3F80
71C0
E1C0
E0C0
FFC0
FFC0
E000
E080
70C0
3F80
1F00
ENDCHAR
STARTCHAR uni1EC4
ENCODING 7876
SWIDTH 565 0
DWIDTH 12 0
BBX 10 23 2 0
BITMAP
3B00
2600
0000
1C00
3600
6380
0000
FFC0
FFC0
C000
C000
C000
C000
C000
FF80
FF80
C000
C000
C000
C000
C000
FFC0
FFC0
ENDCHAR
STARTCHAR uni1EC5
ENCODING 7877
SWIDTH 536 0
DWIDTH 12 0
BBX 10 19 1 0
BITMAP
1900
2600
0000
0C00
3F00
7380
0000
1F00
3F80
71C0
E1C0
E0C0
FFC0
FFC0
E000
E080
70C0
3F80
1F00
ENDCHAR
STARTCHAR uni1EC6
ENCODING 7878
SWIDTH 565 0
DWIDTH 12 0
BBX 10 24 2 -4
BITMAP
1C00
3E00
7300
0000
FFC0
FFC0
C000
C000
C000
C000
C000
FF80
FF80
C000
C000
C000
C000
C000
FFC0
FFC0
0000
0C00
1C00
0C00
ENDCHAR
STARTCHAR uni1EC7
ENCODING 7879
SWIDTH 536 0
DWIDTH 12 0
BBX 10 20 1 -4
BITMAP
0C00
3F00
7380
0000
1F00
3F80
71C0
E1C0
E0C0
FFC0
FFC0
E000
E080
70C0
3F80
1F00
0000
0C00
0E00
0C00
ENDCHAR
STARTCHAR uni1EC8
ENCODING 7880
SWIDTH 282 0
DWIDTH 6 0
BBX 4 21 2 0
BITMAP
E0
30
F0
C0
00
C0
C0
C0
C0
C0
C0
C0
C0
C0
C0
C0
C0
C0
C0
C0
C0
ENDCHAR
STARTCHAR uni1EC9
ENCODING 7881
SWIDTH 262 0
DWIDTH 6 0
BBX 3 17 2 0
BITMAP
E0
60
E0
C0
00
C0
C0
C0
C0
C0
C0
C0
C0
C0
C0
C0
C0
ENDCHAR
STARTCHAR uni1ECA
ENCODING 7882
SWIDTH 282 0
DWIDTH 6 0
BBX 3 20 2 -4
BITMAP
C0
C0
C0
C0
C0
C0
C0
C0
C0
C0
C0
C0
C0
C0
C0
C0
00
C0
E0
C0
ENDCHAR
STARTCHAR uni1ECB
ENCODING 7883
SWIDTH 255 0
DWIDTH 6 0
BBX 3 21 1 -4
BITMAP
60
E0
60
00
00
60
60
60
60
60
60
60
60
60
60
60
60
00
60
E0
60
ENDCHAR
STARTCHAR uni1ECC
ENCODING 7884
SWIDTH 690 0
DWIDTH 15 0
BBX 13 20 1 -4
BITMAP
0F80
3FE0
78F0
7070
E038
E038
E038
E038
E038
E038
E038
E038
7070
78F0
3FE0
0F80
0000
0700
0700
0700
ENDCHAR
STARTCHAR uni1ECD
ENCODING 7885
SWIDTH 569 0
DWIDTH 13 0
BBX 11 16 1 -4
BITMAP
1F00
3F80
71C0
E0E0
E0E0
E0E0
E0E0
E0E0
E0E0
71C0
3F80
1F00
0000
0C00
0E00
0C00
ENDCHAR
STARTCHAR uni1ECE
ENCODING 7886
SWIDTH 690 0
DWIDTH 15 0
BBX 13 21 1 0
BITMAP
0700
0180
0380
0300
0000
0F80
3FE0
78F0
7070
E038
E038
E038
E038
E038
E038
E038
E038
7070
78F0
3FE0
0F80
ENDCHAR
STARTCHAR uni1ECF
ENCODING 7887
SWIDTH 569 0
DWIDTH 13 0
BBX 11 17 1 0
BITMAP
0E00
0300
0F00
0C00
0000
1F00
3F80
71C0
E0E0
E0E0
E0E0
E0E0
E0E0
E0E0
71C0
3F80
1F00
ENDCHAR
STARTCHAR uni1ED0
ENCODING 7888
SWIDTH 690 0
DWIDTH 15 0
BBX 14 22 1 0
BITMAP
001C
0038
0730
0D80
18E0
0000
0F80
3FE0
78F0
7070
E038
E038
E038
E038
E038
E038
E038
E038
7070
78F0
3FE0
0F80
ENDCHAR
STARTCHAR uni1ED1
ENCODING 7889
SWIDTH 569 0
DWIDTH 13 0
BBX 12 18 1 0
BITMAP
0030
0060
0EC0
3F00
7380
0000
1F00
3F80
71C0
E0E0
E0E0
E0E0
E0E0
E0E0
E0E0
71C0
3F80
1F00
ENDCHAR
STARTCHAR uni1ED2
ENCODING 7890
SWIDTH 690 0
DWIDTH 15 0
BBX 14 22 0 0
BITMAP
E000
3000
3380
06C0
0C70
0000
07C0
1FF0
3C78
3838
701C
701C
701C
701C
701C
701C
701C
701C
3838
3C78
1FF0
07C0
ENDCHAR
STARTCHAR uni1ED3
ENCODING 7891
SWIDTH 569 0
DWIDTH 13 0
BBX 13 18 -1 0
BITMAP
E000
6000
3380
0FC0
1CE0
0000
07C0
0FE0
1C70
3838
3838
3838
3838
3838
3838
1C70
0FE0
07C0
ENDCHAR
STARTCHAR uni1ED4
ENCODING 7892
SWIDTH 690 0
DWIDTH 15 0
BBX 13 22 1 0
BITMAP
0070
0010
0730
0DA0
18E0
0000
0F80
3FE0
78F0
7070
E038
E038
E038
E038
E038
E038
E038
E038
7070
78F0
3FE0
0F80
ENDCHAR
STARTCHAR uni1ED5
ENCODING 7893
SWIDTH 569 0
DWIDTH 13 0
BBX 11 18 1 0
BITMAP
00C0
0060
0EE0
3BC0
7180
0000
1F00
3F80
71C0
E0E0
E0E0
E0E0
E0E0
E0E0
E0E0
71C0
3F80
1F00
ENDCHAR
STARTCHAR uni1ED6
ENCODING 7894
SWIDTH 690 0
DWIDTH 15 0
BBX 13 23 1 0
BITMAP
0E80
0980
0000
0700
0D80
18E0
0000
0F80
3FE0
78F0
7070
E038
E038
E038
E038
E038
E038
E038
E038
7070
78F0
3FE0
0F80
ENDCHAR
STARTCHAR uni1ED7
ENCODING 7895
SWIDTH 569 0
DWIDTH 13 0
BBX 11 19 1 0
BITMAP
1900
3600
0000
0E00
3B00
7180
0000
1F00
3F80
71C0
E0E0
E0E0
E0E0
E0E0
E0E0
E0E0
71C0
3F80
1F00
ENDCHAR
STARTCHAR uni1ED8
ENCODING 7896
SWIDTH 690 0
DWIDTH 15 0
BBX 13 24 1 -4
BITMAP
0700
0D80
18C0
0000
0F80
3FE0
78F0
7070
E038
E038
E038
E038
E038
E038
E038
E038
7070
78F0
3FE0
0F80
0000
0700
0700
0700
ENDCHAR
STARTCHAR uni1ED9
ENCODING 7897
SWIDTH 569 0
DWIDTH 13 0
BBX 11 20 1 -4
BITMAP
0E00
1F00
3380
0000
1F00
3F80
71C0
E0E0
E0E0
E0E0
E0E0
E0E0
E0E0
71C0
3F80
1F00
0000
0C00
0E00
0C00
ENDCHAR
STARTCHAR uni1EDA
ENCODING 7898
SWIDTH 692 0
DWIDTH 15 0
BBX 14 20 1 0
BITMAP
01C0
0380
0700
000C
0F8C
3FCC
70F8
7070
E030
E038
E038
E038
E038
E038
E038
E030
7070
78E0
3FC0
0F80
ENDCHAR
STARTCHAR uni1EDB
ENCODING 7899
SWIDTH 577 0
DWIDTH 13 0
BBX 12 16 1 0
BITMAP
0380
0600
0C00
0030
1F30
3FB0
71E0
E0C0
E0E0
E0E0
E0E0
E0E0
E0C0
71C0
3F80
1F00
ENDCHAR
STARTCHAR uni1EDC
ENCODING 7900
SWIDTH 692 0
DWIDTH 15 0
BBX 14 20 1 0
BITMAP
1C00
0E00
0700
000C
0F8C
3FCC
70F8
7070
E030
E038
E038
E038
E038
E038
E038
E030
7070
78E0
3FC0
0F80
ENDCHAR
STARTCHAR uni1EDD
ENCODING 7901
SWIDTH 577 0
DWIDTH 13 0
BBX 12 16 1 0
BITMAP
3800
1C00
0E00
0030
1F30
3FB0
71E0
E0C0
E0E0
E0E0
E0E0
E0E0
E0C0
71C0
3F80
1F00
ENDCHAR
STARTCHAR uni1EDE
ENCODING 7902
SWIDTH 692 0
DWIDTH 15 0
BBX 14 21 1 0
BITMAP
0700
0180
0380
0300
000C
0F8C
3FCC
70F8
7070
E030
E038
E038
E038
E038
E038
E038
E030
7070
78E0
3FC0
0F80
ENDCHAR
STARTCHAR uni1EDF
ENCODING 7903
SWIDTH 577 0
DWIDTH 13 0
BBX 12 17 1 0
BITMAP
0E00
0300
0F00
0C00
0030
1F30
3FB0
71E0
E0C0
E0E0
E0E0
E0E0
E0E0
E0C0
71C0
3F80
1F00
ENDCHAR
STARTCHAR uni1EE0
ENCODING 7904
SWIDTH 692 0
DWIDTH 15 0
BBX 14 20 1 0
BITMAP
0C40
1FC0
1180
000C
0F8C
3FCC
70F8
7070
E030
E038
E038
E038
E038
E038
E038
E030
7070
78E0
3FC0
0F80
ENDCHAR
STARTCHAR uni1EE1
ENCODING 7905
SWIDTH 577 0
DWIDTH 13 0
BBX 12 17 1 0
BITMAP
3980
3F80
6700
0000
0030
1F30
3FB0
71E0
E0C0
E0E0
E0E0
E0E0
E0E0
E0C0
71C0
3F80
1F00
ENDCHAR
STARTCHAR uni1EE2
ENCODING 7906
SWIDTH 692 0
DWIDTH 15 0
BBX 14 21 1 -4
BITMAP
000C
0F8C
3FCC
70F8
7070
E030
E038
E038
E038
E038
E038
E038
E030
7070
78E0
3FC0
0F80
0000
0600
0700
0600
ENDCHAR
STARTCHAR uni1EE3
ENCODING 7907
SWIDTH 577 0
DWIDTH 13 0
BBX 12 17 1 -4
BITMAP
0030
1F30
3FB0
71E0
E0C0
E0E0
E0E0
E0E0
E0E0
E0C0
71C0
3F80
1F00
0000
0C00
0E00
0C00
ENDCHAR
STARTCHAR uni1EE4
ENCODING 7908
SWIDTH 651 0
DWIDTH 14 0
BBX 12 20 1 -4
BITMAP
E070
E070
E070
E070
E070
E070
E070
E070
E070
E070
E070
E070
E070
70E0
3FC0
1F80
0000
0600
0700
0600
ENDCHAR
STARTCHAR uni1EE5
ENCODING 7909
SWIDTH 555 0
DWIDTH 12 0
BBX 10 16 1 -4
BITMAP
E1C0
E1C0
E1C0
E1C0
E1C0
E1C0
E1C0
E1C0
E1C0
E3C0
7FC0
3DC0
0000
1800
1C00
1800
ENDCHAR
STARTCHAR uni1EE6
ENCODING 7910
SWIDTH 651 0
DWIDTH 14 0
BBX 12 21 1 0
BITMAP
0700
0180
0780
0600
0000
E070
E070
E070
E070
E070
E070
E070
E070
E070
E070
E070
E070
E070
70E0
3FC0
1F80
ENDCHAR
STARTCHAR uni1EE7
ENCODING 7911
SWIDTH 555 0
DWIDTH 12 0
BBX 10 17 1 0
BITMAP
0E00
0300
0F00
0C00
0000
E1C0
E1C0
E1C0
E1C0
E1C0
E1C0
E1C0
E1C0
E1C0
E3C0
7FC0
3DC0
ENDCHAR
STARTCHAR uni1EE8
ENCODING 7912
SWIDTH 705 0
DWIDTH 16 0
BBX 15 20 2 0
BITMAP
0380
0700
0E00
0006
C066
C066
C07C
C060
C060
C060
C060
C060
C060
C060
C060
C0E0
E0E0
E1C0
7FC0
1F00
ENDCHAR
STARTCHAR uni1EE9
ENCODING 7913
SWIDTH 618 0
DWIDTH 14 0
BBX 13 16 1 0
BITMAP
0380
0600
0C00
0008
E1D8
E1F0
E1C0
E1C0
E1C0
E1C0
E1C0
E1C0
61C0
71C0
7FC0
3CC0
ENDCHAR
STARTCHAR uni1EEA
ENCODING 7914
SWIDTH 705 0
DWIDTH 16 0
BBX 15 20 2 0
BITMAP
3800
1C00
0E00
0006
C066
C066
C07C
C060
C060
C060
C060
C060
C060
C060
C060
C0E0
E0E0
E1C0
7FC0
1F00
ENDCHAR
STARTCHAR uni1EEB
ENCODING 7915
SWIDTH 618 0
DWIDTH 14 0
BBX 13 16 1 0
BITMAP
3800
1C00
0E00
0008
E1D8
E1F0
E1C0
E1C0
E1C0
E1C0
E1C0
E1C0
61C0
71C0
7FC0
3CC0
ENDCHAR
STARTCHAR uni1EEC
ENCODING 7916
SWIDTH 705 0
DWIDTH 16 0
BBX 15 21 2 0
BITMAP
0E00
0300
0700
0600
0006
C066
C066
C07C
C060
C060
C060
C060
C060
C060
C060
C060
C0E0
E0E0
E1C0
7FC0
1F00
ENDCHAR
STARTCHAR uni1EED
ENCODING 7917
SWIDTH 618 0
DWIDTH 14 0
BBX 13 17 1 0
BITMAP
0E00
0300
0F00
0C00
0008
E1D8
E1F0
E1C0
E1C0
E1C0
E1C0
E1C0
E1C0
61C0
71C0
7FC0
3CC0
ENDCHAR
STARTCHAR uni1EEE
ENCODING 7918
SWIDTH 705 0
DWIDTH 16 0
BBX 15 20 2 0
BITMAP
1CC0
3F80
2380
0006
C066
C066
C07C
C060
C060
C060
C060
C060
C060
C060
C060
C0E0
E0E0
E1C0
7FC0
1F00
ENDCHAR
STARTCHAR uni1EEF
ENCODING 7919
SWIDTH 618 0
DWIDTH 14 0
BBX 13 17 1 0
BITMAP
3980
3F80
6700
0000
0008
E1D8
E1F0
E1C0
E1C0
E1C0
E1C0
E1C0
E1C0
61C0
71C0
7FC0
3CC0
ENDCHAR
STARTCHAR uni1EF0
ENCODING 7920
SWIDTH 705 0
DWIDTH 16 0
BBX 15 21 2 -4
BITMAP
0006
C066
C066
C07C
C060
C060
C060
C060
C060
C060
C060
C060
C0E0
E0E0
E1C0
7FC0
1F00
0000
0E00
0E00
0E00
ENDCHAR
STARTCHAR uni1EF1
ENCODING 7921
SWIDTH 618 0
DWIDTH 14 0
BBX 13 17 1 -4
BITMAP
0008
E1D8
E1F0
E1C0
E1C0
E1C0
E1C0
E1C0
E1C0
61C0
71C0
7FC0
3CC0
0000
0C00
0E00
0C00
ENDCHAR
STARTCHAR Ygrave
ENCODING 7922
SWIDTH 609 0
DWIDTH 13 0
BBX 13 20 0 0
BITMAP
1C00
0E00
0700
0000
E038
7038
7070
3860
38E0
1CC0
1DC0
0F80
0F80
0700
0700
0700
0700
0700
0700
0700
ENDCHAR
STARTCHAR ygrave
ENCODING 7923
SWIDTH 486 0
DWIDTH 11 0
BBX 11 20 0 -4
BITMAP
3800
1C00
0E00
0000
E0E0
71C0
71C0
3180
3980
3B80
1B00
1B00
1F00
0E00
0E00
0E00
0C00
1C00
7800
7000
ENDCHAR
STARTCHAR uni1EF4
ENCODING 7924
SWIDTH 609 0
DWIDTH 13 0
BBX 13 20 0 -4
BITMAP
E038
7038
7070
3860
38E0
1CC0
1DC0
0F80
0F80
0700
0700
0700
0700
0700
0700
0700
0000
0700
0700
0700
ENDCHAR
STARTCHAR uni1EF5
ENCODING 7925
SWIDTH 486 0
DWIDTH 11 0
BBX 11 17 0 -5
BITMAP
E0E0
71C0
71C0
3180
3980
3B80
1B00
1B00
1F00
0E00
0E00
0E00
0C00
1C00
7980
7180
01C0
ENDCHAR
STARTCHAR uni1EF6
ENCODING 7926
SWIDTH 609 0
DWIDTH 13 0
BBX 13 21 0 0
BITMAP
0300
0180
0380
0300
0000
E038
7038
7070
3860
38E0
1CC0
1DC0
0F80
0F80
0700
0700
0700
0700
0700
0700
0700
ENDCHAR
STARTCHAR uni1EF7
ENCODING 7927
SWIDTH 486 0
DWIDTH 11 0
BBX 11 21 0 -4
BITMAP
0E00
0300
0F00
0400
0000
E0E0
71C0
71C0
3180
3980
3B80
1B00
1B00
1F00
0E00
0E00
0E00
0C00
1C00
7800
7000
ENDCHAR
STARTCHAR uni1EF8
ENCODING 7928
SWIDTH 609 0
DWIDTH 13 0
BBX 13 20 0 0
BITMAP
0E60
1FC0
19C0
0000
E038
7038
7070
3860
38E0
1CC0
1DC0
0F80
0F80
0700
0700
0700
0700
0700
0700
0700
ENDCHAR
STARTCHAR uni1EF9
ENCODING 7929
SWIDTH 486 0
DWIDTH 11 0
BBX 11 21 0 -4
BITMAP
1880
3F80
2300
0000
0000
E0E0
71C0
71C0
3180
3980
3B80
1B00
1B00
1F00
0E00
0E00
0E00
0C00
1C00
7800
7000
ENDCHAR
STARTCHAR uni1F4D
ENCODING 8013
SWIDTH 724 0
DWIDTH 16 0
BBX 20 16 -5 0
BITMAP
CC1F00
CC7F80
D8E1C0
70C0E0
01C060
01C070
01C070
018070
018070
01C070
01C070
01C060
00C0E0
00E1C0
007F80
001F00
ENDCHAR
STARTCHAR uni2000
ENCODING 8192
SWIDTH 509 0
DWIDTH 11 0
BBX 1 1 0 0
BITMAP
00
ENDCHAR
STARTCHAR uni2001
ENCODING 8193
SWIDTH 1020 0
DWIDTH 22 0
BBX 1 1 0 0
BITMAP
00
ENDCHAR
STARTCHAR uni2002
ENCODING 8194
SWIDTH 509 0
DWIDTH 11 0
BBX 1 1 0 0
BITMAP
00
ENDCHAR
STARTCHAR uni2003
ENCODING 8195
SWIDTH 1020 0
DWIDTH 22 0
BBX 1 1 0 0
BITMAP
00
ENDCHAR
STARTCHAR uni2004
ENCODING 8196
SWIDTH 340 0
DWIDTH 7 0
BBX 1 1 0 0
BITMAP
00
ENDCHAR
STARTCHAR uni2005
ENCODING 8197
SWIDTH 254 0
DWIDTH 6 0
BBX 1 1 0 0
BITMAP
00
ENDCHAR
STARTCHAR uni2006
ENCODING 8198
SWIDTH 169 0
DWIDTH 4 0
BBX 1 1 0 0
BITMAP
00
ENDCHAR
STARTCHAR uni2007
ENCODING 8199
SWIDTH 562 0
DWIDTH 12 0
BBX 1 1 0 0
BITMAP
00
ENDCHAR
STARTCHAR uni2008
ENCODING 8200
SWIDTH 273 0
DWIDTH 6 0
BBX 1 1 0 0
BITMAP
00
ENDCHAR
STARTCHAR uni2009
ENCODING 8201
SWIDTH 204 0
DWIDTH 4 0
BBX 1 1 0 0
BITMAP
00
ENDCHAR
STARTCHAR uni200A
ENCODING 8202
SWIDTH 102 0
DWIDTH 2 0
BBX 1 1 0 0
BITMAP
00
ENDCHAR
STARTCHAR uni200B
ENCODING 8203
SWIDTH 0 0
DWIDTH 0 0
BBX 1 1 0 0
BITMAP
00
ENDCHAR
STARTCHAR uni2010
ENCODING 8208
SWIDTH 328 0
DWIDTH 7 0
BBX 5 2 1 6
BITMAP
F8
F8
ENDCHAR
STARTCHAR uni2011
ENCODING 8209
SWIDTH 328 0
DWIDTH 7 0
BBX 5 2 1 6
BITMAP
F8
F8
ENDCHAR
STARTCHAR endash
ENCODING 8211
SWIDTH 645 0
DWIDTH 14 0
BBX 11 2 2 7
BITMAP
FFE0
FFE0
ENDCHAR
STARTCHAR emdash
ENCODING 8212
SWIDTH 773 0
DWIDTH 17 0
BBX 14 2 1 7
BITMAP
FFFC
FFFC
ENDCHAR
STARTCHAR uni2015
ENCODING 8213
SWIDTH 773 0
DWIDTH 17 0
BBX 14 2 1 7
BITMAP
FFFC
FFFC
ENDCHAR
STARTCHAR underscoredbl
ENCODING 8215
SWIDTH 451 0
DWIDTH 10 0
BBX 10 5 0 -5
BITMAP
FFC0
FFC0
0000
FFC0
FFC0
ENDCHAR
STARTCHAR quoteleft
ENCODING 8216
SWIDTH 218 0
DWIDTH 5 0
BBX 3 5 1 12
BITMAP
20
60
E0
C0
C0
ENDCHAR
STARTCHAR quoteright
ENCODING 8217
SWIDTH 216 0
DWIDTH 5 0
BBX 3 5 1 12
BITMAP
60
60
60
C0
C0
ENDCHAR
STARTCHAR quotesinglbase
ENCODING 8218
SWIDTH 225 0
DWIDTH 5 0
BBX 3 5 1 -2
BITMAP
E0
E0
E0
C0
C0
ENDCHAR
STARTCHAR quotereversed
ENCODING 8219
SWIDTH 207 0
DWIDTH 5 0
BBX 3 5 1 12
BITMAP
C0
C0
C0
E0
60
ENDCHAR
STARTCHAR quotedblleft
ENCODING 8220
SWIDTH 384 0
DWIDTH 8 0
BBX 7 5 1 12
BITMAP
26
76
EC
EC
EC
ENDCHAR
STARTCHAR quotedblright
ENCODING 8221
SWIDTH 388 0
DWIDTH 9 0
BBX 7 5 1 12
BITMAP
6E
6E
6E
CC
D8
ENDCHAR
STARTCHAR quotedblbase
ENCODING 8222
SWIDTH 378 0
DWIDTH 8 0
BBX 7 6 0 -3
BITMAP
76
76
76
66
6C
CC
ENDCHAR
STARTCHAR dagger
ENCODING 8224
SWIDTH 545 0
DWIDTH 12 0
BBX 10 16 1 0
BITMAP
0C00
0C00
0C00
0C00
FFC0
FFC0
0C00
0C00
0C00
0C00
0C00
0C00
0C00
0C00
0C00
0C00
ENDCHAR
STARTCHAR daggerdbl
ENCODING 8225
SWIDTH 574 0
DWIDTH 13 0
BBX 11 20 1 -4
BITMAP
0E00
0E00
0E00
0E00
FFE0
FFE0
0E00
0E00
0E00
0E00
0E00
0E00
0E00
0E00
FFE0
FFE0
0E00
0E00
0E00
0E00
ENDCHAR
STARTCHAR bullet
ENCODING 8226
SWIDTH 349 0
DWIDTH 8 0
BBX 4 5 2 6
BITMAP
F0
F0
F0
F0
F0
ENDCHAR
STARTCHAR twodotenleader
ENCODING 8229
SWIDTH 497 0
DWIDTH 11 0
BBX 8 3 1 0
BITMAP
63
E7
63
ENDCHAR
STARTCHAR ellipsis
ENCODING 8230
SWIDTH 706 0
DWIDTH 16 0
BBX 13 3 1 0
BITMAP
6338
E738
6338
ENDCHAR
STARTCHAR uni2027
ENCODING 8231
SWIDTH 222 0
DWIDTH 5 0
BBX 3 3 1 5
BITMAP
E0
E0
E0
ENDCHAR
STARTCHAR perthousand
ENCODING 8240
SWIDTH 956 0
DWIDTH 21 0
BBX 19 16 1 0
BITMAP
780000
FC0000
CC2000
C46000
CC4000
FCC000
798000
010000
030000
067BC0
06FFE0
0CCE60
08C460
18CE60
30FFE0
007BC0
ENDCHAR
STARTCHAR minute
ENCODING 8242
SWIDTH 168 0
DWIDTH 4 0
BBX 2 6 1 11
BITMAP
C0
C0
C0
C0
C0
C0
ENDCHAR
STARTCHAR second
ENCODING 8243
SWIDTH 324 0
DWIDTH 7 0
BBX 5 6 1 11
BITMAP
D8
D8
D8
D8
D8
D8
ENDCHAR
STARTCHAR guilsinglleft
ENCODING 8249
SWIDTH 305 0
DWIDTH 7 0
BBX 5 9 1 1
BITMAP
18
30
70
60
C0
60
70
30
18
ENDCHAR
STARTCHAR guilsinglright
ENCODING 8250
SWIDTH 301 0
DWIDTH 7 0
BBX 5 9 1 1
BITMAP
C0
60
60
30
18
30
60
60
C0
ENDCHAR
STARTCHAR exclamdbl
ENCODING 8252
SWIDTH 536 0
DWIDTH 12 0
BBX 8 16 2 0
BITMAP
C3
C3
C3
C3
C3
C3
C3
C3
C3
C3
C3
00
00
C3
E7
C3
ENDCHAR
STARTCHAR fraction
ENCODING 8260
SWIDTH 451 0
DWIDTH 10 0
BBX 9 13 0 1
BITMAP
0080
0180
0100
0300
0600
0600
0C00
1800
1800
3000
2000
6000
C000
ENDCHAR
STARTCHAR uni2074
ENCODING 8308
SWIDTH 370 0
DWIDTH 8 0
BBX 7 9 1 7
BITMAP
1C
3C
3C
6C
CC
FE
FE
0C
0C
ENDCHAR
STARTCHAR uni207F
ENCODING 8319
SWIDTH 419 0
DWIDTH 9 0
BBX 7 9 1 7
BITMAP
DC
FE
C6
C6
C6
C6
C6
C6
C6
ENDCHAR
STARTCHAR franc
ENCODING 8355
SWIDTH 549 0
DWIDTH 12 0
BBX 12 16 0 0
BITMAP
3FF0
3FF0
3000
3000
3000
3000
3000
3FE0
3FE0
3000
3000
FE00
FE00
3000
3000
3000
ENDCHAR
STARTCHAR lira
ENCODING 8356
SWIDTH 588 0
DWIDTH 13 0
BBX 11 16 1 0
BITMAP
0F80
1FC0
38E0
30E0
3000
3000
FF00
FF00
3000
FF00
FF00
3800
3000
3000
FFE0
FFE0
ENDCHAR
STARTCHAR uni20A6
ENCODING 8358
SWIDTH 804 0
DWIDTH 18 0
BBX 17 16 1 0
BITMAP
381C00
381C00
3C1C00
3C1C00
3E1C00
371C00
FFFF80
FFFF80
319C00
FFFF80
FFFF80
30FC00
307C00
303C00
303C00
301C00
ENDCHAR
STARTCHAR peseta
ENCODING 8359
SWIDTH 839 0
DWIDTH 18 0
BBX 16 16 1 0
BITMAP
FE00
FF9C
E39C
E1DC
E1FF
E1FF
E1DC
E39C
FF9C
FE1C
E01C
E01C
E01C
E01C
E01F
E00F
ENDCHAR
STARTCHAR uni20A8
ENCODING 8360
SWIDTH 1071 0
DWIDTH 24 0
BBX 20 16 2 0
BITMAP
FF0000
FFC000
C1C000
C0E000
C0E7C0
C0EFF0
C0FC70
C1DC30
FF9E00
FF0FC0
C383F0
C38070
C1D830
C1DC70
C0EFF0
C0F7C0
ENDCHAR
STARTCHAR uni20A9
ENCODING 8361
SWIDTH 769 0
DWIDTH 17 0
BBX 17 16 0 0
BITMAP
71C700
71C700
71C700
31C600
31C600
FFFF80
FF7F80
3B6E00
FFFF80
FFFF80
1B6C00
1B6C00
1E3C00
0E3800
0E3800
0E3800
ENDCHAR
STARTCHAR uni20AA
ENCODING 8362
SWIDTH 818 0
DWIDTH 18 0
BBX 16 12 1 0
BITMAP
FFC7
FFE7
E0E7
E067
E667
E667
E667
E667
E607
E606
E7FE
E7F8
ENDCHAR
STARTCHAR dong
ENCODING 8363
SWIDTH 579 0
DWIDTH 13 0
BBX 12 21 1 -4
BITMAP
01C0
01C0
07F0
07F0
01C0
3DC0
7FC0
E3C0
E1C0
C1C0
C1C0
C1C0
C1C0
E1C0
E3C0
7FC0
3DC0
0000
0000
7FE0
7FE0
ENDCHAR
STARTCHAR Euro
ENCODING 8364
SWIDTH 568 0
DWIDTH 13 0
BBX 11 16 1 0
BITMAP
07E0
0FE0
1C00
1800
3800
3800
FF80
FF80
3800
FF80
FF80
3800
3800
1C00
0FE0
07E0
ENDCHAR
STARTCHAR uni20B1
ENCODING 8369
SWIDTH 744 0
DWIDTH 16 0
BBX 16 16 0 0
BITMAP
3FE0
3FF0
3838
FFFF
FFFF
381C
FFFF
FFFF
3838
3FF0
3FE0
3800
3800
3800
3800
3800
ENDCHAR
STARTCHAR uni20B9
ENCODING 8377
SWIDTH 525 0
DWIDTH 12 0
BBX 10 16 1 0
BITMAP
FFC0
FFC0
0F00
0700
FFC0
FFC0
0700
0F00
FE00
FC00
7000
7800
3C00
1C00
0E00
0700
ENDCHAR
STARTCHAR uni20BA
ENCODING 8378
SWIDTH 579 0
DWIDTH 13 0
BBX 11 16 1 0
BITMAP
3800
3A00
3E00
7C00
F800
BA00
3E00
7CE0
F8E0
B8E0
38E0
38E0
39C0
3BC0
3F80
3E00
ENDCHAR
STARTCHAR uni20BC
ENCODING 8380
SWIDTH 670 0
DWIDTH 15 0
BBX 13 12 1 0
BITMAP
0700
0700
0F80
3FE0
7770
7730
E738
E738
E738
E738
E738
E738
ENDCHAR
STARTCHAR uni20BD
ENCODING 8381
SWIDTH 686 0
DWIDTH 15 0
BBX 14 16 0 0
BITMAP
1FE0
1FF8
183C
181C
181C
181C
181C
183C
FFF8
FFE0
1800
FF80
FF80
1800
1800
1800
ENDCHAR
STARTCHAR uni2105
ENCODING 8453
SWIDTH 736 0
DWIDTH 16 0
BBX 14 16 1 0
BITMAP
7800
FC00
CC20
C060
CCC0
FCC0
7980
0100
0300
0678
06FC
0CCC
198C
18CC
30FC
0078
ENDCHAR
STARTCHAR uni2113
ENCODING 8467
SWIDTH 485 0
DWIDTH 11 0
BBX 9 16 1 0
BITMAP
0F00
1F80
3B80
3B80
3B80
3B80
3F00
3E00
3E00
F800
F800
3800
3800
1C00
1E00
0E00
ENDCHAR
STARTCHAR uni2116
ENCODING 8470
SWIDTH 1022 0
DWIDTH 23 0
BBX 20 16 2 0
BITMAP
E0E3C0
E0E7E0
F0EC60
F0EC30
F8EC30
D8EC60
DCE7E0
CCE3C0
CEE000
C6E7E0
C7E7E0
C3E000
C3E000
C1E000
C1E000
C0E000
ENDCHAR
STARTCHAR trademark
ENCODING 8482
SWIDTH 629 0
DWIDTH 14 0
BBX 11 6 1 10
BITMAP
F660
2660
2560
25A0
25A0
24A0
ENDCHAR
STARTCHAR Omega
ENCODING 8486
SWIDTH 669 0
DWIDTH 15 0
BBX 13 16 1 0
BITMAP
0F80
3FC0
38E0
7070
6070
E030
E038
E038
E038
E030
6070
7070
3060
38E0
FDF0
FDF0
ENDCHAR
STARTCHAR estimated
ENCODING 8494
SWIDTH 634 0
DWIDTH 14 0
BBX 11 12 2 0
BITMAP
1F00
2180
40C0
C0C0
C0E0
FFE0
C000
C000
C000
4000
2080
1F00
ENDCHAR
STARTCHAR oneeighth
ENCODING 8539
SWIDTH 775 0
DWIDTH 17 0
BBX 15 16 1 0
BITMAP
3000
F000
F020
3060
30C0
3080
3180
333C
337E
0666
047C
0C7C
18C6
10C6
307E
003C
ENDCHAR
STARTCHAR threeeighths
ENCODING 8540
SWIDTH 857 0
DWIDTH 19 0
BBX 17 16 1 0
BITMAP
780000
FC0000
0C1800
3C1800
3C3000
0C6000
CE6000
FCDE00
78BF00
01B300
031F00
031F00
063300
0C3380
043F00
001E00
ENDCHAR
STARTCHAR fiveeighths
ENCODING 8541
SWIDTH 852 0
DWIDTH 19 0
BBX 16 16 1 0
BITMAP
7C00
FC00
C010
F838
FC30
0C60
CC40
FCDE
79BF
01B3
031F
061F
0633
0C33
083F
001E
ENDCHAR
STARTCHAR seveneighths
ENCODING 8542
SWIDTH 829 0
DWIDTH 18 0
BBX 16 16 1 0
BITMAP
FE00
FE00
0C20
0C70
1860
18C0
3080
31BE
633E
0367
063E
0C3E
0C63
1863
107E
003E
ENDCHAR
STARTCHAR partialdiff
ENCODING 8706
SWIDTH 570 0
DWIDTH 13 0
BBX 11 16 1 0
BITMAP
3E00
3F80
43C0
01C0
00C0
1EE0
3FE0
71E0
E0E0
E0E0
E0E0
E0E0
60C0
71C0
3F80
1F00
ENDCHAR
STARTCHAR Delta
ENCODING 8710
SWIDTH 718 0
DWIDTH 16 0
BBX 15 16 0 0
BITMAP
0380
03C0
03C0
07E0
07E0
0E60
0E70
0C70
1C38
1C38
3818
381C
381C
700E
7FFE
FFFE
ENDCHAR
STARTCHAR product
ENCODING 8719
SWIDTH 698 0
DWIDTH 15 0
BBX 12 18 2 -2
BITMAP
FFF0
FFF0
C070
C070
C070
C070
C070
C070
C070
C070
C070
C070
C070
C070
C070
C070
C070
C070
ENDCHAR
STARTCHAR summation
ENCODING 8721
SWIDTH 605 0
DWIDTH 13 0
BBX 12 19 1 -3
BITMAP
FFE0
FFE0
E000
7000
3800
1C00
0E00
0E00
0700
0380
0700
0E00
0E00
1C00
3800
7000
E000
FFF0
FFF0
ENDCHAR
STARTCHAR minus
ENCODING 8722
SWIDTH 563 0
DWIDTH 12 0
BBX 9 2 2 7
BITMAP
FF80
FF80
ENDCHAR
STARTCHAR radical
ENCODING 8730
SWIDTH 586 0
DWIDTH 13 0
BBX 12 16 1 0
BITMAP
0070
0060
00E0
00C0
00C0
00C0
0180
0180
F180
F300
3300
3B00
1E00
1E00
0E00
0E00
ENDCHAR
STARTCHAR infinity
ENCODING 8734
SWIDTH 1033 0
DWIDTH 23 0
BBX 21 12 1 0
BITMAP
1F07C0
3F8FE0
71DC70
60F830
E07038
E07038
E07038
E07038
60F830
71DC70
3F8FE0
1F07C0
ENDCHAR
STARTCHAR integral
ENCODING 8747
SWIDTH 271 0
DWIDTH 6 0
BBX 8 21 -1 -4
BITMAP
0F
1F
1C
18
18
18
18
18
18
18
18
18
18
18
18
18
18
18
38
F8
F0
ENDCHAR
STARTCHAR approxequal
ENCODING 8776
SWIDTH 569 0
DWIDTH 13 0
BBX 10 9 1 2
BITMAP
7840
FC40
87C0
83C0
0000
7840
FC40
87C0
83C0
ENDCHAR
STARTCHAR notequal
ENCODING 8800
SWIDTH 559 0
DWIDTH 12 0
BBX 9 12 2 2
BITMAP
0200
0300
0200
FF80
FF80
0800
1800
1000
FF80
FF80
6000
C000
ENDCHAR
STARTCHAR lessequal
ENCODING 8804
SWIDTH 508 0
DWIDTH 11 0
BBX 9 11 1 1
BITMAP
0080
0780
1F80
FC00
E000
F000
3E00
0F80
0180
FF80
FF80
ENDCHAR
STARTCHAR greaterequal
ENCODING 8805
SWIDTH 520 0
DWIDTH 11 0
BBX 9 11 1 1
BITMAP
8000
E000
FC00
1F80
0380
0F80
7E00
F800
C000
FF80
FF80
ENDCHAR
STARTCHAR lozenge
ENCODING 9674
SWIDTH 505 0
DWIDTH 11 0
BBX 11 16 0 0
BITMAP
0E00
0E00
1F00
1B00
3B80
3180
71C0
60C0
E0E0
71C0
3180
3B80
1B00
1F00
0E00
0E00
ENDCHAR
STARTCHAR uniEE01
ENCODING 60929
SWIDTH 294 0
DWIDTH 6 0
BBX 3 12 2 2
BITMAP
C0
E0
C0
00
00
00
00
00
00
C0
E0
C0
ENDCHAR
STARTCHAR uniEE02
ENCODING 60930
SWIDTH 324 0
DWIDTH 7 0
BBX 5 5 1 7
BITMAP
D8
D8
D8
D8
D8
ENDCHAR
STARTCHAR uniF6C3
ENCODING 63171
SWIDTH 242 0
DWIDTH 5 0
BBX 3 4 1 -1
BITMAP
60
60
C0
C0
ENDCHAR
STARTCHAR uniFB01
ENCODING 64257
SWIDTH 582 0
DWIDTH 13 0
BBX 11 17 0 0
BITMAP
0FC0
1FC0
3840
3800
3800
FE60
FE60
3860
3860
3860
3860
3860
3860
3860
3860
3860
3860
ENDCHAR
STARTCHAR uniFB02
ENCODING 64258
SWIDTH 591 0
DWIDTH 13 0
BBX 11 17 0 0
BITMAP
0FE0
1FE0
3860
3860
3860
FE60
FE60
3860
3860
3860
3860
3860
3860
3860
3860
3860
3860
ENDCHAR
STARTCHAR uniFB03
ENCODING 64259
SWIDTH 892 0
DWIDTH 20 0
BBX 17 17 1 0
BITMAP
1E3F00
3E7F00
38E100
70E000
70E000
FFF980
FFF980
70E180
70E180
70E180
70E180
70E180
70E180
70E180
70E180
70E180
70E180
ENDCHAR
STARTCHAR uniFB04
ENCODING 64260
SWIDTH 892 0
DWIDTH 20 0
BBX 17 17 1 0
BITMAP
1E3F80
3E7F80
30E180
70E180
70E180
FFF980
FFF980
70E180
70E180
70E180
70E180
70E180
70E180
70E180
70E180
70E180
70E180
ENDCHAR
STARTCHAR uniFEFF
ENCODING 65279
SWIDTH 0 0
DWIDTH 0 0
BBX 1 1 0 0
BITMAP
00
ENDCHAR
STARTCHAR uniFFFC
ENCODING 65532
SWIDTH 1023 0
DWIDTH 23 0
BBX 21 20 1 -4
BITMAP
F77738
800008
800008
800008
000000
800008
800008
8E7848
114840
917048
914848
914A48
0E79C0
800008
800008
800008
000000
800008
800008
F77738
ENDCHAR
STARTCHAR uniFFFD
ENCODING 65533
SWIDTH 1025 0
DWIDTH 23 0
BBX 21 21 1 -4
BITMAP
002000
007000
00F800
01FC00
03FE00
07FF00
0F0F80
1E07C0
3E63E0
7FE3F0
FFE7F8
7F8FF0
3F9FE0
1FFFC0
0F9F80
079F00
03FE00
01FC00
00F800
007000
002000
ENDCHAR
STARTCHAR .notdef
ENCODING -1
SWIDTH 443 0
DWIDTH 10 0
BBX 8 16 1 0
BITMAP
FF
81
C3
C5
A5
A9
99
91
91
99
A9
A5
C5
C3
81
FF
ENDCHAR
STARTCHAR glyph369
ENCODING -1
SWIDTH 396 0
DWIDTH 9 0
BBX 7 4 1 12
BITMAP
CE
CC
C8
78
ENDCHAR
STARTCHAR uni2009.locl
ENCODING -1
SWIDTH 125 0
DWIDTH 3 0
BBX 1 1 0 0
BITMAP
00
ENDCHAR
STARTCHAR f_f.dlig
ENCODING -1
SWIDTH 638 0
DWIDTH 14 0
BBX 13 17 1 0
BITMAP
1E78
3EF8
30E0
70C0
70C0
FFF8
FFF8
70C0
70C0
70C0
70C0
70C0
70C0
70C0
70C0
70C0
70C0
ENDCHAR
STARTCHAR longs_t.dlig
ENCODING -1
SWIDTH 633 0
DWIDTH 14 0
BBX 12 17 1 0
BITMAP
1F00
3FC0
70C0
70C0
70C0
F3F0
F3F0
70C0
70C0
70C0
70C0
70C0
70C0
70C0
70C0
70F0
7070
ENDCHAR
STARTCHAR s_t.dlig
ENCODING -1
SWIDTH 839 0
DWIDTH 18 0
BBX 17 17 1 0
BITMAP
00F000
03FC00
039C00
030C00
030E00
3F3F80
7FBF80
E38E00
E38E00
E00E00
7E0E00
1F0E00
038E00
C18E00
E38E00
7F0F80
3E0780
ENDCHAR
STARTCHAR two.dnom
ENCODING -1
SWIDTH 370 0
DWIDTH 8 0
BBX 6 9 1 0
BITMAP
78
FC
CC
0C
18
30
60
FC
FC
ENDCHAR
STARTCHAR one.dnom
ENCODING -1
SWIDTH 370 0
DWIDTH 8 0
BBX 5 9 1 0
BITMAP
38
F8
D8
18
18
18
18
18
18
ENDCHAR
STARTCHAR zero.dnom
ENCODING -1
SWIDTH 370 0
DWIDTH 8 0
BBX 6 9 1 0
BITMAP
78
FC
CC
CC
CC
CC
CC
FC
78
ENDCHAR
STARTCHAR nine.c2sc
ENCODING -1
SWIDTH 514 0
DWIDTH 11 0
BBX 9 13 1 0
BITMAP
3E00
7F00
E380
C380
C380
E380
FF80
3F80
0380
0300
0F00
3E00
3800
ENDCHAR
STARTCHAR eight.c2sc
ENCODING -1
SWIDTH 514 0
DWIDTH 11 0
BBX 9 13 1 0
BITMAP
3E00
7F00
E380
E380
E380
7F00
7F00
E380
C180
C180
E380
7F00
3E00
ENDCHAR
STARTCHAR seven.c2sc
ENCODING -1
SWIDTH 514 0
DWIDTH 11 0
BBX 10 13 0 0
BITMAP
FFC0
FFC0
01C0
0180
0380
0300
0700
0600
0E00
0C00
1C00
1C00
3800
ENDCHAR
STARTCHAR six.c2sc
ENCODING -1
SWIDTH 513 0
DWIDTH 11 0
BBX 9 13 1 0
BITMAP
0E00
3E00
7000
6000
FE00
FF80
E380
C180
E180
E180
E380
7F00
3E00
ENDCHAR
STARTCHAR five.c2sc
ENCODING -1
SWIDTH 514 0
DWIDTH 11 0
BBX 9 13 1 0
BITMAP
7F80
7F80
6000
6000
7E00
FF00
6380
0180
0180
E180
E380
7F00
3E00
ENDCHAR
STARTCHAR four.c2sc
ENCODING -1
SWIDTH 514 0
DWIDTH 11 0
BBX 11 13 0 0
BITMAP
0380
0780
0780
0F80
1F80
3B80
3380
6380
FFE0
FFE0
0380
0380
0380
ENDCHAR
STARTCHAR three.c2sc
ENCODING -1
SWIDTH 514 0
DWIDTH 11 0
BBX 9 13 1 0
BITMAP
3E00
FF00
E380
C380
0380
1F00
1F00
0380
0380
C380
E380
FF00
3E00
ENDCHAR
STARTCHAR two.c2sc
ENCODING -1
SWIDTH 514 0
DWIDTH 11 0
BBX 9 13 1 0
BITMAP
3E00
7F00
E380
C380
0380
0380
0700
0E00
1C00
3800
7000
FF80
FF80
ENDCHAR
STARTCHAR one.c2sc
ENCODING -1
SWIDTH 514 0
DWIDTH 11 0
BBX 6 13 1 0
BITMAP
04
3C
FC
CC
0C
0C
0C
0C
0C
0C
0C
0C
0C
ENDCHAR
STARTCHAR zero.c2sc
ENCODING -1
SWIDTH 514 0
DWIDTH 11 0
BBX 9 13 1 0
BITMAP
3E00
7F00
E380
E380
C180
C180
C180
C180
C180
E380
E380
7F00
3E00
ENDCHAR
STARTCHAR Z.c2sc
ENCODING -1
SWIDTH 520 0
DWIDTH 11 0
BBX 10 13 1 0
BITMAP
FFC0
FFC0
0380
0700
0700
0E00
1C00
1800
3800
7000
E000
FFC0
FFC0
ENDCHAR
STARTCHAR Y.c2sc
ENCODING -1
SWIDTH 529 0
DWIDTH 12 0
BBX 12 13 0 0
BITMAP
E0F0
70E0
71C0
39C0
3980
1F80
0F00
0F00
0E00
0E00
0E00
0E00
0E00
ENDCHAR
STARTCHAR X.c2sc
ENCODING -1
SWIDTH 545 0
DWIDTH 12 0
BBX 12 13 0 0
BITMAP
F0F0
70E0
39C0
1B80
1F80
0F00
0F00
0F00
1F80
39C0
39C0
70E0
F0F0
ENDCHAR
STARTCHAR W.c2sc
ENCODING -1
SWIDTH 753 0
DWIDTH 17 0
BBX 16 13 0 0
BITMAP
E1C3
61C7
61C7
73C6
7366
3366
336E
366C
3E3C
1E3C
1E3C
1C3C
1C18
ENDCHAR
STARTCHAR V.c2sc
ENCODING -1
SWIDTH 560 0
DWIDTH 12 0
BBX 12 13 0 0
BITMAP
E070
6070
7060
70E0
30E0
38C0
39C0
1980
1D80
0F80
0F00
0F00
0700
ENDCHAR
STARTCHAR U.c2sc
ENCODING -1
SWIDTH 564 0
DWIDTH 12 0
BBX 10 13 1 0
BITMAP
E0C0
E0C0
E0C0
E0C0
E0C0
E0C0
E0C0
E0C0
E0C0
E1C0
E1C0
7F80
3F00
ENDCHAR
STARTCHAR T.c2sc
ENCODING -1
SWIDTH 528 0
DWIDTH 12 0
BBX 11 13 0 0
BITMAP
FFE0
FFE0
0E00
0E00
0E00
0E00
0E00
0E00
0E00
0E00
0E00
0E00
0E00
ENDCHAR
STARTCHAR S.c2sc
ENCODING -1
SWIDTH 525 0
DWIDTH 12 0
BBX 10 13 1 0
BITMAP
1F00
7F80
61C0
E1C0
E000
7C00
3F00
0780
01C0
E1C0
E1C0
7F80
1F00
ENDCHAR
STARTCHAR R.c2sc
ENCODING -1
SWIDTH 544 0
DWIDTH 12 0
BBX 11 13 1 0
BITMAP
FF00
FF80
E1C0
E1C0
E1C0
E1C0
FF80
FF00
E300
E380
E180
E1C0
E0E0
ENDCHAR
STARTCHAR Q.c2sc
ENCODING -1
SWIDTH 593 0
DWIDTH 13 0
BBX 11 15 1 -2
BITMAP
1F00
3F80
71C0
E0E0
E0E0
C060
C060
C060
E0E0
E0E0
71C0
3F80
1FC0
01E0
0040
ENDCHAR
STARTCHAR P.c2sc
ENCODING -1
SWIDTH 553 0
DWIDTH 12 0
BBX 10 13 1 0
BITMAP
FF00
FF80
E1C0
E0C0
E0C0
E1C0
FFC0
FF00
E000
E000
E000
E000
E000
ENDCHAR
STARTCHAR O.c2sc
ENCODING -1
SWIDTH 593 0
DWIDTH 13 0
BBX 11 13 1 0
BITMAP
1F00
3F80
71C0
E0E0
E0E0
C060
C060
C060
E0E0
E0E0
71C0
3F80
1F00
ENDCHAR
STARTCHAR N.c2sc
ENCODING -1
SWIDTH 607 0
DWIDTH 13 0
BBX 11 13 1 0
BITMAP
E0E0
F0E0
F0E0
F8E0
FCE0
ECE0
EEE0
E7E0
E3E0
E3E0
E1E0
E0E0
E0E0
ENDCHAR
STARTCHAR M.c2sc
ENCODING -1
SWIDTH 752 0
DWIDTH 17 0
BBX 15 13 1 0
BITMAP
F01E
F01E
F83E
F83E
FC7E
EC6E
EC6E
EECE
E6CE
E7CE
E38E
E38E
E38E
ENDCHAR
STARTCHAR L.c2sc
ENCODING -1
SWIDTH 465 0
DWIDTH 10 0
BBX 9 13 1 0
BITMAP
E000
E000
E000
E000
E000
E000
E000
E000
E000
E000
E000
FF80
FF80
ENDCHAR
STARTCHAR K.c2sc
ENCODING -1
SWIDTH 544 0
DWIDTH 12 0
BBX 11 13 1 0
BITMAP
E1E0
E3C0
E380
E700
EE00
FC00
FE00
FE00
E700
E380
E380
E1C0
E0E0
ENDCHAR
STARTCHAR J.c2sc
ENCODING -1
SWIDTH 479 0
DWIDTH 11 0
BBX 9 13 1 0
BITMAP
0380
0380
0380
0380
0380
0380
0380
0380
0380
C380
E700
FF00
3C00
ENDCHAR
STARTCHAR I.c2sc
ENCODING -1
SWIDTH 248 0
DWIDTH 5 0
BBX 3 13 1 0
BITMAP
E0
E0
E0
E0
E0
E0
E0
E0
E0
E0
E0
E0
E0
ENDCHAR
STARTCHAR H.c2sc
ENCODING -1
SWIDTH 608 0
DWIDTH 13 0
BBX 11 13 1 0
BITMAP
E0E0
E0E0
E0E0
E0E0
E0E0
FFE0
FFE0
E0E0
E0E0
E0E0
E0E0
E0E0
E0E0
ENDCHAR
STARTCHAR G.c2sc
ENCODING -1
SWIDTH 581 0
DWIDTH 13 0
BBX 11 13 1 0
BITMAP
1F00
3FC0
71C0
E0E0
E000
E000
E3E0
E3E0
E0E0
E0E0
70E0
3FE0
1F80
ENDCHAR
STARTCHAR F.c2sc
ENCODING -1
SWIDTH 471 0
DWIDTH 10 0
BBX 9 13 1 0
BITMAP
FF80
FF80
E000
E000
E000
E000
FF00
FF00
E000
E000
E000
E000
E000
ENDCHAR
STARTCHAR dollar.c2sc
ENCODING -1
SWIDTH 525 0
DWIDTH 12 0
BBX 10 17 1 -2
BITMAP
0C00
0C00
3F00
7F80
61C0
E1C0
E000
7C00
3F00
0780
01C0
E1C0
E1C0
7F80
3F00
0C00
0C00
ENDCHAR
STARTCHAR sterling.c2sc
ENCODING -1
SWIDTH 549 0
DWIDTH 12 0
BBX 10 13 1 0
BITMAP
1F00
3F80
31C0
71C0
7000
7000
FF00
FF00
7000
7000
6000
FFC0
FFC0
ENDCHAR
STARTCHAR yen.c2sc
ENCODING -1
SWIDTH 455 0
DWIDTH 10 0
BBX 10 13 0 0
BITMAP
E1C0
6180
7380
3300
3F00
1E00
7F80
7F80
0C00
7F80
7F80
0C00
0C00
ENDCHAR
STARTCHAR Gamma.c2sc
ENCODING -1
SWIDTH 465 0
DWIDTH 10 0
BBX 9 13 1 0
BITMAP
FF80
FF80
E000
E000
E000
E000
E000
E000
E000
E000
E000
E000
E000
ENDCHAR
STARTCHAR Delta.c2sc
ENCODING -1
SWIDTH 560 0
DWIDTH 12 0
BBX 12 13 0 0
BITMAP
0F00
0F00
0F00
1F80
1980
1980
39C0
39C0
30C0
70E0
70E0
FFF0
FFF0
ENDCHAR
STARTCHAR Theta.c2sc
ENCODING -1
SWIDTH 593 0
DWIDTH 13 0
BBX 11 13 1 0
BITMAP
1F00
3F80
71C0
E0E0
E0E0
DF60
DF60
C060
E0E0
E0E0
71C0
3F80
1F00
ENDCHAR
STARTCHAR Lambda.c2sc
ENCODING -1
SWIDTH 560 0
DWIDTH 12 0
BBX 12 13 0 0
BITMAP
0F00
0F00
0F00
1F80
1980
1980
39C0
30C0
30C0
70E0
70E0
E070
E070
ENDCHAR
STARTCHAR Xi.c2sc
ENCODING -1
SWIDTH 449 0
DWIDTH 10 0
BBX 8 13 1 0
BITMAP
FF
FF
00
00
00
7E
7E
00
00
00
00
FF
FF
ENDCHAR
STARTCHAR Pi.c2sc
ENCODING -1
SWIDTH 605 0
DWIDTH 13 0
BBX 11 13 1 0
BITMAP
FFE0
FFE0
E0E0
E0E0
E0E0
E0E0
E0E0
E0E0
E0E0
E0E0
E0E0
E0E0
E0E0
ENDCHAR
STARTCHAR Sigma.c2sc
ENCODING -1
SWIDTH 512 0
DWIDTH 11 0
BBX 10 13 1 0
BITMAP
FF80
FF80
E000
7000
3800
3800
1C00
3800
3800
7000
E000
FFC0
FFC0
ENDCHAR
STARTCHAR Phi.c2sc
ENCODING -1
SWIDTH 701 0
DWIDTH 15 0
BBX 13 13 1 0
BITMAP
0700
1FC0
7FF0
F778
E738
C718
C718
C718
E738
F778
7FF0
1FC0
0700
ENDCHAR
STARTCHAR Psi.c2sc
ENCODING -1
SWIDTH 666 0
DWIDTH 15 0
BBX 13 13 1 0
BITMAP
E738
E738
E738
E738
E738
E738
6730
7770
3FE0
1FC0
0700
0700
0700
ENDCHAR
STARTCHAR Omega.c2sc
ENCODING -1
SWIDTH 611 0
DWIDTH 13 0
BBX 11 13 1 0
BITMAP
1F00
7FC0
71C0
E0E0
E0E0
C060
C060
C060
E0E0
60C0
71C0
FBE0
FBE0
ENDCHAR
STARTCHAR uni0402.c2sc
ENCODING -1
SWIDTH 695 0
DWIDTH 15 0
BBX 14 13 0 0
BITMAP
FFC0
FFC0
0E00
0E00
0FF0
0FF8
0E1C
0E0C
0E0C
0E0C
0E1C
0E7C
0E70
ENDCHAR
STARTCHAR uni0404.c2sc
ENCODING -1
SWIDTH 562 0
DWIDTH 12 0
BBX 11 13 1 0
BITMAP
1F00
7F80
61C0
E0C0
C020
FC00
FC00
C000
C000
E0E0
71C0
7F80
1F00
ENDCHAR
STARTCHAR uni0409.c2sc
ENCODING -1
SWIDTH 916 0
DWIDTH 20 0
BBX 19 13 0 0
BITMAP
1FF000
1FF000
187000
187000
187000
187F80
187FC0
1870E0
187060
387060
3870E0
F07FC0
E07F80
ENDCHAR
STARTCHAR uni040A.c2sc
ENCODING -1
SWIDTH 917 0
DWIDTH 20 0
BBX 18 13 1 0
BITMAP
E0E000
E0E000
E0E000
E0E000
E0E000
FFFF00
FFFFC0
E0E1C0
E0E0C0
E0E0C0
E0E1C0
E0FFC0
E0FF00
ENDCHAR
STARTCHAR uni040B.c2sc
ENCODING -1
SWIDTH 698 0
DWIDTH 15 0
BBX 14 13 0 0
BITMAP
FFC0
FFC0
0E00
0E00
0FF0
0FF8
0E1C
0E0C
0E0C
0E0C
0E0C
0E0C
0E0C
ENDCHAR
STARTCHAR uni040F.c2sc
ENCODING -1
SWIDTH 604 0
DWIDTH 13 0
BBX 11 17 1 -4
BITMAP
E0E0
E0E0
E0E0
E0E0
E0E0
E0E0
E0E0
E0E0
E0E0
E0E0
E0E0
FFE0
FFE0
0E00
0E00
0E00
0E00
ENDCHAR
STARTCHAR uni0411.c2sc
ENCODING -1
SWIDTH 555 0
DWIDTH 12 0
BBX 10 13 1 0
BITMAP
FF80
FF80
E000
E000
E000
FF00
FF80
E1C0
E0C0
E0C0
E1C0
FF80
FF00
ENDCHAR
STARTCHAR uni0414.c2sc
ENCODING -1
SWIDTH 668 0
DWIDTH 15 0
BBX 13 17 1 -4
BITMAP
1FE0
1FE0
1860
3860
3860
3860
3860
3860
3860
3060
7060
FFF8
FFF8
C038
C038
C038
C038
ENDCHAR
STARTCHAR uni0416.c2sc
ENCODING -1
SWIDTH 778 0
DWIDTH 17 0
BBX 17 13 0 0
BITMAP
71C700
71C700
39CE00
19DC00
1DDC00
0FF800
0FF800
1DDC00
19DC00
39CE00
39CE00
71C700
F1C780
ENDCHAR
STARTCHAR uni0417.c2sc
ENCODING -1
SWIDTH 534 0
DWIDTH 12 0
BBX 10 13 1 0
BITMAP
3F00
7F80
E1C0
E1C0
0180
1F00
1F80
0180
01C0
C1C0
E1C0
7F80
3F00
ENDCHAR
STARTCHAR uni0418.c2sc
ENCODING -1
SWIDTH 611 0
DWIDTH 13 0
BBX 11 13 1 0
BITMAP
E0E0
E1E0
E1E0
E3E0
E7E0
E6E0
EEE0
FCE0
F8E0
F8E0
F0E0
F0E0
E0E0
ENDCHAR
STARTCHAR uni041A.c2sc
ENCODING -1
SWIDTH 544 0
DWIDTH 12 0
BBX 11 13 1 0
BITMAP
E1C0
E380
E380
E700
EE00
FC00
FE00
EE00
E700
E700
E380
E1C0
E1E0
ENDCHAR
STARTCHAR uni041B.c2sc
ENCODING -1
SWIDTH 599 0
DWIDTH 13 0
BBX 12 13 0 0
BITMAP
1FF0
1FF0
1870
1870
1870
1870
1870
1870
1870
3870
3870
F070
E070
ENDCHAR
STARTCHAR uni0423.c2sc
ENCODING -1
SWIDTH 534 0
DWIDTH 12 0
BBX 12 13 0 0
BITMAP
F070
70E0
30E0
38C0
19C0
1D80
1F80
0F00
0F00
0700
0600
3E00
3C00
ENDCHAR
STARTCHAR uni0426.c2sc
ENCODING -1
SWIDTH 670 0
DWIDTH 15 0
BBX 13 17 1 -4
BITMAP
E060
E060
E060
E060
E060
E060
E060
E060
E060
E060
E060
FFF8
FFF8
0018
0018
0018
0018
ENDCHAR
STARTCHAR uni0427.c2sc
ENCODING -1
SWIDTH 568 0
DWIDTH 13 0
BBX 10 13 1 0
BITMAP
E0C0
E0C0
E0C0
E0C0
E0C0
E0C0
7FC0
3FC0
00C0
00C0
00C0
00C0
00C0
ENDCHAR
STARTCHAR uni0428.c2sc
ENCODING -1
SWIDTH 814 0
DWIDTH 18 0
BBX 16 13 1 0
BITMAP
E187
E187
E187
E187
E187
E187
E187
E187
E187
E187
E187
FFFF
FFFF
ENDCHAR
STARTCHAR uni0429.c2sc
ENCODING -1
SWIDTH 879 0
DWIDTH 19 0
BBX 18 17 1 -4
BITMAP
E38600
E38600
E38600
E38600
E38600
E38600
E38600
E38600
E38600
E38600
E38600
FFFFC0
FFFF80
000180
000180
000180
000180
ENDCHAR
STARTCHAR uni042A.c2sc
ENCODING -1
SWIDTH 668 0
DWIDTH 15 0
BBX 14 13 0 0
BITMAP
FE00
FE00
0E00
0E00
0E00
0FF0
0FF8
0E1C
0E0C
0E1C
0E1C
0FF8
0FF0
ENDCHAR
STARTCHAR uni042B.c2sc
ENCODING -1
SWIDTH 765 0
DWIDTH 17 0
BBX 15 13 1 0
BITMAP
E00E
E00E
E00E
E00E
E00E
FF0E
FF8E
E1CE
E0CE
E0CE
E1CE
FF8E
FF0E
ENDCHAR
STARTCHAR uni042C.c2sc
ENCODING -1
SWIDTH 550 0
DWIDTH 12 0
BBX 10 13 1 0
BITMAP
E000
E000
E000
E000
E000
FF00
FF80
E1C0
E0C0
E0C0
E1C0
FF80
FF00
ENDCHAR
STARTCHAR uni042D.c2sc
ENCODING -1
SWIDTH 562 0
DWIDTH 12 0
BBX 11 13 0 0
BITMAP
1F00
3FC0
70C0
60E0
8060
07E0
07E0
0060
00E0
E0E0
71C0
3FC0
1F00
ENDCHAR
STARTCHAR uni042E.c2sc
ENCODING -1
SWIDTH 821 0
DWIDTH 18 0
BBX 16 13 1 0
BITMAP
E0F8
E3FC
E38E
E707
E707
FE03
FE03
E603
E707
E707
E38E
E1FC
E0F8
ENDCHAR
STARTCHAR uni042F.c2sc
ENCODING -1
SWIDTH 566 0
DWIDTH 12 0
BBX 11 13 0 0
BITMAP
1FE0
3FE0
70E0
70E0
70E0
30E0
3FE0
1FE0
1CE0
38E0
38E0
70E0
F0E0
ENDCHAR
STARTCHAR uni0492.c2sc
ENCODING -1
SWIDTH 516 0
DWIDTH 11 0
BBX 11 13 0 0
BITMAP
3FE0
3FE0
3800
3800
3800
3800
FE00
FE00
3800
3800
3800
3800
3800
ENDCHAR
STARTCHAR uni0496.c2sc
ENCODING -1
SWIDTH 821 0
DWIDTH 18 0
BBX 18 17 0 -4
BITMAP
71C700
71C700
39CE00
1DCC00
1DDC00
0FF800
0FF800
1DDC00
1DCC00
39CE00
39CE00
71C7C0
71C7C0
8001C0
0001C0
0001C0
0001C0
ENDCHAR
STARTCHAR uni049A.c2sc
ENCODING -1
SWIDTH 576 0
DWIDTH 13 0
BBX 12 17 1 -4
BITMAP
E1E0
E380
E380
E700
EE00
FE00
FE00
EE00
E700
E300
E380
E1F0
E1F0
0070
0070
0070
0070
ENDCHAR
STARTCHAR uni049C.c2sc
ENCODING -1
SWIDTH 637 0
DWIDTH 14 0
BBX 13 13 1 0
BITMAP
E070
E0E0
E0E0
E9C0
EB80
FF00
FF80
EB80
E9C0
E1C0
E0E0
E070
E078
ENDCHAR
STARTCHAR uni04A0.c2sc
ENCODING -1
SWIDTH 678 0
DWIDTH 15 0
BBX 15 13 0 0
BITMAP
FE1C
FE38
0E30
0E70
0EE0
0FC0
0FC0
0EE0
0E70
0E70
0E38
0E1C
0E1E
ENDCHAR
STARTCHAR uni04A8.c2sc
ENCODING -1
SWIDTH 742 0
DWIDTH 16 0
BBX 14 13 1 0
BITMAP
19F0
7BF8
E318
E71C
C71C
C71C
C71C
C71C
E71C
E3B8
71F8
3FFC
1F9C
ENDCHAR
STARTCHAR uni04B0.c2sc
ENCODING -1
SWIDTH 543 0
DWIDTH 12 0
BBX 12 13 0 0
BITMAP
E0F0
70E0
71C0
39C0
3980
1F80
0F00
3F80
3F80
0E00
0E00
0E00
0E00
ENDCHAR
STARTCHAR uni04B2.c2sc
ENCODING -1
SWIDTH 595 0
DWIDTH 13 0
BBX 12 17 0 -4
BITMAP
F0F0
70E0
39C0
3B80
1F80
0F00
0F00
0F00
1F80
3980
39C0
70F0
F0F0
0030
0030
0030
0030
ENDCHAR
STARTCHAR uni04B4.c2sc
ENCODING -1
SWIDTH 822 0
DWIDTH 18 0
BBX 17 17 0 -4
BITMAP
FFCE00
FFCE00
0E0E00
0E0E00
0E0E00
0E0E00
0E0E00
0E0E00
0E0E00
0E0E00
0E0E00
0FFF80
0FFF80
000380
000380
000380
000380
ENDCHAR
STARTCHAR uni04B8.c2sc
ENCODING -1
SWIDTH 568 0
DWIDTH 13 0
BBX 11 13 1 0
BITMAP
E0E0
E0E0
E0E0
ECE0
ECE0
ECE0
7FE0
3FE0
0CE0
0CE0
00E0
00E0
00E0
ENDCHAR
STARTCHAR uni04BA.c2sc
ENCODING -1
SWIDTH 568 0
DWIDTH 13 0
BBX 10 13 2 0
BITMAP
C000
C000
C000
C000
FF00
FF80
C1C0
C1C0
C1C0
C1C0
C1C0
C1C0
C1C0
ENDCHAR
STARTCHAR uni04BC.c2sc
ENCODING -1
SWIDTH 749 0
DWIDTH 16 0
BBX 15 13 0 0
BITMAP
01F0
07FC
070E
CE0E
EC06
7FFE
3FFE
0C00
0E00
0E00
0708
03FC
01F8
ENDCHAR
STARTCHAR uni04D8.c2sc
ENCODING -1
SWIDTH 602 0
DWIDTH 13 0
BBX 11 13 1 0
BITMAP
3F00
7F80
41C0
00E0
0060
FFE0
FFE0
C060
C0E0
E0E0
71C0
7F80
1F00
ENDCHAR
STARTCHAR uni04E0.c2sc
ENCODING -1
SWIDTH 534 0
DWIDTH 12 0
BBX 10 13 1 0
BITMAP
FF80
FF80
0380
0700
0E00
1E00
1F80
01C0
01C0
C1C0
E1C0
7F80
3F00
ENDCHAR
STARTCHAR uni04E8.c2sc
ENCODING -1
SWIDTH 593 0
DWIDTH 13 0
BBX 11 13 1 0
BITMAP
1F00
3F80
71C0
E0E0
E0E0
FFE0
FFE0
E0E0
E0E0
E0E0
71C0
3F80
1F00
ENDCHAR
STARTCHAR lira.c2sc
ENCODING -1
SWIDTH 549 0
DWIDTH 12 0
BBX 10 13 1 0
BITMAP
1F00
3F80
31C0
71C0
7000
FF00
FF00
7000
FF00
FF00
6000
FFC0
FFC0
ENDCHAR
STARTCHAR Euro.c2sc
ENCODING -1
SWIDTH 495 0
DWIDTH 11 0
BBX 9 13 1 0
BITMAP
0F80
1F80
3800
3000
FF00
FF00
7000
FF00
FF00
3000
3800
1F80
0F80
ENDCHAR
STARTCHAR uni2116.c2sc
ENCODING -1
SWIDTH 1026 0
DWIDTH 23 0
BBX 21 13 1 0
BITMAP
E061E0
F063F0
F86630
F86618
FC6618
EE6630
E663F0
E761E0
E36000
E1E3F0
E1E3F0
E0E000
E0E000
ENDCHAR
STARTCHAR uni20BD.c2sc
ENCODING -1
SWIDTH 614 0
DWIDTH 14 0
BBX 12 13 1 0
BITMAP
3FC0
3FE0
3870
3870
3870
3870
FFE0
FFC0
3800
FE00
FE00
3800
3800
ENDCHAR
STARTCHAR three.dnom
ENCODING -1
SWIDTH 370 0
DWIDTH 8 0
BBX 6 9 1 0
BITMAP
78
FC
0C
3C
3C
0C
CC
FC
78
ENDCHAR
STARTCHAR four.dnom
ENCODING -1
SWIDTH 370 0
DWIDTH 8 0
BBX 7 9 1 0
BITMAP
1C
3C
3C
6C
CC
FE
FE
0C
0C
ENDCHAR
STARTCHAR five.dnom
ENCODING -1
SWIDTH 370 0
DWIDTH 8 0
BBX 6 9 1 0
BITMAP
FC
FC
C0
F8
FC
0C
CC
FC
78
ENDCHAR
STARTCHAR six.dnom
ENCODING -1
SWIDTH 370 0
DWIDTH 8 0
BBX 6 9 1 0
BITMAP
38
78
C0
F8
FC
CC
CC
FC
78
ENDCHAR
STARTCHAR seven.dnom
ENCODING -1
SWIDTH 370 0
DWIDTH 8 0
BBX 6 9 1 0
BITMAP
FC
FC
0C
18
18
30
30
60
60
ENDCHAR
STARTCHAR eight.dnom
ENCODING -1
SWIDTH 370 0
DWIDTH 8 0
BBX 6 9 1 0
BITMAP
78
FC
CC
FC
FC
CC
CC
FC
78
ENDCHAR
STARTCHAR nine.dnom
ENCODING -1
SWIDTH 370 0
DWIDTH 8 0
BBX 6 9 1 0
BITMAP
78
FC
CC
CC
FC
7C
0C
78
70
ENDCHAR
STARTCHAR glyph550
ENCODING -1
SWIDTH 465 0
DWIDTH 10 0
BBX 7 2 2 7
BITMAP
FE
FE
ENDCHAR
STARTCHAR glyph551
ENCODING -1
SWIDTH 336 0
DWIDTH 7 0
BBX 5 6 2 12
BITMAP
38
60
E0
B0
B0
E0
ENDCHAR
STARTCHAR E.c2sc
ENCODING -1
SWIDTH 484 0
DWIDTH 11 0
BBX 9 13 1 0
BITMAP
FF80
FF80
E000
E000
E000
FF00
FF00
E000
E000
E000
E000
FF80
FF80
ENDCHAR
STARTCHAR g.ss01
ENCODING -1
SWIDTH 528 0
DWIDTH 12 0
BBX 11 16 0 -4
BITMAP
1FE0
3FE0
71C0
70E0
70E0
71C0
3FC0
1F00
3000
3FC0
3FE0
6060
E060
E0E0
7FC0
3F00
ENDCHAR
STARTCHAR alpha.ss02
ENCODING -1
SWIDTH 591 0
DWIDTH 13 0
BBX 11 12 1 0
BITMAP
3E60
7FE0
73C0
E1C0
E1C0
E0C0
E0C0
E1C0
E1C0
73C0
7FE0
3E60
ENDCHAR
STARTCHAR R.ss03
ENCODING -1
SWIDTH 658 0
DWIDTH 14 0
BBX 12 16 1 0
BITMAP
FF80
FFE0
E0E0
E070
E070
E070
E0E0
FFC0
FFC0
E0E0
E060
E070
E070
E070
E070
E070
ENDCHAR
STARTCHAR K.ss04
ENCODING -1
SWIDTH 644 0
DWIDTH 14 0
BBX 12 16 2 0
BITMAP
C0F0
C1E0
C1C0
C380
C380
C700
CE00
FE00
FE00
C700
C700
C380
C1C0
C1C0
C0E0
C070
ENDCHAR
STARTCHAR k.ss04
ENCODING -1
SWIDTH 523 0
DWIDTH 12 0
BBX 11 17 1 0
BITMAP
E000
E000
E000
E000
E000
E1C0
E380
E300
E700
EE00
FC00
FE00
E600
E700
E380
E1C0
E1E0
ENDCHAR
STARTCHAR K.ss05
ENCODING -1
SWIDTH 652 0
DWIDTH 14 0
BBX 12 16 2 0
BITMAP
C0F0
C1C0
C3C0
C780
C700
CE00
DC00
F800
FC00
DC00
CE00
C700
C380
C3C0
C1E0
C0F0
ENDCHAR
STARTCHAR k.ss05
ENCODING -1
SWIDTH 521 0
DWIDTH 11 0
BBX 10 17 1 0
BITMAP
E000
E000
E000
E000
E000
E3C0
E780
E700
EE00
FC00
F800
FC00
EE00
E700
E700
E380
E1C0
ENDCHAR
STARTCHAR D.c2sc
ENCODING -1
SWIDTH 559 0
DWIDTH 12 0
BBX 10 13 1 0
BITMAP
FE00
FF00
E380
E1C0
E0C0
E0C0
E0C0
E0C0
E0C0
E1C0
E380
FF00
FE00
ENDCHAR
STARTCHAR C.c2sc
ENCODING -1
SWIDTH 562 0
DWIDTH 12 0
BBX 11 13 1 0
BITMAP
1F00
7F80
71C0
E0C0
C020
C000
C000
C000
C000
E0E0
61C0
7F80
1F00
ENDCHAR
STARTCHAR B.c2sc
ENCODING -1
SWIDTH 546 0
DWIDTH 12 0
BBX 10 13 1 0
BITMAP
FF00
FF80
E1C0
E1C0
E1C0
FF80
FF80
E1C0
E1C0
E1C0
E1C0
FF80
FF00
ENDCHAR
STARTCHAR A.c2sc
ENCODING -1
SWIDTH 577 0
DWIDTH 13 0
BBX 13 13 0 0
BITMAP
0700
0700
0F80
0F80
1D80
19C0
18C0
38C0
3FE0
7FE0
7070
6070
E038
ENDCHAR
STARTCHAR glyph564
ENCODING -1
SWIDTH 252 0
DWIDTH 6 0
BBX 3 5 2 12
BITMAP
40
E0
C0
C0
C0
ENDCHAR
STARTCHAR glyph565
ENCODING -1
SWIDTH 453 0
DWIDTH 10 0
BBX 7 4 1 13
BITMAP
70
18
C6
7C
ENDCHAR
STARTCHAR glyph566
ENCODING -1
SWIDTH 0 0
DWIDTH 0 0
BBX 6 5 -9 13
BITMAP
18
30
00
E4
98
ENDCHAR
STARTCHAR glyph567
ENCODING -1
SWIDTH 505 0
DWIDTH 11 0
BBX 12 5 1 13
BITMAP
0070
00C0
1DC0
3600
E300
ENDCHAR
STARTCHAR glyph568
ENCODING -1
SWIDTH 505 0
DWIDTH 11 0
BBX 11 5 -2 13
BITMAP
E000
6000
3380
07C0
1CE0
ENDCHAR
STARTCHAR glyph569
ENCODING -1
SWIDTH 505 0
DWIDTH 11 0
BBX 10 5 1 13
BITMAP
0180
00C0
1DC0
7780
E300
ENDCHAR
STARTCHAR glyph570
ENCODING -1
SWIDTH 505 0
DWIDTH 11 0
BBX 8 6 1 13
BITMAP
32
2E
40
1C
36
E3
ENDCHAR
STARTCHAR uni0490.c2sc
ENCODING -1
SWIDTH 465 0
DWIDTH 10 0
BBX 9 16 1 0
BITMAP
0380
0380
0380
FF80
FF80
E000
E000
E000
E000
E000
E000
E000
E000
E000
E000
E000
ENDCHAR
STARTCHAR glyph572
ENCODING -1
SWIDTH 453 0
DWIDTH 10 0
BBX 7 4 1 13
BITMAP
0C
18
C6
7C
ENDCHAR
STARTCHAR glyph573
ENCODING -1
SWIDTH 453 0
DWIDTH 10 0
BBX 7 5 1 13
BITMAP
1C
0C
18
C6
7C
ENDCHAR
STARTCHAR zero.numr
ENCODING -1
SWIDTH 370 0
DWIDTH 8 0
BBX 6 9 1 7
BITMAP
78
FC
CC
CC
CC
CC
CC
FC
78
ENDCHAR
STARTCHAR four.numr
ENCODING -1
SWIDTH 370 0
DWIDTH 8 0
BBX 7 9 1 7
BITMAP
1C
3C
3C
6C
CC
FE
FE
0C
0C
ENDCHAR
STARTCHAR five.numr
ENCODING -1
SWIDTH 370 0
DWIDTH 8 0
BBX 6 9 1 7
BITMAP
FC
FC
C0
F8
FC
0C
CC
FC
78
ENDCHAR
STARTCHAR six.numr
ENCODING -1
SWIDTH 370 0
DWIDTH 8 0
BBX 6 9 1 7
BITMAP
38
78
C0
F8
FC
CC
CC
FC
78
ENDCHAR
STARTCHAR seven.numr
ENCODING -1
SWIDTH 370 0
DWIDTH 8 0
BBX 6 9 1 7
BITMAP
FC
FC
0C
18
18
30
30
60
60
ENDCHAR
STARTCHAR eight.numr
ENCODING -1
SWIDTH 370 0
DWIDTH 8 0
BBX 6 9 1 7
BITMAP
78
FC
CC
FC
FC
CC
CC
FC
78
ENDCHAR
STARTCHAR nine.numr
ENCODING -1
SWIDTH 370 0
DWIDTH 8 0
BBX 6 9 1 7
BITMAP
78
FC
CC
CC
FC
7C
0C
78
70
ENDCHAR
STARTCHAR C.ss06
ENCODING -1
SWIDTH 684 0
DWIDTH 15 0
BBX 13 16 1 0
BITMAP
0FC0
1FE0
3870
7038
6038
E000
E000
E000
E000
E000
E000
6038
7038
3870
1FE0
0FC0
ENDCHAR
STARTCHAR G.ss06
ENCODING -1
SWIDTH 704 0
DWIDTH 15 0
BBX 13 16 1 0
BITMAP
0FC0
3FE0
7870
7038
E038
E000
E000
E000
E1F8
E1F8
E038
E038
7038
3838
1FF0
0FC0
ENDCHAR
STARTCHAR D.ss06
ENCODING -1
SWIDTH 690 0
DWIDTH 15 0
BBX 12 16 2 0
BITMAP
FE00
FF80
C1C0
C0E0
C0E0
C070
C070
C070
C070
C070
C070
C0E0
C0E0
C3C0
FF80
FE00
ENDCHAR
STARTCHAR O.ss06
ENCODING -1
SWIDTH 734 0
DWIDTH 16 0
BBX 14 16 1 0
BITMAP
0FC0
1FE0
3870
7038
6018
E01C
E01C
E01C
E01C
E01C
E01C
6018
7038
3870
1FE0
0FC0
ENDCHAR
STARTCHAR Q.ss06
ENCODING -1
SWIDTH 735 0
DWIDTH 16 0
BBX 14 19 1 -3
BITMAP
0FC0
1FE0
3870
7038
6018
E01C
E01C
E01C
E01C
E01C
E01C
6018
7038
3870
1FE0
0FF0
0078
0038
0010
ENDCHAR
STARTCHAR one.oldstyle.pnum
ENCODING -1
SWIDTH 513 0
DWIDTH 11 0
BBX 6 13 2 0
BITMAP
0C
7C
FC
9C
1C
1C
1C
1C
1C
1C
1C
1C
1C
ENDCHAR
STARTCHAR two.oldstyle.pnum
ENCODING -1
SWIDTH 563 0
DWIDTH 12 0
BBX 10 13 1 0
BITMAP
1F00
7F80
E1C0
E1C0
E1C0
0180
0380
0700
1E00
3C00
7800
FFC0
FFC0
ENDCHAR
STARTCHAR three.oldstyle.pnum
ENCODING -1
SWIDTH 542 0
DWIDTH 12 0
BBX 11 17 0 -4
BITMAP
7FE0
7FC0
01C0
0380
0700
0E00
0F00
0FC0
01C0
00E0
00E0
00E0
00E0
00C0
43C0
FF80
3E00
ENDCHAR
STARTCHAR four.oldstyle.pnum
ENCODING -1
SWIDTH 592 0
DWIDTH 13 0
BBX 12 16 1 -3
BITMAP
01C0
03C0
07C0
07C0
0DC0
1DC0
19C0
39C0
71C0
61C0
E1C0
FFF0
FFF0
01C0
01C0
01C0
ENDCHAR
STARTCHAR five.oldstyle.pnum
ENCODING -1
SWIDTH 552 0
DWIDTH 12 0
BBX 10 17 1 -4
BITMAP
7FC0
7FC0
6000
6000
6000
6000
7F00
7F80
E3C0
01C0
00C0
00C0
00C0
01C0
4380
FF80
3E00
ENDCHAR
STARTCHAR seven.oldstyle.pnum
ENCODING -1
SWIDTH 522 0
DWIDTH 12 0
BBX 10 16 1 -3
BITMAP
FFC0
FFC0
01C0
0180
0380
0300
0700
0700
0600
0E00
0C00
1C00
1800
3800
3800
7000
ENDCHAR
STARTCHAR glyph592
ENCODING -1
SWIDTH 453 0
DWIDTH 10 0
BBX 7 5 1 13
BITMAP
72
4C
00
C6
7C
ENDCHAR
STARTCHAR glyph593
ENCODING -1
SWIDTH 212 0
DWIDTH 5 0
BBX 3 6 1 -4
BITMAP
E0
E0
E0
E0
E0
E0
ENDCHAR
STARTCHAR OE.c2sc
ENCODING -1
SWIDTH 824 0
DWIDTH 18 0
BBX 17 13 1 0
BITMAP
1FFF80
3FFF80
70C000
E0C000
E0C000
C0FF00
C0FF00
C0C000
E0C000
E0C000
70C000
3FFF80
1FFF80
ENDCHAR
STARTCHAR nine.oldstyle.pnum
ENCODING -1
SWIDTH 587 0
DWIDTH 13 0
BBX 11 17 1 -4
BITMAP
1F00
3F80
71C0
60C0
E0E0
E0E0
E0E0
60E0
71E0
3FE0
1EE0
00E0
00C0
01C0
4380
3F80
7E00
ENDCHAR
STARTCHAR glyph596
ENCODING -1
SWIDTH 257 0
DWIDTH 6 0
BBX 5 6 -1 -4
BITMAP
18
18
18
18
F8
F0
ENDCHAR
STARTCHAR three.oldstyle
ENCODING -1
SWIDTH 568 0
DWIDTH 13 0
BBX 10 17 1 -4
BITMAP
FFC0
FFC0
0380
0700
0600
0E00
1F00
1F80
03C0
01C0
00C0
00C0
00C0
01C0
8380
FF00
7E00
ENDCHAR
STARTCHAR five.oldstyle
ENCODING -1
SWIDTH 568 0
DWIDTH 13 0
BBX 10 17 1 -4
BITMAP
7FC0
7FC0
6000
6000
6000
6000
7F00
7F80
E1C0
01C0
00C0
00C0
00C0
01C0
4380
FF80
3E00
ENDCHAR
STARTCHAR four.oldstyle
ENCODING -1
SWIDTH 568 0
DWIDTH 13 0
BBX 12 16 0 -3
BITMAP
01C0
01C0
03C0
03C0
06C0
0EC0
0CC0
18C0
38C0
30C0
70C0
FFF0
7FF0
00C0
00C0
00C0
ENDCHAR
STARTCHAR two.oldstyle
ENCODING -1
SWIDTH 568 0
DWIDTH 13 0
BBX 10 13 1 0
BITMAP
1F00
7F80
E380
E1C0
E1C0
0380
0380
0F00
1E00
3800
7000
FFC0
FFC0
ENDCHAR
STARTCHAR seven.oldstyle
ENCODING -1
SWIDTH 568 0
DWIDTH 13 0
BBX 11 16 1 -3
BITMAP
FFE0
FFC0
00C0
01C0
0180
0380
0300
0700
0600
0E00
0E00
0C00
1C00
1800
3800
3000
ENDCHAR
STARTCHAR zero.oldstyle
ENCODING -1
SWIDTH 568 0
DWIDTH 13 0
BBX 11 13 1 0
BITMAP
1F00
3F80
71C0
E0E0
E0E0
C060
C060
C060
E0E0
E0E0
71C0
3F80
1F00
ENDCHAR
STARTCHAR six.oldstyle
ENCODING -1
SWIDTH 568 0
DWIDTH 13 0
BBX 11 16 1 0
BITMAP
0700
1F00
3C00
3000
7000
6F00
7FC0
F1C0
E0E0
E0E0
E0E0
60E0
70C0
71C0
3F80
1F00
ENDCHAR
STARTCHAR nine.oldstyle
ENCODING -1
SWIDTH 568 0
DWIDTH 13 0
BBX 11 17 1 -4
BITMAP
1F00
7F80
71C0
E0C0
E0C0
E0E0
E0E0
E0E0
71E0
7FE0
1EE0
00C0
01C0
01C0
4380
7F00
7E00
ENDCHAR
STARTCHAR eight.oldstyle
ENCODING -1
SWIDTH 568 0
DWIDTH 13 0
BBX 11 16 1 0
BITMAP
1F00
3F80
71C0
60C0
60C0
60C0
71C0
3F80
3F80
71C0
60C0
E0E0
E0E0
71C0
7FC0
1F00
ENDCHAR
STARTCHAR one.oldstyle
ENCODING -1
SWIDTH 568 0
DWIDTH 13 0
BBX 7 13 2 0
BITMAP
06
3E
FE
CE
0E
0E
0E
0E
0E
0E
0E
0E
0E
ENDCHAR
STARTCHAR glyph607
ENCODING -1
SWIDTH 268 0
DWIDTH 6 0
BBX 5 16 -1 -4
BITMAP
18
18
18
18
18
18
18
18
18
18
18
18
18
38
F8
F0
ENDCHAR
STARTCHAR glyph608
ENCODING -1
SWIDTH 268 0
DWIDTH 6 0
BBX 5 16 -1 -4
BITMAP
18
18
18
18
18
18
18
18
18
18
18
18
18
38
F8
F0
ENDCHAR
STARTCHAR glyph609
ENCODING -1
SWIDTH 263 0
DWIDTH 6 0
BBX 2 12 2 0
BITMAP
C0
C0
C0
C0
C0
C0
C0
C0
C0
C0
C0
C0
ENDCHAR
STARTCHAR glyph610
ENCODING -1
SWIDTH 263 0
DWIDTH 6 0
BBX 4 16 0 -4
BITMAP
30
30
30
30
30
30
30
30
30
30
30
70
C0
C0
F0
70
ENDCHAR
STARTCHAR glyph611
ENCODING -1
SWIDTH 263 0
DWIDTH 6 0
BBX 2 12 2 0
BITMAP
C0
C0
C0
C0
C0
C0
C0
C0
C0
C0
C0
C0
ENDCHAR
STARTCHAR germandbls.sc
ENCODING -1
SWIDTH 546 0
DWIDTH 12 0
BBX 10 13 1 0
BITMAP
3E00
7F80
6380
E700
E600
EF00
EFC0
E1C0
E0C0
E0C0
F1C0
EF80
EF00
ENDCHAR
STARTCHAR zero.oldstyle.pnum
ENCODING -1
SWIDTH 614 0
DWIDTH 14 0
BBX 12 13 1 0
BITMAP
1F00
3FC0
70E0
6060
E060
E070
E070
E070
E060
6060
70E0
3FC0
0F80
ENDCHAR
STARTCHAR seven.pnum
ENCODING -1
SWIDTH 524 0
DWIDTH 12 0
BBX 10 16 1 0
BITMAP
FFC0
FFC0
0180
0180
0300
0300
0700
0600
0E00
0C00
0C00
1C00
1800
3800
3000
7000
ENDCHAR
STARTCHAR b.ss06
ENCODING -1
SWIDTH 566 0
DWIDTH 12 0
BBX 11 17 1 0
BITMAP
E000
E000
E000
E000
E000
EF00
FF80
E1C0
E1C0
E0C0
E0E0
E0E0
E0C0
E1C0
F1C0
FF80
CF00
ENDCHAR
STARTCHAR c.ss06
ENCODING -1
SWIDTH 529 0
DWIDTH 12 0
BBX 10 12 1 0
BITMAP
1F00
3F80
71C0
E0C0
E000
E000
E000
E000
E0C0
71C0
3F80
1F00
ENDCHAR
STARTCHAR d.ss06
ENCODING -1
SWIDTH 574 0
DWIDTH 13 0
BBX 10 17 1 0
BITMAP
00C0
00C0
00C0
00C0
00C0
1EC0
7FC0
71C0
E0C0
E0C0
E0C0
E0C0
E0C0
E0C0
71C0
3FC0
1EC0
ENDCHAR
STARTCHAR g.ss06
ENCODING -1
SWIDTH 571 0
DWIDTH 13 0
BBX 10 16 1 -4
BITMAP
1EC0
7FC0
71C0
E0C0
E0C0
E0C0
E0C0
E0C0
E0C0
71C0
3FC0
1EC0
00C0
41C0
3F80
7F00
ENDCHAR
STARTCHAR o.ss06
ENCODING -1
SWIDTH 578 0
DWIDTH 13 0
BBX 11 12 1 0
BITMAP
1F00
3F80
71C0
E0E0
E0E0
E0E0
E0E0
E0E0
E0E0
71C0
3F80
1F00
ENDCHAR
STARTCHAR p.ss06
ENCODING -1
SWIDTH 572 0
DWIDTH 13 0
BBX 10 16 2 -4
BITMAP
DE00
FF80
E380
C1C0
C1C0
C1C0
C1C0
C1C0
C1C0
E380
FF80
DE00
C000
C000
C000
C000
ENDCHAR
STARTCHAR q.ss06
ENCODING -1
SWIDTH 577 0
DWIDTH 13 0
BBX 10 16 1 -4
BITMAP
1EC0
7FC0
71C0
E0C0
E0C0
E0C0
E0C0
E0C0
E0C0
71C0
7FC0
1EC0
00C0
00C0
00C0
00C0
ENDCHAR
STARTCHAR e.ss07
ENCODING -1
SWIDTH 536 0
DWIDTH 12 0
BBX 10 12 1 0
BITMAP
1F00
3F80
71C0
E1C0
E0C0
FFC0
FFC0
E000
E000
7080
3FC0
1F80
ENDCHAR
STARTCHAR g.ss07
ENCODING -1
SWIDTH 566 0
DWIDTH 12 0
BBX 10 16 1 -4
BITMAP
3DC0
7FC0
E3C0
E1C0
C1C0
C1C0
C1C0
C1C0
E1C0
E3C0
7FC0
3DC0
01C0
4380
7F80
3E00
ENDCHAR
STARTCHAR one.pnum
ENCODING -1
SWIDTH 455 0
DWIDTH 10 0
BBX 6 16 1 0
BITMAP
04
3C
FC
CC
0C
0C
0C
0C
0C
0C
0C
0C
0C
0C
0C
0C
ENDCHAR
STARTCHAR ampersand.c2sc
ENCODING -1
SWIDTH 626 0
DWIDTH 14 0
BBX 12 13 1 0
BITMAP
1E00
7F00
7300
6300
7700
3E00
3C00
7E60
E760
E3E0
E1C0
7FE0
3F70
ENDCHAR
STARTCHAR Lslash.c2sc
ENCODING -1
SWIDTH 470 0
DWIDTH 10 0
BBX 10 13 0 0
BITMAP
7000
7000
7000
7000
7600
7E00
F000
F000
7000
7000
7000
7FC0
7FC0
ENDCHAR
STARTCHAR AE.c2sc
ENCODING -1
SWIDTH 784 0
DWIDTH 17 0
BBX 16 13 0 0
BITMAP
03FF
03FF
07C0
06C0
0EC0
0CFE
1CFE
18E0
3FE0
3FE0
70E0
E0FF
E0FF
ENDCHAR
STARTCHAR Thorn.c2sc
ENCODING -1
SWIDTH 504 0
DWIDTH 11 0
BBX 9 13 1 0
BITMAP
E000
E000
FE00
FF80
E380
E180
E180
E380
FF80
FE00
E000
E000
E000
ENDCHAR
STARTCHAR Oslash.c2sc
ENCODING -1
SWIDTH 593 0
DWIDTH 13 0
BBX 11 13 1 0
BITMAP
1F60
3FC0
71C0
E1E0
E3E0
C660
C460
CC60
F8E0
F0E0
71C0
7F80
DF00
ENDCHAR
STARTCHAR Hbar.c2sc
ENCODING -1
SWIDTH 629 0
DWIDTH 14 0
BBX 12 13 1 0
BITMAP
6060
6060
FFF0
FFF0
6060
6060
7FE0
7FE0
6060
6060
6060
6060
6060
ENDCHAR
STARTCHAR Eng.c2sc
ENCODING -1
SWIDTH 607 0
DWIDTH 13 0
BBX 11 17 1 -4
BITMAP
E0E0
F0E0
F0E0
F8E0
FCE0
ECE0
EEE0
E7E0
E3E0
E3E0
E1E0
E0E0
E0E0
00E0
00E0
03C0
0380
ENDCHAR
STARTCHAR Dcroat.c2sc
ENCODING -1
SWIDTH 559 0
DWIDTH 12 0
BBX 12 13 -1 0
BITMAP
3F80
3FC0
38E0
3870
3830
FE30
FE30
3830
3830
3870
38E0
3FC0
3F80
ENDCHAR
STARTCHAR Eth.c2sc
ENCODING -1
SWIDTH 559 0
DWIDTH 12 0
BBX 12 13 -1 0
BITMAP
3F80
3FC0
38E0
3870
3830
FE30
FE30
3830
3830
3870
38E0
3FC0
3F80
ENDCHAR
STARTCHAR Tbar.c2sc
ENCODING -1
SWIDTH 528 0
DWIDTH 12 0
BBX 11 13 0 0
BITMAP
FFE0
FFE0
0E00
0E00
0E00
3F80
3F80
0E00
0E00
0E00
0E00
0E00
0E00
ENDCHAR
STARTCHAR Agrave.c2sc
ENCODING -1
SWIDTH 577 0
DWIDTH 13 0
BBX 13 17 0 0
BITMAP
1C00
0E00
0700
0000
0700
0700
0F80
0F80
1D80
19C0
18C0
38C0
3FE0
7FE0
7070
6070
E038
ENDCHAR
STARTCHAR Aacute.c2sc
ENCODING -1
SWIDTH 577 0
DWIDTH 13 0
BBX 13 17 0 0
BITMAP
01C0
0380
0700
0000
0700
0700
0F80
0F80
1D80
19C0
18C0
38C0
3FE0
7FE0
7070
6070
E038
ENDCHAR
STARTCHAR Acircumflex.c2sc
ENCODING -1
SWIDTH 577 0
DWIDTH 13 0
BBX 13 17 0 0
BITMAP
0700
0F80
19C0
0000
0700
0700
0F80
0F80
1D80
19C0
18C0
38C0
3FE0
7FE0
7070
6070
E038
ENDCHAR
STARTCHAR Atilde.c2sc
ENCODING -1
SWIDTH 577 0
DWIDTH 13 0
BBX 13 17 0 0
BITMAP
1C40
1FC0
3380
0000
0700
0700
0F80
0F80
1D80
19C0
18C0
38C0
3FE0
7FE0
7070
6070
E038
ENDCHAR
STARTCHAR Adieresis.c2sc
ENCODING -1
SWIDTH 577 0
DWIDTH 13 0
BBX 13 17 0 0
BITMAP
18C0
19C0
18C0
0000
0700
0700
0F80
0F80
1D80
19C0
18C0
38C0
3FE0
7FE0
7070
6070
E038
ENDCHAR
STARTCHAR Aring.c2sc
ENCODING -1
SWIDTH 577 0
DWIDTH 13 0
BBX 13 18 0 0
BITMAP
0700
0980
0980
0700
0000
0700
0700
0F80
0F80
1D80
19C0
18C0
38C0
3FE0
7FE0
7070
6070
E038
ENDCHAR
STARTCHAR Aringacute.c2sc
ENCODING -1
SWIDTH 577 0
DWIDTH 13 0
BBX 13 18 0 0
BITMAP
01C0
0300
0700
0D00
0D00
0700
0700
0F80
0F80
1D80
19C0
18C0
38C0
3FE0
7FE0
7070
6070
E038
ENDCHAR
STARTCHAR Ccedilla.c2sc
ENCODING -1
SWIDTH 562 0
DWIDTH 12 0
BBX 11 18 1 -5
BITMAP
1F00
7F80
71C0
E0C0
C020
C000
C000
C000
C000
E0E0
61C0
7F80
1F00
0C00
0F00
0300
0300
0E00
ENDCHAR
STARTCHAR Egrave.c2sc
ENCODING -1
SWIDTH 484 0
DWIDTH 11 0
BBX 9 17 1 0
BITMAP
7800
1800
0C00
0000
FF80
FF80
E000
E000
E000
FF00
FF00
E000
E000
E000
E000
FF80
FF80
ENDCHAR
STARTCHAR Eacute.c2sc
ENCODING -1
SWIDTH 484 0
DWIDTH 11 0
BBX 9 17 1 0
BITMAP
0780
0E00
0C00
0000
FF80
FF80
E000
E000
E000
FF00
FF00
E000
E000
E000
E000
FF80
FF80
ENDCHAR
STARTCHAR Ecircumflex.c2sc
ENCODING -1
SWIDTH 484 0
DWIDTH 11 0
BBX 9 17 1 0
BITMAP
1C00
3E00
7380
0000
FF80
FF80
E000
E000
E000
FF00
FF00
E000
E000
E000
E000
FF80
FF80
ENDCHAR
STARTCHAR Edieresis.c2sc
ENCODING -1
SWIDTH 484 0
DWIDTH 11 0
BBX 9 17 1 0
BITMAP
6300
7380
6300
0000
FF80
FF80
E000
E000
E000
FF00
FF00
E000
E000
E000
E000
FF80
FF80
ENDCHAR
STARTCHAR Igrave.c2sc
ENCODING -1
SWIDTH 248 0
DWIDTH 5 0
BBX 5 17 -1 0
BITMAP
E0
70
38
00
38
38
38
38
38
38
38
38
38
38
38
38
38
ENDCHAR
STARTCHAR Iacute.c2sc
ENCODING -1
SWIDTH 248 0
DWIDTH 5 0
BBX 5 17 1 0
BITMAP
38
70
E0
00
E0
E0
E0
E0
E0
E0
E0
E0
E0
E0
E0
E0
E0
ENDCHAR
STARTCHAR Icircumflex.c2sc
ENCODING -1
SWIDTH 248 0
DWIDTH 5 0
BBX 7 17 -1 0
BITMAP
38
7C
E6
00
38
38
38
38
38
38
38
38
38
38
38
38
38
ENDCHAR
STARTCHAR Idieresis.c2sc
ENCODING -1
SWIDTH 248 0
DWIDTH 5 0
BBX 8 17 -1 0
BITMAP
C6
E7
C6
00
38
38
38
38
38
38
38
38
38
38
38
38
38
ENDCHAR
STARTCHAR Ntilde.c2sc
ENCODING -1
SWIDTH 607 0
DWIDTH 13 0
BBX 11 17 1 0
BITMAP
1CC0
3F80
2380
0000
E0E0
F0E0
F0E0
F8E0
FCE0
ECE0
EEE0
E7E0
E3E0
E3E0
E1E0
E0E0
E0E0
ENDCHAR
STARTCHAR Ograve.c2sc
ENCODING -1
SWIDTH 593 0
DWIDTH 13 0
BBX 11 17 1 0
BITMAP
3800
1C00
0E00
0000
1F00
3F80
71C0
E0E0
E0E0
C060
C060
C060
E0E0
E0E0
71C0
3F80
1F00
ENDCHAR
STARTCHAR Oacute.c2sc
ENCODING -1
SWIDTH 593 0
DWIDTH 13 0
BBX 11 17 1 0
BITMAP
0380
0700
0E00
0000
1F00
3F80
71C0
E0E0
E0E0
C060
C060
C060
E0E0
E0E0
71C0
3F80
1F00
ENDCHAR
STARTCHAR Ocircumflex.c2sc
ENCODING -1
SWIDTH 593 0
DWIDTH 13 0
BBX 11 17 1 0
BITMAP
0E00
1B00
3180
0000
1F00
3F80
71C0
E0E0
E0E0
C060
C060
C060
E0E0
E0E0
71C0
3F80
1F00
ENDCHAR
STARTCHAR Otilde.c2sc
ENCODING -1
SWIDTH 593 0
DWIDTH 13 0
BBX 11 17 1 0
BITMAP
1880
3F80
2300
0000
1F00
3F80
71C0
E0E0
E0E0
C060
C060
C060
E0E0
E0E0
71C0
3F80
1F00
ENDCHAR
STARTCHAR Odieresis.c2sc
ENCODING -1
SWIDTH 593 0
DWIDTH 13 0
BBX 11 17 1 0
BITMAP
3180
3180
3180
0000
1F00
3F80
71C0
E0E0
E0E0
C060
C060
C060
E0E0
E0E0
71C0
3F80
1F00
ENDCHAR
STARTCHAR Ugrave.c2sc
ENCODING -1
SWIDTH 564 0
DWIDTH 12 0
BBX 10 17 1 0
BITMAP
7800
1C00
0E00
0000
E0C0
E0C0
E0C0
E0C0
E0C0
E0C0
E0C0
E0C0
E0C0
E1C0
E1C0
7F80
3F00
ENDCHAR
STARTCHAR Uacute.c2sc
ENCODING -1
SWIDTH 564 0
DWIDTH 12 0
BBX 10 17 1 0
BITMAP
0380
0600
0C00
0000
E0C0
E0C0
E0C0
E0C0
E0C0
E0C0
E0C0
E0C0
E0C0
E1C0
E1C0
7F80
3F00
ENDCHAR
STARTCHAR Ucircumflex.c2sc
ENCODING -1
SWIDTH 564 0
DWIDTH 12 0
BBX 10 17 1 0
BITMAP
0E00
1F00
7380
0000
E0C0
E0C0
E0C0
E0C0
E0C0
E0C0
E0C0
E0C0
E0C0
E1C0
E1C0
7F80
3F00
ENDCHAR
STARTCHAR Udieresis.c2sc
ENCODING -1
SWIDTH 564 0
DWIDTH 12 0
BBX 10 17 1 0
BITMAP
3180
7380
3180
0000
E0C0
E0C0
E0C0
E0C0
E0C0
E0C0
E0C0
E0C0
E0C0
E1C0
E1C0
7F80
3F00
ENDCHAR
STARTCHAR Yacute.c2sc
ENCODING -1
SWIDTH 529 0
DWIDTH 12 0
BBX 12 17 0 0
BITMAP
03C0
0700
0E00
0000
E0F0
70E0
71C0
39C0
3980
1F80
0F00
0F00
0E00
0E00
0E00
0E00
0E00
ENDCHAR
STARTCHAR Amacron.c2sc
ENCODING -1
SWIDTH 577 0
DWIDTH 13 0
BBX 13 16 0 0
BITMAP
1FC0
1FC0
0000
0700
0700
0F80
0F80
1D80
19C0
18C0
38C0
3FE0
7FE0
7070
6070
E038
ENDCHAR
STARTCHAR Abreve.c2sc
ENCODING -1
SWIDTH 577 0
DWIDTH 13 0
BBX 13 17 0 0
BITMAP
18C0
1F80
0F00
0000
0700
0700
0F80
0F80
1D80
19C0
18C0
38C0
3FE0
7FE0
7070
6070
E038
ENDCHAR
STARTCHAR Aogonek.c2sc
ENCODING -1
SWIDTH 577 0
DWIDTH 13 0
BBX 13 17 0 -4
BITMAP
0700
0700
0F80
0D80
0D80
1DC0
18C0
38E0
3FE0
3FE0
7070
6030
E038
0060
00C0
00F0
0070
ENDCHAR
STARTCHAR Cacute.c2sc
ENCODING -1
SWIDTH 562 0
DWIDTH 12 0
BBX 11 17 1 0
BITMAP
0380
0700
0E00
0000
1F00
7F80
71C0
E0C0
C020
C000
C000
C000
C000
E0E0
61C0
7F80
1F00
ENDCHAR
STARTCHAR Ccircumflex.c2sc
ENCODING -1
SWIDTH 562 0
DWIDTH 12 0
BBX 11 17 1 0
BITMAP
0E00
1F00
3380
0000
1F00
7F80
71C0
E0C0
C020
C000
C000
C000
C000
E0E0
61C0
7F80
1F00
ENDCHAR
STARTCHAR Cdotaccent.c2sc
ENCODING -1
SWIDTH 562 0
DWIDTH 12 0
BBX 11 17 1 0
BITMAP
0E00
0E00
0E00
0000
1F00
7F80
71C0
E0C0
C020
C000
C000
C000
C000
E0E0
61C0
7F80
1F00
ENDCHAR
STARTCHAR Ccaron.c2sc
ENCODING -1
SWIDTH 562 0
DWIDTH 12 0
BBX 11 17 1 0
BITMAP
3380
1F00
0E00
0000
1F00
7F80
71C0
E0C0
C020
C000
C000
C000
C000
E0E0
61C0
7F80
1F00
ENDCHAR
STARTCHAR Dcaron.c2sc
ENCODING -1
SWIDTH 559 0
DWIDTH 12 0
BBX 10 17 1 0
BITMAP
E700
3C00
1800
0000
FE00
FF00
E380
E1C0
E0C0
E0C0
E0C0
E0C0
E0C0
E1C0
E380
FF00
FE00
ENDCHAR
STARTCHAR Emacron.c2sc
ENCODING -1
SWIDTH 484 0
DWIDTH 11 0
BBX 9 16 1 0
BITMAP
7F80
7F80
0000
FF80
FF80
E000
E000
E000
FF00
FF00
E000
E000
E000
E000
FF80
FF80
ENDCHAR
STARTCHAR Ebreve.c2sc
ENCODING -1
SWIDTH 484 0
DWIDTH 11 0
BBX 9 17 1 0
BITMAP
6300
3F00
1E00
0000
FF80
FF80
E000
E000
E000
FF00
FF00
E000
E000
E000
E000
FF80
FF80
ENDCHAR
STARTCHAR Edotaccent.c2sc
ENCODING -1
SWIDTH 484 0
DWIDTH 11 0
BBX 9 17 1 0
BITMAP
0C00
0C00
0C00
0000
FF80
FF80
E000
E000
E000
FF00
FF00
E000
E000
E000
E000
FF80
FF80
ENDCHAR
STARTCHAR Eogonek.c2sc
ENCODING -1
SWIDTH 484 0
DWIDTH 11 0
BBX 9 17 1 -4
BITMAP
FF80
FF80
E000
E000
E000
FF00
FF00
E000
E000
E000
E000
FF80
FF80
0600
0600
0700
0780
ENDCHAR
STARTCHAR Ecaron.c2sc
ENCODING -1
SWIDTH 484 0
DWIDTH 11 0
BBX 9 17 1 0
BITMAP
7380
3E00
0C00
0000
FF80
FF80
E000
E000
E000
FF00
FF00
E000
E000
E000
E000
FF80
FF80
ENDCHAR
STARTCHAR Gcircumflex.c2sc
ENCODING -1
SWIDTH 581 0
DWIDTH 13 0
BBX 11 17 1 0
BITMAP
0E00
1B00
3180
0000
1F00
3FC0
71C0
E0E0
E000
E000
E3E0
E3E0
E0E0
E0E0
70E0
3FE0
1F80
ENDCHAR
STARTCHAR Gbreve.c2sc
ENCODING -1
SWIDTH 581 0
DWIDTH 13 0
BBX 11 17 1 0
BITMAP
3180
3F00
1E00
0000
1F00
3FC0
71C0
E0E0
E000
E000
E3E0
E3E0
E0E0
E0E0
70E0
3FE0
1F80
ENDCHAR
STARTCHAR Gdotaccent.c2sc
ENCODING -1
SWIDTH 581 0
DWIDTH 13 0
BBX 11 17 1 0
BITMAP
0600
0E00
0600
0000
1F00
3FC0
71C0
E0E0
E000
E000
E3E0
E3E0
E0E0
E0E0
70E0
3FE0
1F80
ENDCHAR
STARTCHAR uni0122.c2sc
ENCODING -1
SWIDTH 581 0
DWIDTH 13 0
BBX 11 18 1 -5
BITMAP
1F00
3FC0
71C0
E0E0
E000
E000
E3E0
E3E0
E0E0
E0E0
70E0
3FE0
1F80
0000
0E00
0E00
0C00
0C00
ENDCHAR
STARTCHAR Hcircumflex.c2sc
ENCODING -1
SWIDTH 608 0
DWIDTH 13 0
BBX 11 17 1 0
BITMAP
0E00
1B00
3180
0000
E0E0
E0E0
E0E0
E0E0
E0E0
FFE0
FFE0
E0E0
E0E0
E0E0
E0E0
E0E0
E0E0
ENDCHAR
STARTCHAR Itilde.c2sc
ENCODING -1
SWIDTH 248 0
DWIDTH 5 0
BBX 8 17 -1 0
BITMAP
73
FE
CE
00
38
38
38
38
38
38
38
38
38
38
38
38
38
ENDCHAR
STARTCHAR Imacron.c2sc
ENCODING -1
SWIDTH 248 0
DWIDTH 5 0
BBX 8 16 -1 0
BITMAP
FF
FF
00
38
38
38
38
38
38
38
38
38
38
38
38
38
ENDCHAR
STARTCHAR Ibreve.c2sc
ENCODING -1
SWIDTH 248 0
DWIDTH 5 0
BBX 7 17 -1 0
BITMAP
C6
7E
3C
00
38
38
38
38
38
38
38
38
38
38
38
38
38
ENDCHAR
STARTCHAR Iogonek.c2sc
ENCODING -1
SWIDTH 248 0
DWIDTH 5 0
BBX 4 17 0 -4
BITMAP
70
70
70
70
70
70
70
70
70
70
70
70
70
C0
C0
F0
70
ENDCHAR
STARTCHAR Idotaccent.c2sc
ENCODING -1
SWIDTH 248 0
DWIDTH 5 0
BBX 3 17 1 0
BITMAP
60
60
60
00
E0
E0
E0
E0
E0
E0
E0
E0
E0
E0
E0
E0
E0
ENDCHAR
STARTCHAR Jcircumflex.c2sc
ENCODING -1
SWIDTH 479 0
DWIDTH 11 0
BBX 11 17 1 0
BITMAP
0300
0F80
1CE0
0000
0380
0380
0380
0380
0380
0380
0380
0380
0380
C300
E700
7E00
1800
ENDCHAR
STARTCHAR uni0136.c2sc
ENCODING -1
SWIDTH 544 0
DWIDTH 12 0
BBX 11 18 1 -5
BITMAP
E1E0
E3C0
E380
E700
EE00
FC00
FE00
FE00
E700
E380
E380
E1C0
E0E0
0000
1C00
1C00
1800
1800
ENDCHAR
STARTCHAR Lacute.c2sc
ENCODING -1
SWIDTH 465 0
DWIDTH 10 0
BBX 9 17 1 0
BITMAP
3800
7000
E000
0000
E000
E000
E000
E000
E000
E000
E000
E000
E000
E000
E000
FF80
FF80
ENDCHAR
STARTCHAR uni013B.c2sc
ENCODING -1
SWIDTH 465 0
DWIDTH 10 0
BBX 9 18 1 -5
BITMAP
E000
E000
E000
E000
E000
E000
E000
E000
E000
E000
E000
FF80
FF80
0000
1C00
1C00
1800
1800
ENDCHAR
STARTCHAR Lcaron.c2sc
ENCODING -1
SWIDTH 465 0
DWIDTH 10 0
BBX 9 13 1 0
BITMAP
E600
E600
E600
EC00
E000
E000
E000
E000
E000
E000
E000
FF80
FF80
ENDCHAR
STARTCHAR Ldot.c2sc
ENCODING -1
SWIDTH 465 0
DWIDTH 10 0
BBX 9 13 1 0
BITMAP
E000
E000
E000
E000
E600
E600
E600
E000
E000
E000
E000
FF80
FF80
ENDCHAR
STARTCHAR Nacute.c2sc
ENCODING -1
SWIDTH 607 0
DWIDTH 13 0
BBX 11 17 1 0
BITMAP
0380
0700
0E00
0000
E0E0
F0E0
F0E0
F8E0
FCE0
ECE0
EEE0
E7E0
E3E0
E3E0
E1E0
E0E0
E0E0
ENDCHAR
STARTCHAR uni0145.c2sc
ENCODING -1
SWIDTH 607 0
DWIDTH 13 0
BBX 11 18 1 -5
BITMAP
E0E0
F0E0
F0E0
F8E0
FCE0
ECE0
EEE0
E7E0
E3E0
E3E0
E1E0
E0E0
E0E0
0000
0600
0600
0C00
0C00
ENDCHAR
STARTCHAR Ncaron.c2sc
ENCODING -1
SWIDTH 607 0
DWIDTH 13 0
BBX 11 17 1 0
BITMAP
39C0
1F00
0E00
0000
E0E0
F0E0
F0E0
F8E0
FCE0
ECE0
EEE0
E7E0
E3E0
E3E0
E1E0
E0E0
E0E0
ENDCHAR
STARTCHAR Omacron.c2sc
ENCODING -1
SWIDTH 593 0
DWIDTH 13 0
BBX 11 16 1 0
BITMAP
3F80
3F80
0000
1F00
3F80
71C0
E0E0
E0E0
C060
C060
C060
E0E0
E0E0
71C0
3F80
1F00
ENDCHAR
STARTCHAR Obreve.c2sc
ENCODING -1
SWIDTH 593 0
DWIDTH 13 0
BBX 11 17 1 0
BITMAP
3180
3F80
1F00
0000
1F00
3F80
71C0
E0E0
E0E0
C060
C060
C060
E0E0
E0E0
71C0
3F80
1F00
ENDCHAR
STARTCHAR Ohungarumlaut.c2sc
ENCODING -1
SWIDTH 593 0
DWIDTH 13 0
BBX 11 17 1 0
BITMAP
0EE0
1D80
1B80
0000
1F00
3F80
71C0
E0E0
E0E0
C060
C060
C060
E0E0
E0E0
71C0
3F80
1F00
ENDCHAR
STARTCHAR Racute.c2sc
ENCODING -1
SWIDTH 544 0
DWIDTH 12 0
BBX 11 17 1 0
BITMAP
0700
0E00
1C00
0000
FF00
FF80
E1C0
E1C0
E1C0
E1C0
FF80
FF00
E300
E380
E180
E1C0
E0E0
ENDCHAR
STARTCHAR uni0156.c2sc
ENCODING -1
SWIDTH 544 0
DWIDTH 12 0
BBX 11 18 1 -5
BITMAP
FF00
FF80
E1C0
E1C0
E1C0
E1C0
FF80
FF00
E300
E380
E180
E1C0
E0C0
0020
0C00
0C00
1800
1800
ENDCHAR
STARTCHAR Rcaron.c2sc
ENCODING -1
SWIDTH 544 0
DWIDTH 12 0
BBX 11 17 1 0
BITMAP
6300
3600
1C00
0000
FF00
FF80
E1C0
E1C0
E1C0
E1C0
FF80
FF00
E300
E380
E180
E1C0
E0E0
ENDCHAR
STARTCHAR Sacute.c2sc
ENCODING -1
SWIDTH 525 0
DWIDTH 12 0
BBX 10 17 1 0
BITMAP
0780
0E00
0C00
0000
1F00
7F80
61C0
E1C0
E000
7C00
3F00
0780
01C0
E1C0
E1C0
7F80
1F00
ENDCHAR
STARTCHAR Scircumflex.c2sc
ENCODING -1
SWIDTH 525 0
DWIDTH 12 0
BBX 10 17 1 0
BITMAP
0C00
3F00
7380
0000
1F00
7F80
61C0
E1C0
E000
7C00
3F00
0780
01C0
E1C0
E1C0
7F80
1F00
ENDCHAR
STARTCHAR Scedilla.c2sc
ENCODING -1
SWIDTH 525 0
DWIDTH 12 0
BBX 10 18 1 -5
BITMAP
1F00
7F80
61C0
E1C0
E000
7C00
3F00
0780
01C0
E1C0
E1C0
7F80
1F00
0C00
0E00
0700
0600
0E00
ENDCHAR
STARTCHAR Scaron.c2sc
ENCODING -1
SWIDTH 525 0
DWIDTH 12 0
BBX 10 17 1 0
BITMAP
7380
1E00
0C00
0000
1F00
7F80
61C0
E1C0
E000
7C00
3F00
0780
01C0
E1C0
E1C0
7F80
1F00
ENDCHAR
STARTCHAR uni021A.c2sc
ENCODING -1
SWIDTH 528 0
DWIDTH 12 0
BBX 11 18 0 -5
BITMAP
FFE0
FFE0
0E00
0E00
0E00
0E00
0E00
0E00
0E00
0E00
0E00
0E00
0E00
0000
0600
0600
0C00
0C00
ENDCHAR
STARTCHAR Tcaron.c2sc
ENCODING -1
SWIDTH 528 0
DWIDTH 12 0
BBX 11 17 0 0
BITMAP
39C0
1F00
0E00
0000
FFE0
FFE0
0E00
0E00
0E00
0E00
0E00
0E00
0E00
0E00
0E00
0E00
0E00
ENDCHAR
STARTCHAR uni0162.c2sc
ENCODING -1
SWIDTH 528 0
DWIDTH 12 0
BBX 11 18 0 -5
BITMAP
FFE0
FFE0
0E00
0E00
0E00
0E00
0E00
0E00
0E00
0E00
0E00
0E00
0E00
0600
0700
0300
0300
0600
ENDCHAR
STARTCHAR Utilde.c2sc
ENCODING -1
SWIDTH 564 0
DWIDTH 12 0
BBX 10 17 1 0
BITMAP
3980
3F80
6700
0000
E0C0
E0C0
E0C0
E0C0
E0C0
E0C0
E0C0
E0C0
E0C0
E1C0
E1C0
7F80
3F00
ENDCHAR
STARTCHAR Umacron.c2sc
ENCODING -1
SWIDTH 564 0
DWIDTH 12 0
BBX 10 16 1 0
BITMAP
3F80
3F80
0000
E0C0
E0C0
E0C0
E0C0
E0C0
E0C0
E0C0
E0C0
E0C0
E1C0
E1C0
7F80
3F00
ENDCHAR
STARTCHAR Ubreve.c2sc
ENCODING -1
SWIDTH 564 0
DWIDTH 12 0
BBX 10 17 1 0
BITMAP
3180
3F00
1E00
0000
E0C0
E0C0
E0C0
E0C0
E0C0
E0C0
E0C0
E0C0
E0C0
E1C0
E1C0
7F80
3F00
ENDCHAR
STARTCHAR Uring.c2sc
ENCODING -1
SWIDTH 564 0
DWIDTH 12 0
BBX 10 18 1 0
BITMAP
0E00
1200
1300
0E00
0000
E0C0
E0C0
E0C0
E0C0
E0C0
E0C0
E0C0
E0C0
E0C0
E1C0
E1C0
7F80
3F00
ENDCHAR
STARTCHAR Uhungarumlaut.c2sc
ENCODING -1
SWIDTH 564 0
DWIDTH 12 0
BBX 11 17 1 0
BITMAP
0EE0
1980
3B00
0000
E0C0
E0C0
E0C0
E0C0
E0C0
E0C0
E0C0
E0C0
E0C0
E1C0
E1C0
7F80
3F00
ENDCHAR
STARTCHAR Uogonek.c2sc
ENCODING -1
SWIDTH 564 0
DWIDTH 12 0
BBX 10 17 1 -4
BITMAP
E0C0
E0C0
E0C0
E0C0
E0C0
E0C0
E0C0
E0C0
E0C0
E1C0
E1C0
7F80
3F00
0C00
0C00
0F00
0700
ENDCHAR
STARTCHAR Wcircumflex.c2sc
ENCODING -1
SWIDTH 753 0
DWIDTH 17 0
BBX 16 17 0 0
BITMAP
01C0
03E0
0670
0000
E1C3
61C7
61C7
73C6
7366
3366
336E
366C
3E3C
1E3C
1E3C
1C3C
1C18
ENDCHAR
STARTCHAR Ycircumflex.c2sc
ENCODING -1
SWIDTH 529 0
DWIDTH 12 0
BBX 12 17 0 0
BITMAP
0E00
1F00
3980
0000
E0F0
70E0
71C0
39C0
3980
1F80
0F00
0F00
0E00
0E00
0E00
0E00
0E00
ENDCHAR
STARTCHAR Ydieresis.c2sc
ENCODING -1
SWIDTH 529 0
DWIDTH 12 0
BBX 12 17 0 0
BITMAP
3180
39C0
3180
0000
E0F0
70E0
71C0
39C0
3980
1F80
0F00
0F00
0E00
0E00
0E00
0E00
0E00
ENDCHAR
STARTCHAR Zacute.c2sc
ENCODING -1
SWIDTH 520 0
DWIDTH 11 0
BBX 10 17 1 0
BITMAP
0780
0E00
1C00
0000
FFC0
FFC0
0380
0700
0700
0E00
1C00
1800
3800
7000
E000
FFC0
FFC0
ENDCHAR
STARTCHAR Zdotaccent.c2sc
ENCODING -1
SWIDTH 520 0
DWIDTH 11 0
BBX 10 17 1 0
BITMAP
0C00
0C00
0C00
0000
FFC0
FFC0
0380
0700
0700
0E00
1C00
1800
3800
7000
E000
FFC0
FFC0
ENDCHAR
STARTCHAR Zcaron.c2sc
ENCODING -1
SWIDTH 520 0
DWIDTH 11 0
BBX 10 17 1 0
BITMAP
7380
3E00
1C00
0000
FFC0
FFC0
0380
0700
0700
0E00
1C00
1800
3800
7000
E000
FFC0
FFC0
ENDCHAR
STARTCHAR two.pnum
ENCODING -1
SWIDTH 568 0
DWIDTH 13 0
BBX 11 16 1 0
BITMAP
1F00
7F80
71C0
E0C0
E0C0
00C0
01C0
0380
0380
0700
0E00
1C00
3800
7000
FFE0
FFE0
ENDCHAR
STARTCHAR three.pnum
ENCODING -1
SWIDTH 568 0
DWIDTH 13 0
BBX 10 16 1 0
BITMAP
1F00
7F80
71C0
E1C0
00C0
01C0
01C0
1F80
1F80
01C0
00C0
00C0
E0C0
F1C0
7F80
1F00
ENDCHAR
STARTCHAR four.pnum
ENCODING -1
SWIDTH 568 0
DWIDTH 13 0
BBX 11 16 1 0
BITMAP
0380
0780
0780
0F80
1F80
1B80
3B80
7380
6380
E380
FFE0
FFE0
0380
0380
0380
0380
ENDCHAR
STARTCHAR five.pnum
ENCODING -1
SWIDTH 568 0
DWIDTH 13 0
BBX 10 16 2 0
BITMAP
7F80
7F80
6000
6000
E000
FE00
FF80
E380
01C0
01C0
01C0
C1C0
C1C0
E380
7F80
3E00
ENDCHAR
STARTCHAR six.pnum
ENCODING -1
SWIDTH 578 0
DWIDTH 13 0
BBX 10 16 2 0
BITMAP
0F00
1F00
3800
7000
E000
FF00
FF80
E380
E1C0
C1C0
C1C0
E1C0
E1C0
7380
7F80
1E00
ENDCHAR
STARTCHAR eight.pnum
ENCODING -1
SWIDTH 587 0
DWIDTH 13 0
BBX 10 16 2 0
BITMAP
3E00
7F00
E380
E180
E180
E180
6380
7F00
7F00
E380
C1C0
C1C0
C1C0
E380
7F80
3E00
ENDCHAR
STARTCHAR nine.pnum
ENCODING -1
SWIDTH 578 0
DWIDTH 13 0
BBX 10 16 1 0
BITMAP
1F00
3F80
71C0
E1C0
E0C0
E0C0
E0C0
71C0
7FC0
1EC0
00C0
01C0
0180
0780
3F00
3C00
ENDCHAR
STARTCHAR zero.pnum
ENCODING -1
SWIDTH 587 0
DWIDTH 13 0
BBX 10 16 2 0
BITMAP
3E00
7F00
E380
E180
C1C0
C1C0
C1C0
C1C0
C1C0
C1C0
C1C0
C1C0
E180
E380
7F00
3E00
ENDCHAR
STARTCHAR G_acutecomb.ccmp
ENCODING -1
SWIDTH 680 0
DWIDTH 15 0
BBX 13 20 1 0
BITMAP
01C0
0380
0700
0000
0FC0
3FE0
7870
7070
6038
E000
E000
E000
E1F8
E1F8
E038
6038
7038
3878
3FF0
0FC0
ENDCHAR
STARTCHAR g_acutecomb.ccmp
ENCODING -1
SWIDTH 566 0
DWIDTH 12 0
BBX 10 20 1 -4
BITMAP
0780
0E00
0C00
0000
3CC0
7FC0
E1C0
E1C0
C1C0
C1C0
C1C0
C1C0
E1C0
E1C0
7FC0
3DC0
01C0
4380
FF80
3E00
ENDCHAR
STARTCHAR N_gravecomb.ccmp
ENCODING -1
SWIDTH 709 0
DWIDTH 16 0
BBX 12 20 2 0
BITMAP
3800
0C00
0600
0000
E030
E030
F030
F830
F830
FC30
EE30
EE30
E730
E330
E3B0
E1F0
E1F0
E0F0
E070
E070
ENDCHAR
STARTCHAR n_gravecomb.ccmp
ENCODING -1
SWIDTH 556 0
DWIDTH 12 0
BBX 10 16 1 0
BITMAP
7800
1C00
0E00
0000
EF00
FF80
F1C0
E1C0
E1C0
E1C0
E1C0
E1C0
E1C0
E1C0
E1C0
E1C0
ENDCHAR
STARTCHAR A_uni030F.ccmp
ENCODING -1
SWIDTH 665 0
DWIDTH 15 0
BBX 14 20 0 0
BITMAP
7F00
1D80
0EC0
0000
0380
0380
0780
07C0
0EC0
0EE0
0CE0
1C60
1C70
1870
3FF0
3FF8
7018
701C
601C
E01C
ENDCHAR
STARTCHAR a_uni030F.ccmp
ENCODING -1
SWIDTH 541 0
DWIDTH 12 0
BBX 11 16 0 0
BITMAP
EE00
3F00
1F80
0000
0F00
3FC0
31C0
70E0
00E0
1FE0
3FE0
70E0
70E0
71E0
3FE0
1EE0
ENDCHAR
STARTCHAR E_uni030F.ccmp
ENCODING -1
SWIDTH 565 0
DWIDTH 12 0
BBX 11 20 1 0
BITMAP
EE00
7700
3B00
0000
7FE0
7FE0
6000
6000
6000
6000
6000
7FC0
7FC0
6000
6000
6000
6000
6000
7FE0
7FE0
ENDCHAR
STARTCHAR e_uni030F.ccmp
ENCODING -1
SWIDTH 536 0
DWIDTH 12 0
BBX 11 16 0 0
BITMAP
EE00
3700
1B80
0000
0F80
1FC0
38E0
70E0
7060
7FE0
7FE0
7000
7040
3860
1FC0
0F80
ENDCHAR
STARTCHAR I_uni030F.ccmp
ENCODING -1
SWIDTH 282 0
DWIDTH 6 0
BBX 9 20 -3 0
BITMAP
EE00
3F00
1F80
0000
0600
0600
0600
0600
0600
0600
0600
0600
0600
0600
0600
0600
0600
0600
0600
0600
ENDCHAR
STARTCHAR dotlessi_uni030F.ccmp
ENCODING -1
SWIDTH 262 0
DWIDTH 6 0
BBX 9 16 -3 0
BITMAP
EE00
3700
1B80
0000
0600
0600
0600
0600
0600
0600
0600
0600
0600
0600
0600
0600
ENDCHAR
STARTCHAR O_uni030F.ccmp
ENCODING -1
SWIDTH 690 0
DWIDTH 15 0
BBX 13 20 1 0
BITMAP
7700
3B80
1D80
0000
0F80
3FE0
78F0
7070
E038
E038
E038
E038
E038
E038
E038
E038
7070
78F0
3FE0
0F80
ENDCHAR
STARTCHAR o_uni030F.ccmp
ENCODING -1
SWIDTH 569 0
DWIDTH 13 0
BBX 12 16 0 0
BITMAP
FE00
3B00
1F80
0000
0F80
1FC0
38E0
7070
7070
7070
7070
7070
7070
38E0
1FC0
0F80
ENDCHAR
STARTCHAR R_uni030F.ccmp
ENCODING -1
SWIDTH 624 0
DWIDTH 14 0
BBX 13 20 1 0
BITMAP
FE00
7600
3B00
0000
7F80
7FE0
60E0
6070
6070
6070
6070
60E0
7FC0
7F80
61C0
61C0
60E0
60E0
6070
6078
ENDCHAR
STARTCHAR r_uni030F.ccmp
ENCODING -1
SWIDTH 351 0
DWIDTH 8 0
BBX 10 16 -2 0
BITMAP
FE00
3B00
1D80
0000
1DC0
1FC0
1E00
1C00
1C00
1C00
1C00
1C00
1C00
1C00
1C00
1C00
ENDCHAR
STARTCHAR U_uni030F.ccmp
ENCODING -1
SWIDTH 651 0
DWIDTH 14 0
BBX 12 20 1 0
BITMAP
FE00
3F00
1F80
0000
E070
E070
E070
E070
E070
E070
E070
E070
E070
E070
E070
E070
E070
70E0
3FC0
1F80
ENDCHAR
STARTCHAR u_uni030F.ccmp
ENCODING -1
SWIDTH 555 0
DWIDTH 12 0
BBX 11 16 0 0
BITMAP
EE00
3F00
1F80
0000
70E0
70E0
70E0
70E0
70E0
70E0
70E0
70E0
70E0
71E0
3FE0
1EE0
ENDCHAR
STARTCHAR Upsilon1_acutecomb.ccmp
ENCODING -1
SWIDTH 608 0
DWIDTH 13 0
BBX 18 18 -4 0
BITMAP
600000
600000
4703C0
C78380
038700
018600
01CE00
00CC00
00EC00
007C00
007800
007800
003000
003000
003000
003000
003000
003000
ENDCHAR
STARTCHAR B_dotbelowcomb.ccmp
ENCODING -1
SWIDTH 630 0
DWIDTH 14 0
BBX 11 20 2 -4
BITMAP
FF00
FF80
C1C0
C0C0
C0C0
C0C0
C1C0
FF80
FF80
C1C0
C0E0
C0E0
C0E0
C1C0
FFC0
FF00
0000
1C00
1C00
1C00
ENDCHAR
STARTCHAR b_dotbelowcomb.ccmp
ENCODING -1
SWIDTH 562 0
DWIDTH 12 0
BBX 10 21 1 -4
BITMAP
E000
E000
E000
E000
E000
EF00
FF80
F1C0
E1C0
E0C0
E0C0
E0C0
E0C0
E1C0
F1C0
FF80
EF00
0000
0600
0E00
0600
ENDCHAR
STARTCHAR D_dotbelowcomb.ccmp
ENCODING -1
SWIDTH 653 0
DWIDTH 14 0
BBX 12 20 1 -4
BITMAP
FF00
FFC0
E1E0
E0E0
E070
E070
E070
E070
E070
E070
E070
E070
E0E0
E1E0
FFC0
FF00
0000
0C00
0E00
0C00
ENDCHAR
STARTCHAR d_dotbelowcomb.ccmp
ENCODING -1
SWIDTH 564 0
DWIDTH 12 0
BBX 10 21 1 -4
BITMAP
01C0
01C0
01C0
01C0
01C0
3DC0
7FC0
E3C0
E1C0
C1C0
C1C0
C1C0
C1C0
E1C0
E3C0
7FC0
3DC0
0000
0E00
0E00
0E00
ENDCHAR
STARTCHAR D_uniF6C3.ccmp
ENCODING -1
SWIDTH 653 0
DWIDTH 14 0
BBX 12 21 1 -5
BITMAP
FF00
FFC0
E1E0
E0E0
E070
E070
E070
E070
E070
E070
E070
E070
E0E0
E1E0
FFC0
FF00
0000
0C00
0C00
0C00
1800
ENDCHAR
STARTCHAR d_uniF6C3.ccmp
ENCODING -1
SWIDTH 564 0
DWIDTH 12 0
BBX 10 22 1 -5
BITMAP
01C0
01C0
01C0
01C0
01C0
3DC0
7FC0
E3C0
E1C0
C1C0
C1C0
C1C0
C1C0
E1C0
E3C0
7FC0
3DC0
0000
0E00
0E00
0C00
0C00
ENDCHAR
STARTCHAR H_dotbelowcomb.ccmp
ENCODING -1
SWIDTH 710 0
DWIDTH 16 0
BBX 12 20 2 -4
BITMAP
C070
C070
C070
C070
C070
C070
C070
FFF0
FFF0
C070
C070
C070
C070
C070
C070
C070
0000
0600
0E00
0600
ENDCHAR
STARTCHAR h_dotbelowcomb.ccmp
ENCODING -1
SWIDTH 555 0
DWIDTH 12 0
BBX 10 21 1 -4
BITMAP
E000
E000
E000
E000
E000
EF00
FF80
F1C0
E1C0
E1C0
E1C0
E1C0
E1C0
E1C0
E1C0
E1C0
E1C0
0000
0C00
0E00
0C00
ENDCHAR
STARTCHAR K_acutecomb.ccmp
ENCODING -1
SWIDTH 630 0
DWIDTH 14 0
BBX 12 20 2 0
BITMAP
0700
0E00
1C00
0000
C0F0
C1C0
C3C0
C380
C700
CE00
DC00
FC00
FE00
FF00
E700
C380
C3C0
C1C0
C0E0
C0F0
ENDCHAR
STARTCHAR k_acutecomb.ccmp
ENCODING -1
SWIDTH 521 0
DWIDTH 11 0
BBX 11 19 1 0
BITMAP
0380
0700
EE00
E000
E000
E000
E000
E1C0
E380
E700
EE00
FC00
FC00
FE00
F700
E700
E380
E1C0
E1E0
ENDCHAR
STARTCHAR K_dotbelowcomb.ccmp
ENCODING -1
SWIDTH 630 0
DWIDTH 14 0
BBX 12 19 2 -3
BITMAP
C0F0
C1C0
C3C0
C380
C700
CE00
DC00
FC00
FE00
FF00
E700
C380
C3C0
C1C0
C0E0
C0F0
0C00
0C00
0E00
ENDCHAR
STARTCHAR k_dotbelowcomb.ccmp
ENCODING -1
SWIDTH 521 0
DWIDTH 11 0
BBX 11 20 1 -3
BITMAP
E000
E000
E000
E000
E000
E1C0
E380
E700
EE00
FC00
FC00
FE00
F700
E700
E380
E1C0
E1C0
0C20
1C00
0C00
ENDCHAR
STARTCHAR L_dotbelowcomb.ccmp
ENCODING -1
SWIDTH 541 0
DWIDTH 12 0
BBX 9 20 2 -4
BITMAP
C000
C000
C000
C000
C000
C000
C000
C000
C000
C000
C000
C000
C000
C000
FF80
FF80
0000
1C00
1C00
1C00
ENDCHAR
STARTCHAR l_dotbelowcomb.ccmp
ENCODING -1
SWIDTH 255 0
DWIDTH 6 0
BBX 3 21 1 -4
BITMAP
E0
E0
E0
E0
E0
E0
E0
E0
E0
E0
E0
E0
E0
E0
E0
E0
E0
00
60
E0
60
ENDCHAR
STARTCHAR M_dotbelowcomb.ccmp
ENCODING -1
SWIDTH 875 0
DWIDTH 19 0
BBX 16 20 2 -4
BITMAP
E00F
F00F
F01F
F01F
F83F
D83F
DC37
DC77
CC67
CE67
C6E7
C6C7
C7C7
C3C7
C387
C387
0000
0380
0380
0380
ENDCHAR
STARTCHAR m_dotbelowcomb.ccmp
ENCODING -1
SWIDTH 870 0
DWIDTH 19 0
BBX 17 16 1 -4
BITMAP
EF1E00
FFBF00
F1E380
E1C380
E1C380
E1C380
E1C380
E1C380
E1C380
E1C380
E1C380
E1C380
000000
01C000
01C000
01C000
ENDCHAR
STARTCHAR N_dotbelowcomb.ccmp
ENCODING -1
SWIDTH 709 0
DWIDTH 16 0
BBX 12 20 2 -4
BITMAP
E030
E030
F030
F830
F830
FC30
EE30
EE30
E730
E330
E3B0
E1F0
E1F0
E0F0
E070
E070
0000
0600
0E00
0600
ENDCHAR
STARTCHAR n_dotbelowcomb.ccmp
ENCODING -1
SWIDTH 556 0
DWIDTH 12 0
BBX 10 16 1 -4
BITMAP
EF00
FF80
F1C0
E1C0
E1C0
E1C0
E1C0
E1C0
E1C0
E1C0
E1C0
E1C0
0000
0C00
0E00
0C00
ENDCHAR
STARTCHAR O_tildecomb_acutecomb.ccmp
ENCODING -1
SWIDTH 690 0
DWIDTH 15 0
BBX 13 22 1 0
BITMAP
0180
0300
0000
0CC0
1B80
0000
0F80
3FE0
78F0
7070
E038
E038
E038
E038
E038
E038
E038
E038
7070
78F0
3FE0
0F80
ENDCHAR
STARTCHAR P_acutecomb.ccmp
ENCODING -1
SWIDTH 639 0
DWIDTH 14 0
BBX 11 20 2 0
BITMAP
0700
0E00
1C00
0000
FF00
FFC0
C1E0
C0E0
C0E0
C0E0
C0E0
C1E0
FFC0
FF00
C000
C000
C000
C000
C000
C000
ENDCHAR
STARTCHAR p_acutecomb.ccmp
ENCODING -1
SWIDTH 562 0
DWIDTH 12 0
BBX 10 20 1 -4
BITMAP
03C0
0700
0600
0000
EF00
FF80
E1C0
E1C0
E0C0
E0C0
E0C0
E0C0
E1C0
E1C0
FF80
EF00
E000
E000
E000
E000
ENDCHAR
STARTCHAR R_dotbelowcomb.ccmp
ENCODING -1
SWIDTH 624 0
DWIDTH 14 0
BBX 12 20 2 -4
BITMAP
FF00
FFC0
C1C0
C0E0
C0E0
C0E0
C0E0
C1C0
FF80
FF00
C380
C380
C1C0
C1C0
C0E0
C0E0
0010
1C00
1C00
1C00
ENDCHAR
STARTCHAR r_dotbelowcomb.ccmp
ENCODING -1
SWIDTH 351 0
DWIDTH 8 0
BBX 7 16 1 -4
BITMAP
EE
FE
F0
E0
E0
E0
E0
E0
E0
E0
E0
E0
00
60
E0
60
ENDCHAR
STARTCHAR S_dotbelowcomb.ccmp
ENCODING -1
SWIDTH 603 0
DWIDTH 13 0
BBX 11 20 1 -4
BITMAP
1F00
7FC0
70E0
E0E0
E060
E000
7800
3F00
0F80
01E0
00E0
C060
E060
F0E0
7FC0
1F80
0000
0600
0E00
0600
ENDCHAR
STARTCHAR s_dotbelowcomb.ccmp
ENCODING -1
SWIDTH 516 0
DWIDTH 11 0
BBX 9 16 1 -4
BITMAP
3E00
7F00
E380
E180
E000
7E00
1F00
0380
C180
E380
7F80
3E00
0000
0C00
1C00
0C00
ENDCHAR
STARTCHAR T_dotbelowcomb.ccmp
ENCODING -1
SWIDTH 606 0
DWIDTH 13 0
BBX 13 20 0 -4
BITMAP
FFF8
FFF8
0700
0700
0700
0700
0700
0700
0700
0700
0700
0700
0700
0700
0700
0700
0000
0700
0700
0700
ENDCHAR
STARTCHAR t_dotbelowcomb.ccmp
ENCODING -1
SWIDTH 332 0
DWIDTH 7 0
BBX 7 19 0 -4
BITMAP
30
30
30
FC
FC
30
30
30
30
30
30
30
38
3E
1E
00
0C
1C
0C
ENDCHAR
STARTCHAR U_tildecomb_acutecomb.ccmp
ENCODING -1
SWIDTH 651 0
DWIDTH 14 0
BBX 12 22 1 0
BITMAP
0380
0200
0400
0C80
1380
0000
E070
E070
E070
E070
E070
E070
E070
E070
E070
E070
E070
E070
E070
70E0
3FC0
1F80
ENDCHAR
STARTCHAR V_tildecomb.ccmp
ENCODING -1
SWIDTH 646 0
DWIDTH 14 0
BBX 14 20 0 0
BITMAP
0E60
1FE0
19C0
0000
E01C
7038
7038
7038
3030
3870
3870
1860
1CE0
1CE0
0CC0
0FC0
0FC0
0780
0780
0380
ENDCHAR
STARTCHAR v_tildecomb.ccmp
ENCODING -1
SWIDTH 494 0
DWIDTH 11 0
BBX 11 17 0 0
BITMAP
1880
3F80
2300
0000
0000
E0E0
60C0
71C0
7180
3180
3B80
3B00
1B00
1B00
0E00
0E00
0E00
ENDCHAR
STARTCHAR V_dotbelowcomb.ccmp
ENCODING -1
SWIDTH 646 0
DWIDTH 14 0
BBX 14 20 0 -4
BITMAP
E01C
7038
7038
7038
3030
3870
3870
1860
1CE0
1CE0
0CC0
0FC0
0FC0
0780
0780
0380
0000
0300
0380
0300
ENDCHAR
STARTCHAR v_dotbelowcomb.ccmp
ENCODING -1
SWIDTH 494 0
DWIDTH 11 0
BBX 11 16 0 -4
BITMAP
E0E0
60C0
71C0
7180
3180
3B80
3B00
1B00
1B00
0E00
0E00
0E00
0000
0E00
0E00
0E00
ENDCHAR
STARTCHAR W_dotbelowcomb.ccmp
ENCODING -1
SWIDTH 879 0
DWIDTH 19 0
BBX 19 20 0 -4
BITMAP
E0E0E0
60E0C0
70E0C0
70F1C0
71F1C0
31B1C0
31B180
39B980
3B9B80
3B1B80
1B1B00
1B1F00
1E0F00
1E0F00
0E0E00
0E0E00
000000
006000
00E000
006000
ENDCHAR
STARTCHAR w_dotbelowcomb.ccmp
ENCODING -1
SWIDTH 743 0
DWIDTH 16 0
BBX 16 16 0 -4
BITMAP
E187
6186
63C6
73CE
73CE
36EC
366C
366C
3E7C
1C38
1C38
1C38
0000
0180
01C0
0180
ENDCHAR
STARTCHAR Z_dotbelowcomb.ccmp
ENCODING -1
SWIDTH 602 0
DWIDTH 13 0
BBX 12 20 1 -4
BITMAP
FFE0
FFE0
00E0
01C0
0380
0380
0700
0E00
0E00
1C00
3800
3800
7000
E000
FFF0
FFF0
0000
0E00
0E00
0E00
ENDCHAR
ENDFONT
